<svg xmlns="http://www.w3.org/2000/svg" version="1.1" xmlns:xlink="http://www.w3.org/1999/xlink" xmlns:svgjs="http://svgjs.dev/svgjs" width="400" height="1440" preserveAspectRatio="none" viewBox="0 0 400 1440"><g mask="url(&quot;#SvgjsMask9147&quot;)" fill="none"><rect width="400" height="1440" x="0" y="0" fill="#0e2a47"></rect><path d="M180.65 1320.18a5.6 5.6 0 1 0 3.6-10.6 5.6 5.6 0 1 0-3.6 10.6zM185.8 1305.03a5.6 5.6 0 1 0 3.61-10.6 5.6 5.6 0 1 0-3.61 10.6zM190.95 1289.89a5.6 5.6 0 1 0 3.61-10.61 5.6 5.6 0 1 0-3.61 10.61zM196.11 1274.74a5.6 5.6 0 1 0 3.61-10.6 5.6 5.6 0 1 0-3.61 10.6zM185.49 1355.63a5.6 5.6 0 1 0 3.6-10.6 5.6 5.6 0 1 0-3.6 10.6zM190.64 1340.48a5.6 5.6 0 1 0 3.61-10.6 5.6 5.6 0 1 0-3.61 10.6zM195.79 1325.34a5.6 5.6 0 1 0 3.61-10.61 5.6 5.6 0 1 0-3.61 10.61zM200.95 1310.19a5.6 5.6 0 1 0 3.61-10.61 5.6 5.6 0 1 0-3.61 10.61zM190.33 1391.08a5.6 5.6 0 1 0 3.61-10.61 5.6 5.6 0 1 0-3.61 10.61zM195.48 1375.93a5.6 5.6 0 1 0 3.61-10.6 5.6 5.6 0 1 0-3.61 10.6zM200.63 1360.78a5.6 5.6 0 1 0 3.61-10.6 5.6 5.6 0 1 0-3.61 10.6zM205.79 1345.64a5.6 5.6 0 1 0 3.61-10.61 5.6 5.6 0 1 0-3.61 10.61z" fill="#037b0b"></path><rect width="165.2" height="165.2" clip-path="url(&quot;#SvgjsClipPath9148&quot;)" x="126.03" y="847.08" fill="url(&quot;#SvgjsPattern9149&quot;)" transform="rotate(45.18, 208.63, 929.68)"></rect><rect width="75" height="75" clip-path="url(&quot;#SvgjsClipPath9150&quot;)" x="25.2" y="628.99" fill="url(&quot;#SvgjsPattern9151&quot;)" transform="rotate(319.41, 62.7, 666.49)"></rect><path d="M39.59 1205.34a5.6 5.6 0 1 0-5.85-9.55 5.6 5.6 0 1 0 5.85 9.55zM31.23 1191.7a5.6 5.6 0 1 0-5.85-9.55 5.6 5.6 0 1 0 5.85 9.55zM22.87 1178.05a5.6 5.6 0 1 0-5.85-9.55 5.6 5.6 0 1 0 5.85 9.55zM14.51 1164.41a5.6 5.6 0 1 0-5.85-9.55 5.6 5.6 0 1 0 5.85 9.55zM69.95 1224.26a5.6 5.6 0 1 0-5.85-9.55 5.6 5.6 0 1 0 5.85 9.55zM61.59 1210.62a5.6 5.6 0 1 0-5.85-9.55 5.6 5.6 0 1 0 5.85 9.55zM53.23 1196.98a5.6 5.6 0 1 0-5.85-9.55 5.6 5.6 0 1 0 5.85 9.55zM44.87 1183.34a5.6 5.6 0 1 0-5.85-9.55 5.6 5.6 0 1 0 5.85 9.55zM100.31 1243.19a5.6 5.6 0 1 0-5.85-9.55 5.6 5.6 0 1 0 5.85 9.55zM91.95 1229.55a5.6 5.6 0 1 0-5.85-9.55 5.6 5.6 0 1 0 5.85 9.55zM83.59 1215.9a5.6 5.6 0 1 0-5.85-9.55 5.6 5.6 0 1 0 5.85 9.55zM75.23 1202.26a5.6 5.6 0 1 0-5.85-9.55 5.6 5.6 0 1 0 5.85 9.55z" fill="#037b0b"></path><rect width="120.2" height="120.2" clip-path="url(&quot;#SvgjsClipPath9152&quot;)" x="95.25" y="546.58" fill="url(&quot;#SvgjsPattern9153&quot;)" transform="rotate(188.35, 155.35, 606.68)"></rect><path d="M346.8 864.98L342.16 876.92 329.5 875.01 324.86 886.95 312.2 885.04 307.56 896.98 294.89 895.07M342.79 858.06L338.15 869.99 325.49 868.09 320.85 880.03 308.18 878.12 303.54 890.06 290.88 888.15M338.78 851.14L334.14 863.07 321.47 861.17 316.84 873.1 304.17 871.2 299.53 883.13 286.87 881.23" stroke="#037b0b" stroke-width="1.81" stroke-dasharray="3, 3"></path><path d="M329.03000000000003 830.4200000000001 L299.7 774.1L283.0401284080917 833.5848715919083z" fill="#e73635"></path><path d="M166.18 166.07999999999998 L131.2 210.93L175.56455061675254 215.37955061675254z" fill="#037b0b"></path><rect width="120" height="120" clip-path="url(&quot;#SvgjsClipPath9154&quot;)" x="277.37" y="1348.96" fill="url(&quot;#SvgjsPattern9155&quot;)" transform="rotate(49.48, 337.37, 1408.96)"></rect><rect width="156" height="156" clip-path="url(&quot;#SvgjsClipPath9156&quot;)" x="177.22" y="865.61" fill="url(&quot;#SvgjsPattern9157&quot;)" transform="rotate(140.79, 255.22, 943.61)"></rect><path d="M113.41 284.17L110.83 296.72 98.02 296.95 95.44 309.49 82.63 309.72 80.05 322.26 67.24 322.49M108.31 278.02L105.72 290.56 92.92 290.79 90.33 303.33 77.53 303.56 74.94 316.1 62.14 316.34" stroke="#d3b714" stroke-width="2.06" stroke-dasharray="3, 3"></path><path d="M81.64 192.12L82.52 179.34 95.18 177.39 96.05 164.62 108.71 162.67 109.58 149.89 122.24 147.94" stroke="#037b0b" stroke-width="1" stroke-dasharray="4, 4"></path><path d="M116.10000000000001 1208.5900000000001 L103.77 1083.93L21.996006752602938 1234.1989932473973z" fill="#037b0b"></path><circle r="65.96406583039109" cx="271.25" cy="278.41" fill="#d3b714"></circle><path d="M74.39 568.14L74.41 580.94 61.92 583.78 61.94 596.58 49.45 599.41 49.47 612.22 36.98 615.05" stroke="#d3b714" stroke-width="1.92" stroke-dasharray="3, 3"></path><rect width="186.68" height="186.68" clip-path="url(&quot;#SvgjsClipPath9158&quot;)" x="35.6" y="968.8" fill="url(&quot;#SvgjsPattern9159&quot;)" transform="rotate(285.46, 128.94, 1062.14)"></rect><rect width="192.6" height="192.6" clip-path="url(&quot;#SvgjsClipPath9160&quot;)" x="267.74" y="801.04" fill="url(&quot;#SvgjsPattern9161&quot;)" transform="rotate(206.65, 364.04, 897.34)"></rect></g><defs><mask id="SvgjsMask9147"><rect width="400" height="1440" fill="#ffffff"></rect></mask><pattern x="0" y="0" width="8.26" height="8.26" patternUnits="userSpaceOnUse" id="SvgjsPattern9149"><path d="M0 8.26L4.13 0L8.26 8.26" stroke="#d3b714" fill="none"></path></pattern><clipPath id="SvgjsClipPath9148"><circle r="41.3" cx="208.63" cy="929.68"></circle></clipPath><pattern x="0" y="0" width="7.5" height="7.5" patternUnits="userSpaceOnUse" id="SvgjsPattern9151"><path d="M3.75 1L3.75 6.5M1 3.75L6.5 3.75" stroke="#037b0b" fill="none" stroke-width="1"></path></pattern><clipPath id="SvgjsClipPath9150"><circle r="18.75" cx="62.7" cy="666.49"></circle></clipPath><pattern x="0" y="0" width="12.02" height="12.02" patternUnits="userSpaceOnUse" id="SvgjsPattern9153"><path d="M6.01 1L6.01 11.02M1 6.01L11.02 6.01" stroke="#037b0b" fill="none" stroke-width="1"></path></pattern><clipPath id="SvgjsClipPath9152"><circle r="30.05" cx="155.35" cy="606.68"></circle></clipPath><pattern x="0" y="0" width="6" height="6" patternUnits="userSpaceOnUse" id="SvgjsPattern9155"><path d="M3 1L3 5M1 3L5 3" stroke="#d3b714" fill="none" stroke-width="1.7"></path></pattern><clipPath id="SvgjsClipPath9154"><circle r="30" cx="337.37" cy="1408.96"></circle></clipPath><pattern x="0" y="0" width="6" height="6" patternUnits="userSpaceOnUse" id="SvgjsPattern9157"><path d="M0 6L3 0L6 6" stroke="#d3b714" fill="none"></path></pattern><clipPath id="SvgjsClipPath9156"><circle r="39" cx="255.22" cy="943.61"></circle></clipPath><pattern x="0" y="0" width="186.68" height="7.18" patternUnits="userSpaceOnUse" id="SvgjsPattern9159"><rect width="186.68" height="3.59" x="0" y="0" fill="#d3b714"></rect><rect width="186.68" height="3.59" x="0" y="3.59" fill="rgba(0, 0, 0, 0)"></rect></pattern><clipPath id="SvgjsClipPath9158"><circle r="46.67" cx="128.94" cy="1062.14"></circle></clipPath><pattern x="0" y="0" width="6.42" height="6.42" patternUnits="userSpaceOnUse" id="SvgjsPattern9161"><path d="M3.21 1L3.21 5.42M1 3.21L5.42 3.21" stroke="#e73635" fill="none" stroke-width="1"></path></pattern><clipPath id="SvgjsClipPath9160"><circle r="48.15" cx="364.04" cy="897.34"></circle></clipPath></defs></svg>