<svg xmlns="http://www.w3.org/2000/svg" version="1.1" xmlns:xlink="http://www.w3.org/1999/xlink" xmlns:svgjs="http://svgjs.dev/svgjs" width="1440" height="560" preserveAspectRatio="none" viewBox="0 0 1440 560"><g mask="url(&quot;#SvgjsMask1000&quot;)" fill="none"><rect width="1440" height="560" x="0" y="0" fill="#0e2a47"></rect><rect width="82.6" height="82.6" clip-path="url(&quot;#SvgjsClipPath1001&quot;)" x="1367.64" y="496.14" fill="url(&quot;#SvgjsPattern1002&quot;)" transform="rotate(132.36, 1408.94, 537.44)"></rect><path d="M292.51 139.58a5.6 5.6 0 1 0-9.57 5.81 5.6 5.6 0 1 0 9.57-5.81zM278.83 147.88a5.6 5.6 0 1 0-9.57 5.81 5.6 5.6 0 1 0 9.57-5.81zM265.16 156.18a5.6 5.6 0 1 0-9.58 5.81 5.6 5.6 0 1 0 9.58-5.81zM251.48 164.48a5.6 5.6 0 1 0-9.58 5.81 5.6 5.6 0 1 0 9.58-5.81zM311.57 109.3a5.6 5.6 0 1 0-9.58 5.81 5.6 5.6 0 1 0 9.58-5.81zM297.89 117.6a5.6 5.6 0 1 0-9.57 5.81 5.6 5.6 0 1 0 9.57-5.81zM284.21 125.9a5.6 5.6 0 1 0-9.57 5.81 5.6 5.6 0 1 0 9.57-5.81zM270.53 134.2a5.6 5.6 0 1 0-9.57 5.81 5.6 5.6 0 1 0 9.57-5.81z" stroke="#e73635" stroke-width="2.54"></path><path d="M714.9699999999999 167.81 L831.76 125.28L851.8215581080426 225.00155810804262z" fill="#037b0b"></path><rect width="113.8" height="113.8" clip-path="url(&quot;#SvgjsClipPath1003&quot;)" x="1066.08" y="166.24" fill="url(&quot;#SvgjsPattern1004&quot;)" transform="rotate(239.49, 1122.98, 223.14)"></rect><rect width="317.52" height="317.52" clip-path="url(&quot;#SvgjsClipPath1005&quot;)" x="1178.44" y="-64.67" fill="url(&quot;#SvgjsPattern1006&quot;)" transform="rotate(97.3, 1337.2, 94.09)"></rect><path d="M1104.9099999999999 273.99 L1095.87 305.78L1080.354417026611 269.8494170266111z" stroke="#e73635" stroke-width="2.09"></path><circle r="59.87484422559041" cx="150.55" cy="55.69" stroke="#d3b714" stroke-width="1.6" stroke-dasharray="4, 4"></circle><path d="M1338.54 438.26L1329.77 428.93 1336.95 418.32 1328.18 408.99 1335.36 398.39 1326.59 389.05 1333.77 378.45" stroke="#037b0b" stroke-width="1" stroke-dasharray="3, 3"></path><circle r="46.666666666666664" cx="244.42" cy="216.11" stroke="#e73635" stroke-width="2.72" stroke-dasharray="4, 4"></circle><path d="M1392.01 57.71L1390.09 70.37 1377.31 71.27 1375.39 83.93 1362.61 84.83 1360.68 97.49 1347.91 98.39M1386.59 51.83L1384.66 64.49 1371.89 65.39 1369.96 78.05 1357.19 78.95 1355.26 91.61 1342.49 92.51M1381.16 45.95L1379.24 58.61 1366.46 59.51 1364.54 72.17 1351.76 73.07 1349.84 85.73 1337.06 86.63" stroke="#e73635" stroke-width="1.52" stroke-dasharray="2, 2"></path><circle r="46.666666666666664" cx="893.21" cy="512.27" stroke="#e73635" stroke-width="2.88" stroke-dasharray="3, 3"></circle><path d="M1239.42 442.81a5.6 5.6 0 1 0-4.21 10.38 5.6 5.6 0 1 0 4.21-10.38zM1233.4 457.63a5.6 5.6 0 1 0-4.22 10.38 5.6 5.6 0 1 0 4.22-10.38zM1227.38 472.46a5.6 5.6 0 1 0-4.22 10.37 5.6 5.6 0 1 0 4.22-10.37zM1221.36 487.28a5.6 5.6 0 1 0-4.22 10.38 5.6 5.6 0 1 0 4.22-10.38zM1236.64 407.14a5.6 5.6 0 1 0-4.21 10.38 5.6 5.6 0 1 0 4.21-10.38zM1230.62 421.97a5.6 5.6 0 1 0-4.22 10.37 5.6 5.6 0 1 0 4.22-10.37zM1224.6 436.79a5.6 5.6 0 1 0-4.22 10.38 5.6 5.6 0 1 0 4.22-10.38zM1218.58 451.61a5.6 5.6 0 1 0-4.22 10.38 5.6 5.6 0 1 0 4.22-10.38z" stroke="#e73635" stroke-width="2.87"></path></g><defs><mask id="SvgjsMask1000"><rect width="1440" height="560" fill="#ffffff"></rect></mask><pattern x="0" y="0" width="8.26" height="8.26" patternUnits="userSpaceOnUse" id="SvgjsPattern1002"><path d="M4.13 1L4.13 7.26M1 4.13L7.26 4.13" stroke="#037b0b" fill="none" stroke-width="2.31"></path></pattern><clipPath id="SvgjsClipPath1001"><circle r="20.65" cx="1408.94" cy="537.44"></circle></clipPath><pattern x="0" y="0" width="11.38" height="11.38" patternUnits="userSpaceOnUse" id="SvgjsPattern1004"><path d="M5.69 1L5.69 10.38M1 5.69L10.38 5.69" stroke="#e73635" fill="none" stroke-width="4.3"></path></pattern><clipPath id="SvgjsClipPath1003"><circle r="28.45" cx="1122.98" cy="223.14"></circle></clipPath><pattern x="0" y="0" width="8.82" height="8.82" patternUnits="userSpaceOnUse" id="SvgjsPattern1006"><path d="M0 8.82L4.41 0L8.82 8.82" stroke="#037b0b" fill="none"></path></pattern><clipPath id="SvgjsClipPath1005"><circle r="79.38" cx="1337.2" cy="94.09"></circle></clipPath></defs></svg>