<svg id="Layer_1" data-name="Layer 1" xmlns="http://www.w3.org/2000/svg" viewBox="0 0 1459.13 1060.09"><defs><style>.cls-1{fill:#ede4dd;}.cls-2{fill:#76778e;}.cls-3{fill:#fff;}.cls-4{fill:#e69866;}.cls-11,.cls-12,.cls-16,.cls-5,.cls-9{fill:none;stroke-linecap:round;stroke-linejoin:round;}.cls-5{stroke:#63281a;}.cls-12,.cls-16,.cls-5,.cls-9{stroke-width:1.79px;}.cls-6{fill:#63281a;}.cls-14,.cls-7{fill:#9e4f4a;}.cls-8{fill:#e65658;}.cls-9{stroke:#7c1f24;}.cls-10{fill:#565797;}.cls-11{stroke:#fff;stroke-width:1.19px;}.cls-12{stroke:#1d1e40;}.cls-13{fill:#1d1e40;}.cls-14{opacity:0.67;isolation:isolate;}.cls-15{fill:#010101;}.cls-16{stroke:#541e1c;}.cls-17{fill:#bc826c;}</style></defs><g id="Layer_9" data-name="Layer 9"><ellipse class="cls-1" cx="748.24" cy="874.06" rx="434.28" ry="117.76"/></g><g id="Layer_17" data-name="Layer 17"><path class="cls-1" d="M316.34,849.64c-10.49,1.9-16.19-11.84-7.35-17.77,47.6-32,75.22-75.49,63.78-96.91C315.71,628.28,245.31,631.68,254.38,506s95.28-134.62,129.31-35.4-7.16,147.54,34.9,199.91c24.8,30.89,32.59-13.55,18.89-118.22-19.69-150.41,78.38-119.09-51-235.67C266.19,208.09,291.27,82.36,379.76,82.36s97.05,74.38,128.76,167,15.38,160.35,43.31,227.41,108.13,164,100.45-1.2-69.83-263.34-54.64-327.1,58.88-95.33,122.42-73c71,24.92,61.55,126.6,55.71,162.81s-40.25,73.71-5.12,140.32c7.19,13.6,20.7,49,56.21-14.13S805.08,46.32,928.35,101.86c91.88,41.39-61.85,246.37-11.57,262.54,39.16,12.61,2.63-166.8,113.45-138.48,20.4,5.21,30.64,44.05,9.44,68.74-57.54,67-96,146.34-64.11,188.49,52,68.71,100.41-14.12,88.21-111-14.8-117.58,129.81-153.26,141.15-41S1069.77,586,1069.77,679.8s94.31,171.14,92.06,200.92S883.61,785.35,792,780.86C724.36,777.53,453.31,824.75,316.34,849.64Z"/><g id="Layer_12" data-name="Layer 12"><path class="cls-2" d="M380.94,803.74c-9.13,1.67-14.09-10.36-6.4-15.56,41.43-28,65.47-66.08,55.51-84.82C380.39,610,319.1,613,327,502.94s82.94-117.82,112.57-31S419.84,635.8,490.86,655.09c41.69,11.33-23.56-58-11.78-113.46s98.1-91.35-37-204.44c-108.41-90.75-82.92-205-5.89-205s84.48,65.09,112.1,146.12,13.39,140.34,37.69,199.05,94.13,143.56,87.44-1.05-45.87-229-47.56-286.3c-2.47-84,61.32-119.5,112.37-90.6,45.21,25.59,70.32,90.6,42.7,169.2-10.64,30.28-48.29,59.27-17.7,117.56,6.25,11.91,54.89,60.47,73.66,0,18.85-60.7-31.92-260.28,76.87-236.91,85.84,18.45-69.93,266.65-26.17,280.81,34.09,11,18.39-197,114.87-172.22,17.75,4.57,26.67,38.56,8.21,60.17-50.09,58.65-98.74,208.47-71,245.36,45.24,60.14,102.59-92.75,92-177.51-12.89-102.9,113-134.15,122.87-35.9s-117.65,223-117.65,305.14S1118.93,804.9,1117,831,874.78,747.49,795,743.56C736.13,740.63,500.18,782,380.94,803.74Z"/><path class="cls-3" d="M461.42,290.12c-2.84,12,2.06,34.57,20.52,45.07s34,10.78,37.95,2.9c4.2-8.42-3.08-17-17.44-27.8S464.27,278.13,461.42,290.12Z"/><path class="cls-3" d="M403.89,243.16c2.73,11,10,19.15,17.91,25.43,12.54,10,18.09-10.08,11.93-16.23s-22.47-7.46-19.49-47.19C415,194.73,400.85,230.77,403.89,243.16Z"/><path class="cls-3" d="M450.47,214.15c0,13.63,5.84,22.48,18.79,31.89S487.35,236,481.18,229.8s-22.46-7.46-19.48-47.18C462.48,172.17,450.47,200.5,450.47,214.15Z"/><path class="cls-3" d="M355.92,480.85s11,24.8,22.67,29.82c-3.62,7.82-8.45,27.07-18.12,16.84S341.44,486.82,355.92,480.85Z"/><path class="cls-3" d="M407.5,484.2s-6.41,20.49-13.27,24.65c2.12,6.47,4.94,22.37,10.61,13.92S416,489.15,407.5,484.2Z"/><path class="cls-3" d="M363.94,559.13c3-3.72,28.27,16.55,33.58,4.14,5.43-12.66,10.3-26,13.24-20.27s6.06,21.92-3.09,30.26-12,2.72-19,10c-2.6,2.66-15.16,13.68-14.66,5.23C375,570.66,361,562.84,363.94,559.13Z"/><path class="cls-3" d="M903.63,203.07s-19,41.82-3.78,45.49C910.4,251.1,907.88,227.52,903.63,203.07Z"/><path class="cls-3" d="M871.48,203.07s-24.74,32-11.61,41.82S871.48,203.07,871.48,203.07Z"/><path class="cls-3" d="M883.08,265.39s-20.5,43-7.11,49S883.08,265.39,883.08,265.39Z"/><path class="cls-3" d="M950.36,290.12c-1.24-9.24,8.54,1.7,25.32-5,5.94-2.37-6.75,13.52-13.42,13.57C957.82,298.73,951.52,298.73,950.36,290.12Z"/><path class="cls-3" d="M988.69,321.58c9.27-.94-3.75-5.47,2.55-28.27,1.69-6.16-12,8.06-12.14,14.72C979,313.4,979.42,322.53,988.69,321.58Z"/><path class="cls-3" d="M955.74,320.9S943.3,330.1,945,340.58c.93,5.77,15.58,11,19.33-.67S962.37,315.35,955.74,320.9Z"/><path class="cls-3" d="M1129.44,353.78c-10.45,1.81-7.62,14.48-23,14.59-9.78.07-3.83,13.68,13,7.46S1139.87,352,1129.44,353.78Z"/><path class="cls-3" d="M1061.31,342.49c9.53,4.62,3.31,16,18,20.37,9.4,2.77-.1,14.21-14.55,3.57S1051.77,337.86,1061.31,342.49Z"/><path class="cls-3" d="M1075.61,397.16s-11.58,17,3,27c19.6,13.42,18.77-29.31,11.75-34.34S1075.61,397.16,1075.61,397.16Z"/><path class="cls-3" d="M725,164.89c-14.42,7.57.14,26.84,19.51,38.18S739.41,157.32,725,164.89Z"/><path class="cls-3" d="M674.49,168.65s-37.38,44.33-17.57,51,27.42-20.82,31.14-29.64S692.31,154.86,674.49,168.65Z"/></g></g><g id="Layer_4" data-name="Layer 4"><path class="cls-4" d="M717.55,392.84c-31.28-8.36-85-26.94-150.82,12.47-66.22,39.68,7.77,230.49-71.4,368-21.7,37.7-73.52,62.49-73.52,62.49s102.93,4,113.22,5.32,24.83-84.35,36.38-100.11S763.06,650.7,763.06,650.7s5.32-141-8.26-186.57C745.66,433.58,741.67,399.29,717.55,392.84Z"/><path class="cls-3" d="M611.64,394.75s32.28,96.36,1.92,175.29c-56.32,146.47-36,111.53-44.37,174.08-14.52,108.45,146.27-40.76,146.27-40.76s63.32-27.14,6.38-180.52c-9.3-25-14.52-65.49-15.37-84.65-.78-17.31-6.55-32.94-7.87-46.38C609.19,358.41,611.64,394.75,611.64,394.75Z"/><polygon class="cls-4" points="712.54 374.61 618.01 372 618.01 385.44 707.71 390.15 712.54 374.61"/><polygon class="cls-4" points="618.01 372 603.71 393.54 595.61 438.2 622.23 413.43 618.01 372"/><polygon class="cls-4" points="620.2 433.02 623.35 413.13 612.66 423.07 620.2 433.02"/><polygon class="cls-5" points="698.59 386.16 707.04 435.65 717.75 402.86 698.59 386.16"/><polyline class="cls-5" points="717.75 402.86 725.46 431.36 714.98 413.66"/><circle class="cls-6" cx="721.84" cy="472.42" r="5.91"/><circle class="cls-6" cx="733.49" cy="513.91" r="5.91"/><g id="Layer_15" data-name="Layer 15"><path class="cls-7" d="M965.25,800.83s-2.57,58,21.89,74.12c32.54,21.38,53.38-20.75,53.38-20.75l-30.63-65.39Z"/><path class="cls-2" d="M946.9,858.86s-17.38,28.46,1.6,38.95,78.84,22.27,93.81,27.65c19.56,7,34.9,4.88,45.74.18,32.34-14,22-38.32,22-38.32L1026,878.88Z"/><path class="cls-8" d="M997.94,852.32s3.45-22,29.35-24.22S1046,856,1081.72,866.46c54.57,16,21.28,64.27-23,54-35-8.12-94.16-26.64-107.66-33.37-12.7-6.35-6.66-46.93,15.18-61.06,2,15.21,2.8,16.79,5,24.7C978.21,855.11,986.41,864.32,997.94,852.32Z"/><path class="cls-9" d="M997.94,852.32s25.14.15,32.83,17.79c9.57,21.92,29.38,23.14,37.59,21.6,14.48-2.73,24.55-19.12,13.85-24.33"/><path class="cls-9" d="M1033.06,869.31s19.31-6.58,33.64-3.91"/><line class="cls-9" x1="1052.78" y1="852.32" x2="1049.89" y2="879.43"/><path class="cls-9" d="M1021.52,854.2s16.81-6.39,29.81-3.9"/><line class="cls-9" x1="1040.53" y1="838.93" x2="1036.43" y2="862.73"/><path class="cls-9" d="M959.76,838.93s2.39,9,11.5,11.82"/><g id="Layer_16" data-name="Layer 16"><path class="cls-7" d="M835.85,834.41s3.21,58,29.16,71.56C899.51,924,916.07,880,916.07,880l-29.92-66.28Z"/><g id="Layer_13" data-name="Layer 13"><path class="cls-2" d="M823.36,894s-14.46,30,5.46,38.6,75.71,18.68,91.79,19.83c19,1.37,39.53-.25,49.84-6,30.79-17.16,18.07-40.31,18.07-40.31l-84.5-.06Z"/><path class="cls-8" d="M873.5,882.39s1.24-22.26,26.81-27,20.77,32.26,58,32.78c54.17.74,27.12,55.27-15.88,56.27s-97.92-17.39-112-22.77c-13.26-5-11.3-46,9-62.26,3.49,14.93,4.46,16.43,7.41,24.07C854.13,887.13,863.2,895.48,873.5,882.39Z"/><path class="cls-9" d="M873.5,882.39s25-2.34,34.44,14.44c11.69,20.88,31.53,20.11,39.54,17.76,14.14-4.15,22.52-21.46,11.36-25.58"/><path class="cls-9" d="M910.13,895.79s18.57-8.45,33.09-7.22"/><line class="cls-9" x1="928.07" y1="876.94" x2="927.88" y2="904.21"/><path class="cls-9" d="M897.15,881.92s16.09-8,29.27-6.84"/><line class="cls-9" x1="914.54" y1="864.84" x2="912.83" y2="888.92"/><path class="cls-9" d="M836.91,872.59s.66,6.07,9.88,10.89"/><path class="cls-9" d="M958.27,888.15S981,885.54,986.65,900"/></g><g id="Layer_6" data-name="Layer 6"><path class="cls-4" d="M734.7,455.66S744.62,575.37,779.1,603s50.25-4.25,63.18-31-40.14-88.64-56.16-114.6c-19.69-31.9-52.06-60.8-61.13-58.53S734.7,455.66,734.7,455.66Z"/><polygon class="cls-5" points="618.01 372 603.71 393.54 595.61 438.2 622.23 413.43 618.01 372"/><path class="cls-5" d="M763.8,486.14s17,46.75,22.23,72.73"/><g id="Layer_18" data-name="Layer 18"><path class="cls-7" d="M791.54,434.05l1.23,28.43s45,61.65,44.06,89.38-36.89,31.46-44.13,17.33-28.17-105.73-28.17-105.73-13.54-5.79-27.09-27.12c-2.32-25-4.33-39,2.07-41.12,8-2.69,13,29.3,13,29.3Z"/><g id="Layer_3" data-name="Layer 3"><path class="cls-10" d="M687.67,705s156-174.19,212.2-174.25c43.71,0,54,39.64,54,39.64L1031.58,824,911.45,838.16l-31.76-86.48S792.41,850.33,707,840.45c-114.2-13.21-66.87-112.63-66.87-112.63Z"/><path class="cls-11" d="M725.93,841s33.71-21.94,41.65-89.51"/><path class="cls-11" d="M747.56,837.78s25.27-17.71,22.68-48.63"/><path class="cls-10" d="M569.19,744.12S713.47,541.06,769.64,541c43.7,0,59.86,28.14,66.29,38.58s67.7,266.2,67.7,266.2L770.06,869,751.61,765s-26.29,106-111.65,96.15c-44.93-5.2-73.54-25.29-91.73-47.77C557.35,772,569.19,744.12,569.19,744.12Z"/><path class="cls-12" d="M828.77,568.83a159,159,0,0,1,9,20.5c9.45,28.61,44.86,169.73,44.86,169.73"/><path class="cls-12" d="M707.06,840.46s30.32-35.25,44.56-75.43l12.08,68.06"/><path class="cls-11" d="M838,561.73s24.91-17,44.65,72.23c27.6,124.76,49.14,201.81,49.14,201.81"/><path class="cls-11" d="M859.87,546.6s26.12-2.94,32.76,22.23c5,19,62.18,264.23,62.18,264.23"/><path class="cls-11" d="M887.54,533s24.19-2.72,35.53,41.24C934,616.49,982.57,827,982.57,827"/><path class="cls-11" d="M913.72,532.22s21.34,6.94,28.94,41.87c6.34,29.14,68,252.39,68,252.39"/><path class="cls-11" d="M882.63,849.44l-62.8-268S814.1,548,776.44,541.64"/><path class="cls-11" d="M855.7,854.12s-54.59-258.65-56.59-264.79c-6.64-20.5-20.83-42.65-60.92-35.28"/><path class="cls-11" d="M825.36,859.4s-46.08-241.33-48.43-252.31c-2.46-11.46-13.41-50.89-74.7-22.81"/><path class="cls-11" d="M673.38,614.11s69-25,81.46,18.74,42.1,230.73,42.1,230.73"/><path class="cls-11" d="M677.38,857.66S718.43,817,750,756.29"/><path class="cls-11" d="M630.46,857.66S700.76,823,745.65,737.27"/><path class="cls-11" d="M590.09,847S692,802.2,742.4,711.44"/><path class="cls-11" d="M554,820.07S664.37,779.42,738.19,687"/><path class="cls-11" d="M558.38,774.89S679.91,719,734.06,667.75"/><path class="cls-11" d="M585.94,721.27s134.32-64.4,147.19-69.44"/><path class="cls-11" d="M622.18,674.39s103.75-48.71,116-36.68"/><polyline class="cls-12" points="741.49 646.92 751.62 765.02 735.8 673.11"/><g id="Layer_5" data-name="Layer 5"><path class="cls-4" d="M656.76,607a38.25,38.25,0,0,1-10.54,9,44.13,44.13,0,0,1-10.36,4.28c-29.68,8.16-70-10.18-77.48-17.11a95.29,95.29,0,0,1-21.14-28.71c-13.87-28.81-15.27-66.71-5-112.57,6.12-27.45,26.13-66.63,51.61-56.52,9.86,23,17.23,103.58,17.23,103.58S707.85,544.52,656.76,607Z"/><path class="cls-5" d="M585.94,428.34s20.81,37.06,19.25,82.33"/><path class="cls-5" d="M561.28,541s29.17-42.83,52.28-26.27"/><path class="cls-5" d="M578.84,581.91c-7.39-27.91,11.25-77.22,36-66.51"/><path class="cls-5" d="M591.09,581.91c-7.65-36.06,12.39-69,26.92-64.78"/><path class="cls-5" d="M536.12,572s2.64,10.68,7.39,13.54,7.44.26,11.26,14.06c3.61,13,8.82-8.23,13.58,11.64,1.58,6.58,12.62-5.34,13.72.23.84,4.23,0,10.84,5.34,10.75,2,0,6.24-3.51,6.24-3.51"/><g id="Layer_14" data-name="Layer 14"><ellipse class="cls-8" cx="659.62" cy="398.84" rx="32.82" ry="24.23"/><g id="Layer_7" data-name="Layer 7"><path class="cls-13" d="M739.84,219.66s31.91,50.21-6.55,75.41C721,303.11,726,257.2,726,257.2Z"/><path class="cls-7" d="M634,337.19s-2.07,29.73-2.08,52.63c0,15.53,11.36,27.8,29.8,27.91,22.23.12,23.62-20.49,23.62-20.49l1.92-14.62Z"/><path class="cls-14" d="M633,337.19s-1.93,67.49,35.78,68.12c14.23.24,22.44-28.07,22.44-28.07l1.92-14.62Z"/><path class="cls-7" d="M669.49,245.94c35.67-7.2,67.39,23.94,62.37,60-4.73,33.94-19.68,85.86-46.86,85.17-11.86-.29-47.5-12.16-51.11-52.84-12.79-1.82-15.12-19.44-17.28-34.12C616,299.81,642.29,251.44,669.49,245.94Z"/><ellipse class="cls-15" cx="688.05" cy="316.15" rx="6.98" ry="5.09" transform="translate(285.07 957.23) rotate(-82.52)"/><ellipse class="cls-15" cx="716.13" cy="319.84" rx="6.28" ry="4.58" transform="translate(305.84 988.27) rotate(-82.52)"/><path class="cls-16" d="M705.2,325.45s9.56,25-8.71,18.33"/><path class="cls-13" d="M677.87,301.8c1.71,1.91,9,4,15.36-1.27s4.35-11.17,1.76-10.33-7.07,5.84-11.94,5.36C677,295,676.15,299.89,677.87,301.8Z"/><path class="cls-13" d="M727.69,309.69c-2.28,1.39-8.23.63-11.58-5.12-3.55-6.09-1.81-12,.52-10.37s3.39,7.27,8.38,8.27C731.27,303.7,730,308.31,727.69,309.69Z"/><path class="cls-13" d="M621.62,322.06c-3.06-9.87,1.57-19.82,9.66-20.39,7.41-.53,11.49,13.52,11.49,13.52l8.32-28.07A114.84,114.84,0,0,0,677,273c12.37-9.19,37.85,13.46,51.94,6.59s23.76-21.09,20.87-37.26c-2.67-15-17.07-51.72-86.05-52.32-74.1-.63-91.4,62.84-85.38,84.74,9.53,34.61,30.42,38.06,30.42,38.06l24.58,34.27s1.84,1.86.61-9.88C628.46,335.37,624.68,331.92,621.62,322.06Z"/><path class="cls-17" d="M706.11,361.33s-10.44-5.58-27.17-1.45c4.51-6.67,10.89-11.46,18.47-9.48C705.3,352.46,706.11,361.33,706.11,361.33Z"/><path class="cls-16" d="M628.69,320.33s1.83-8.81,9.39.57c0,0-5.24-20.48-12.27-12.2"/><path class="cls-16" d="M634.81,344.93s4.68,21.61,12.09,25.75"/><g id="Layer_10" data-name="Layer 10"><path class="cls-7" d="M735.5,423.77l1.7-7.84,11.11-15.74s6.79-10.16,11.87-2.89c4.29,6.14,7.07-1.55,11.44,6.72,2.45,4.63,7.79,1,8.9,7.89s6.59,1.77,7.84,7,3.24,13.51,3.24,13.51-.61,23.19-6.12,25.93c-4.62,2.29-27.72-1.92-48.05-22C733.58,432.53,734.8,429.2,735.5,423.77Z"/><line class="cls-5" x1="759.39" y1="402.25" x2="749.45" y2="416.7"/><line class="cls-5" x1="770.97" y1="407.83" x2="759.15" y2="422.3"/><line class="cls-5" x1="771.31" y1="425.92" x2="780.12" y2="416.19"/><path class="cls-5" d="M736,421.49s-1.58,15.21,2.1,14.93,6.4-7.89,6.4-7.89-1.52,10.58,2.71,11.89,7.53-5,7.53-5-1.2,8.48,2.67,10.15,9.06-5.5,9.06-5.5-.43,7.79,3.37,8.39c3.06.48,5.78-2.1,7.85-7.57a35.35,35.35,0,0,0,2.26-9.87l5.48-5.34"/><line class="cls-5" x1="738.61" y1="413.7" x2="749.82" y2="398.08"/><line class="cls-5" x1="766.47" y1="440.04" x2="768.65" y2="430.06"/><line class="cls-5" x1="754.74" y1="435.39" x2="756.97" y2="427.95"/><line class="cls-5" x1="744.5" y1="428.53" x2="746.26" y2="421.19"/><g id="Layer_11" data-name="Layer 11"><path class="cls-7" d="M644.23,380a38.21,38.21,0,0,0-1.32,17.51c1.9,12.11,7.92,30.51,26.92,30.79,17.41.25,30.8-22.49,38.55-40.09,3.46-7.84,5.8-21.8,5.22-18.71s3.73-13.52.9-14.91c-4.65-2.27-11.67,27.11-14.46,27.85-2.1.56,10.94-43.8,1.25-48.36-3.66-1.72-7.79,24.49-10.45,37.93-.39-2.49,10.8-41.92,4.88-49.75s-10.1,27.57-15.31,42c4.88-17.89,11.29-38.93,6-43.16s-19.19,44.17-24,47.79,1.89-28.94-7.7-28.16C651.57,341,648.83,365.48,644.23,380Z"/><path class="cls-16" d="M713.32,368.87c-.59,3.1,3.72-13.52.89-14.91-4.64-2.27-11.67,27.11-14.45,27.85-2.11.56,10.93-43.8,1.24-48.36-3.66-1.72-7.79,24.49-10.44,37.93-.4-2.48,10.8-41.92,4.87-49.75s-10.09,27.58-15.3,42c4.87-17.89,11.29-38.93,6-43.16s-19.19,44.17-24,47.79,1.89-28.94-7.69-28.16c0,0-2.89,1.36-3.36,9.86s-8.1,35-8.1,35a42.27,42.27,0,0,0,3,24.57"/><path class="cls-7" d="M646.71,411.32s-4.33,67.35-36.45,124.74c-15.48,27.64-4.08,77.63,28.65,79.88s38.54-71.34,38.47-85.18,6.06-112.27,6.06-112.27S662.32,401.6,646.71,411.32Z"/></g></g></g></g></g></g></g></g></g></g></g></svg>