<svg id="Layer_1" data-name="Layer 1" xmlns="http://www.w3.org/2000/svg" viewBox="0 0 1459.13 1060.09"><defs><style>.cls-1{fill:#ede4dd;}.cls-10,.cls-12,.cls-15,.cls-18,.cls-19,.cls-2,.cls-20,.cls-27,.cls-30,.cls-31,.cls-6,.cls-7{fill:none;}.cls-12,.cls-2{stroke:#fff;}.cls-10,.cls-12,.cls-15,.cls-18,.cls-19,.cls-2,.cls-20,.cls-27,.cls-29,.cls-30,.cls-31,.cls-6,.cls-7{stroke-linecap:round;stroke-linejoin:round;}.cls-2{stroke-width:1.49px;}.cls-3,.cls-5{fill:#e69866;}.cls-4{fill:#1e1f40;}.cls-5{opacity:0.59;}.cls-28,.cls-5{isolation:isolate;}.cls-6,.cls-7{stroke:#a26e4c;}.cls-10,.cls-12,.cls-15,.cls-18,.cls-19,.cls-27,.cls-30,.cls-6,.cls-7{stroke-width:1.12px;}.cls-7{stroke-dasharray:9.02 9.02;}.cls-29,.cls-8{fill:#fff;}.cls-9{fill:#565797;}.cls-10,.cls-31{stroke:#1e1f40;}.cls-11{fill:#f0b7ac;}.cls-13{fill:#562a1d;}.cls-14{fill:#010101;}.cls-15{stroke:#542210;}.cls-16{fill:#693927;}.cls-17{fill:#a36d4b;}.cls-18{stroke:#562a1d;}.cls-19,.cls-29{stroke:#000;}.cls-20{stroke:#a45d55;stroke-width:0.74px;}.cls-21{fill:#9e4e49;}.cls-22{fill:#e65658;}.cls-23{fill:#75778f;}.cls-24{fill:#eeb899;}.cls-25{fill:#bababa;}.cls-26{fill:#fdca60;}.cls-27{stroke:#565797;}.cls-28{fill:#cc4746;opacity:0.77;}.cls-29{stroke-width:0.63px;}.cls-30{stroke:#3c151d;}.cls-31{stroke-width:2.98px;}</style></defs><g id="Layer_26" data-name="Layer 26"><rect class="cls-1" x="181.13" y="825.15" width="1090.72" height="5.26"/></g><g id="Layer_7" data-name="Layer 7"><path class="cls-1" d="M835.85,346.23C667.93,270.37,559,193.38,370.37,226c-229,39.58-356,422.1-189.24,562.79C471,802.55,1298.8,796.57,1298.8,796.57S1437.36,437.73,1276,333.93,1003.76,422.09,835.85,346.23Z"/></g><g id="Layer_22" data-name="Layer 22"><path class="cls-2" d="M812.15,472.15s14.29,106.68-120,153.39c-39.27,14.19-64.35,29.67-64.35,29.67s25.57-85.35,77-113.72C787.58,495.86,812.15,472.15,812.15,472.15Z"/><path class="cls-2" d="M662.56,324s80.83,96.63-33.6,322.76c-10.54,20.75-20.24,8.43-20.24,8.43S591.85,437.27,662.56,324Z"/><path class="cls-2" d="M628.44,653.14s21.37-57.87,91.75-89.46,92-91.53,92-91.53"/><path class="cls-2" d="M617.22,657.68S671.25,370,662.56,324"/><line class="cls-2" x1="744.51" y1="600.11" x2="689.87" y2="580.65"/><line class="cls-2" x1="771.93" y1="577.57" x2="714.26" y2="566.45"/><line class="cls-2" x1="793.68" y1="549.21" x2="746.61" y2="549.21"/><polyline class="cls-2" points="784.48 493.21 782.28 518.58 810.06 508.31"/><polyline class="cls-2" points="764.81 508.31 764.81 535.57 804.14 527.08"/><line class="cls-2" x1="746.61" y1="517.45" x2="746.61" y2="548.65"/><line class="cls-2" x1="723.67" y1="530.9" x2="716.75" y2="565.26"/><line class="cls-2" x1="695.17" y1="547.65" x2="689.87" y2="580.65"/><polyline class="cls-2" points="649.81 347.44 661.64 371.38 676.22 349.19"/><polyline class="cls-2" points="639.05 373.2 658.31 402.62 684.72 376.88"/><line class="cls-2" x1="632.87" y1="391.54" x2="654.94" y2="428.21"/><line class="cls-2" x1="654.94" y1="428.21" x2="689.24" y2="405.53"/><line class="cls-2" x1="690.18" y1="437.16" x2="648.82" y2="468.06"/><line class="cls-2" x1="624.33" y1="430.34" x2="648.82" y2="468.06"/><line class="cls-2" x1="644.07" y1="502.28" x2="687.55" y2="464.09"/><path class="cls-2" d="M460.59,531.45s26.4,84,110.1,111.83S550,542.87,460.59,531.45Z"/><line class="cls-2" x1="460.59" y1="531.45" x2="614.45" y2="651.29"/><line class="cls-2" x1="535.96" y1="626.9" x2="575.51" y2="620.96"/><polyline class="cls-2" points="482.91 536.51 492.64 556.41 468.01 549.21"/><polyline class="cls-2" points="507.31 546.46 514.83 573.7 480.32 571.06"/><polyline class="cls-2" points="531.09 560.08 529.72 585.29 490.43 585.29"/><polyline class="cls-2" points="549.88 574.81 544.09 596.49 503.2 600.11"/><polyline class="cls-2" points="567.79 589 561.94 608.67 516.84 612.93"/><line class="cls-2" x1="579.55" y1="600.96" x2="575.51" y2="620.96"/><line class="cls-2" x1="617.22" y1="460.01" x2="643.4" y2="501.58"/><polyline class="cls-2" points="612.63 493.21 639.54 533.17 682.89 499"/><polyline class="cls-2" points="609.91 521.38 632.88 566.46 673.54 536.51"/><polyline class="cls-2" points="607.61 561.75 626.58 600.97 660.74 575.4"/><polyline class="cls-2" points="606.47 607.5 622.85 626.9 647.35 608.32"/><polyline class="cls-2" points="676.22 565.14 671.88 594.64 717.19 612.13"/><polyline class="cls-2" points="682.89 628.51 651.88 615.28 660.74 585.43"/><line class="cls-2" x1="636.58" y1="636.99" x2="655.96" y2="641.67"/></g><g id="Layer_2" data-name="Layer 2"><rect class="cls-3" x="537.62" y="660.63" width="731.72" height="101.17"/><path class="cls-3" d="M1067.81,499.56c-183.72,62.2-297.67,95.17-530.19,128.75,71.42.09,726.84,2.42,726.84,2.42l.52-139S1094.81,490.41,1067.81,499.56Z"/><polyline class="cls-3" points="537.62 660.63 537.62 628.3 1264.98 628.3 1264.98 660.63"/><rect class="cls-4" x="572.6" y="761.8" width="10.54" height="63.2"/><rect class="cls-4" x="641.79" y="761.8" width="10.54" height="63.2"/><rect class="cls-4" x="1144.93" y="761.8" width="10.54" height="63.2"/><rect class="cls-4" x="1216.45" y="761.96" width="10.54" height="63.2"/><path class="cls-3" d="M1265,491.67s-18.79-10.82-57.09-5.18c-29,4.26-37.55,44.75-39.56,74-2.51,36.58-2,68.76-2,68.76l28.91,31.39h72.59Z"/><path class="cls-5" d="M1075.27,501c-38.53,10-156.68,48.42-187.28,55.72-137.66,32.84-160.13,44.14-350.37,71.62-.1,15.14,0,32.33,0,32.33l731.72-7-1.54-160.33S1260.23,471.56,1075.27,501Z"/><path class="cls-3" d="M1268,491.89s-68.37-20.29-69.78,113.18v55.56h71.1Z"/><line class="cls-6" x1="542.72" y1="708.12" x2="547.19" y2="708.12"/><line class="cls-7" x1="556.22" y1="708.12" x2="1255.48" y2="708.12"/><line class="cls-6" x1="1259.99" y1="708.12" x2="1264.46" y2="708.12"/></g><g id="Layer_18" data-name="Layer 18"><path class="cls-8" d="M648.56,615.28l77.29,8.39s-43.86,20.9-52.16,25.82c-18.81,11.14-37.64-14.2-47.53-15.47s-41.54-11.57-37.85-21.14S648.56,615.28,648.56,615.28Z"/><g id="Layer_9" data-name="Layer 9"><path class="cls-9" d="M740.11,604.75l108.45-113.5s12.8-14.36,36.34-11.56,138.75,107.87,138.75,107.87L942.72,616.3l-58.45-72.71L821.8,605.87l-49.65,9.9Z"/><path class="cls-10" d="M779.75,605.54l100-97.45s4.88-4.25,12.14,0,94.65,89.2,94.65,89.2"/><path class="cls-9" d="M673,610.55s9.87,20.23,14.77,42.49c213,13.59,370.61,4.29,370.61,4.29l-23.17-78.14L915.76,589.54Z"/><path class="cls-10" d="M891.89,517.78s-.84,19.85-6.67,25.65c1.58-10.06-1.13-16.34-1.13-16.34"/><line class="cls-10" x1="687.18" y1="633.69" x2="1067.25" y2="622.68"/><line class="cls-10" x1="920.85" y1="589.1" x2="992.52" y2="582.89"/><g id="Layer_5" data-name="Layer 5"><path class="cls-11" d="M991.2,421.79a23.24,23.24,0,0,1,5.24,9.22c2.08,7.11,3.54,18.71-6.78,23.76-13.65,6.69-35.1-15-39.78-20a19.81,19.81,0,0,1-1.69-2.07c-1.71-2.36-3.87-5.2-3.59-7.39.38-3.1,15,12.54,16.74,12.23,1.3-.24-21.32-18.66-17.21-23.65,1.56-1.88,11,11,19.56,15.57-.43-1.45-18.94-18.8-17.72-24.6s12.74,12.44,22.44,17c-7.28-8.51-17.23-17.7-15.44-21.36s21.86,19.18,25.41,19.93-8.5-15.32-3.06-17.37C977.13,402.36,984.93,415,991.2,421.79Z"/><path class="cls-4" d="M1003,484.87l39.06,34.4a6.49,6.49,0,0,0,4.89,1.36l76.27-10.33a6.5,6.5,0,0,0,2.74-1c8.87-6,60.58-42,40-57.28-19.69-14.59-85.31,14-101.38,21.42-2.2,1-4,1.91-6,.4,0,0-20.63-12.3-30.1-19.36C1020.06,448.12,1004.76,434,999,434s-21.86,19-21.35,23.79S996.31,479,1003,484.87Z"/><path class="cls-12" d="M1067.25,486.36s2.1-8.42-6.25-11.28c4.56,8.29-5.27,17.1-5.27,17.1"/><g id="Layer_19" data-name="Layer 19"><path class="cls-4" d="M1163.82,450.67s38.34,9.34,40,17.15-10.19,3.74-10.19,3.74l-29.82-20.89"/><g id="Layer_4" data-name="Layer 4"><path class="cls-8" d="M981.54,550.43s.52,40.87,38.82,51.82,177.88-127.76,177.88-127.76-40.53-3.74-36.41-21.1c1.7-7.17-35.72,4.71-67.18,28.92S1058.42,542.14,981.54,550.43Z"/><path class="cls-4" d="M957.48,529.05l24.06,21.37s29.72,10.2,76.88-31.1c24.06-21.07,70.31-63.38,94.34-66,26-2.89,1.94-6.1-6.81-5.69s-38.8,12.86-75,39.65S1022.9,535.12,957.48,529.05Z"/><g id="Layer_6" data-name="Layer 6"><path class="cls-13" d="M1184.93,378.22s-15.53,18.44-6.75-5.42c5.63-15.3,22.84-16.58,22.84-16.58l2.82,18.12S1189,373.93,1184.93,378.22Z"/><path class="cls-11" d="M1192.13,469.67c2.23-11.28,15.84-26.77,15.84-26.77,3.13-9.27-32.88-20.32-32.88-20.32s-8.38,16.91-17.26,35a16.4,16.4,0,0,0,12.6,13A44.13,44.13,0,0,0,1192.13,469.67Z"/><path class="cls-11" d="M1203.83,441.36s-10.85,18.4-36.6,12.13c-7.73-1.88-3.83-7.21-3.83-7.21l4.76-7.72Z"/><path class="cls-11" d="M1229.81,380.27c-14.22-17.31-41.46-14.78-53.08,4.37-11,18-24,48.61-10.78,58.86,5.78,4.47,27.39,12.68,44.94-5.33,6.81,4.11,14.78-3.4,21.52-9.56C1234.4,426.79,1240.66,393.48,1229.81,380.27Z"/><ellipse class="cls-14" cx="1193.6" cy="406.6" rx="4.3" ry="3.13" transform="translate(220.32 1208.31) rotate(-58.29)"/><ellipse class="cls-14" cx="1178.77" cy="397.44" rx="3.86" ry="2.82" transform="matrix(0.53, -0.85, 0.85, 0.53, 221.08, 1191.35)"/><path class="cls-15" d="M1181.85,404.32s-14.3,8.23-3,12.13"/><path class="cls-16" d="M1197.8,391.57c1.52-.43,6,.9,7.54,5.75s-1.45,7.23-2.53,5.94-1.72-5.37-4.4-6.73C1195.05,394.81,1196.27,392,1197.8,391.57Z"/><path class="cls-16" d="M1188.67,386.24c-.56-1.55-3.7-3.48-7.53-2-4.06,1.54-4.83,4.19-3.09,4.32s3.77-1.33,6.54.13C1188.07,390.49,1189.23,387.79,1188.67,386.24Z"/><path class="cls-17" d="M1223.05,435.21c5.3-3.51,7-10.07,3.32-13.49-1.62-1.53-5.08-2.11-8.2-2.29-2.65-.17-6.51-1.61-6.26-7.28.34-7.45,4.66-10.42,2.34-19.62s-17.49-10-21.53-18.74,6.4-32.37,6.4-32.37,2.47,4.81,17.66,17.11c8.37,6.78,19.6,11.25,26.54,22.61,7.09,11.61,6.07,23.29,3.65,29.26-4.92,12.19-10,17.32-16.9,22.62s-29.58,18.6-29.58,18.6,5.61-8.88,10.76-14C1214.6,438.91,1217.76,438.73,1223.05,435.21Z"/><path class="cls-15" d="M1220.35,431.63s2.55-4.91-4.71-3.38c0,0,10.47-7.73,10.6-1"/><path class="cls-17" d="M1162.86,414.92s-6.58,21.18,2,28.31c5.23,4.33,15.25,7.37,24.78,5.82,6.6-1.07,9-2.38,9-2.38s4.88-21,15.46-28.69c-14.72,4.72-23.1,18.25-31.14,6.5C1172.94,409.78,1162.86,414.92,1162.86,414.92Z"/><path class="cls-18" d="M1212.1,387.83s-10.16-6.63-12-23.71a210.09,210.09,0,0,1-1.34-21.85s-11.46,35.41,9.41,42.16"/><path class="cls-18" d="M1212.88,388.48a49.64,49.64,0,0,0-5.13-24.63c-4.78-9.83-9-21.58-9-21.58"/></g><path class="cls-19" d="M1159.91,453.36s-8.57,4.2-6.91,10.84,13.61,13.45,19.35,13.7,1.35-5.45,1.35-5.45S1151.78,464.65,1159.91,453.36Z"/><path class="cls-4" d="M1203.83,467.82S1234.59,564.7,1096.19,653C1071.22,669,1023.65,670,1003,647c-7.2-8-21.47-26.82-21.47-26.82s104.63-55.54,133.59-81.29,48.24-67.55,65.13-70S1203.83,467.82,1203.83,467.82Z"/><g id="Layer_16" data-name="Layer 16"><path class="cls-11" d="M1051.08,565.88a23.25,23.25,0,0,1,8.89,5.78c5.12,5.35,11.76,15,4.93,24.21-9,12.22-38.09,2.82-44.53.54a19.82,19.82,0,0,1-2.46-1.06c-2.6-1.32-5.83-2.84-6.59-4.91-1.08-2.94,19.11,4.21,20.49,3.15,1-.81-27.52-6.75-26.17-13.08.52-2.38,14.88,4.69,24.53,4.83-1.05-1.1-25.47-8-27.06-13.68s17,5.17,27.76,4.78c-10.38-4.21-23.44-7.78-23.54-11.85s28.24,7,31.74,6-14.6-9.69-10.71-14C1029.65,555.12,1042.39,562.76,1051.08,565.88Z"/></g><path class="cls-4" d="M1149.68,525.59s21.32-55.32,45.69-50.52c21.65,4.26,5.77,64.16-5.71,88.76s-24.36,35.95-24.36,35.95c-4.67,4.07-8.51,6.64-13.7,6.93l-90.12,2c-3.65.14-5.94-.5-5.75-4.15.41-8.34,2.37-23.46,9.88-33.36,32.21-2.42,73.14-7.33,73.14-7.33Z"/><path class="cls-11" d="M1169.94,416.45c-2.28-.37-4.38.22-5.58,3.73s-.68,5.69,4.82,8.34c2.49,1.21,7,3.29,9,.11C1179.65,426.34,1176.87,417.71,1169.94,416.45Z"/><path class="cls-12" d="M1183,482.24c-8.55-.4-16.73,9.3-20.58,14.9s-11.3,22.64-15,38.49a204.48,204.48,0,0,1-8.71,28.2s-59.72,7.86-69.49,7-13.52,32.05-13.52,32.05-1.16,5.13,5.75,5.81c10.75,1.07,18.41,3.45,43.71,3.45s44.82-3.43,49.32-5.84"/><path class="cls-12" d="M1138.75,563.41s15.49-7.89,21.88,5.64"/><path class="cls-12" d="M1138.75,563.83s12.71,8,14.8,15.36"/><path class="cls-11" d="M1169.73,417.76c-2.17.45-2.71,3.66-2.18,5.13s2,5.2,4.83,5.17c1.79,0,4.46-3.31,3.11-6.25S1171.89,417.31,1169.73,417.76Z"/><path class="cls-20" d="M1168.22,424.48s3.7,5.77,6.75,1.76c2.21-2.91-.46-5.62-.46-5.62"/><path class="cls-12" d="M1036.44,513.78c8.08-3.91,42.1-28.91,98.87-62.46"/><path class="cls-12" d="M1191.79,467.45s6.85-.8,12,.37"/><line class="cls-10" x1="741.15" y1="604.66" x2="830.81" y2="596.9"/></g></g></g></g></g><g id="Layer_8" data-name="Layer 8"><path class="cls-21" d="M220.91,450.37c-2.81,20.28,0,185.83,0,185.83s25.91,5.63,32.67-17.46-1.91-147-9-166.12S223.73,430.1,220.91,450.37Z"/><path class="cls-22" d="M427,666H241.75a20.9,20.9,0,0,1-20.84-20.84v-5.63a20.9,20.9,0,0,1,20.84-20.84H427a20.9,20.9,0,0,1,20.84,20.84v5.63A20.9,20.9,0,0,1,427,666Z"/><path class="cls-23" d="M412.23,676.86H252a5.43,5.43,0,0,1-5.41-5.41h0a5.42,5.42,0,0,1,5.41-5.4H412.23a5.42,5.42,0,0,1,5.41,5.4h0A5.43,5.43,0,0,1,412.23,676.86Z"/><path class="cls-4" d="M407.45,686.84h-149a5,5,0,0,1-5-5h0a5,5,0,0,1,5-5h149a5,5,0,0,1,5,5h0A5,5,0,0,1,407.45,686.84Z"/><path class="cls-22" d="M220.91,450.37c0-8.49,2.06-15.95,10.66-13.73s21.52,179.8,13.21,195.2-23.87,4.36-23.87,4.36S216.93,468.06,220.91,450.37Z"/><polygon class="cls-4" points="271.01 686.84 246.63 825.15 236.27 825.15 260.59 686.84 271.01 686.84"/><polygon class="cls-4" points="438.95 825.73 406.68 689.05 396.34 689.65 428.54 826.33 438.95 825.73"/></g><g id="Layer_12" data-name="Layer 12"><path class="cls-23" d="M366.12,715.48s-14.72,3.27-16,16.22S413,802.91,413,802.91s9.55-.71-6-34.82c-12.39-27.16-15-36.6-15-36.6s-3.7-2.11-5.68,1.11-14.4-.54-14.42-7.09S369.36,714.42,366.12,715.48Z"/><path class="cls-24" d="M389.1,719.72l-4.24,14.79s-10.43,1.88-13.5-3.87,1.8-17.43,1.8-17.43Z"/><line class="cls-19" x1="388.97" y1="747.81" x2="398.3" y2="748.27"/><line class="cls-19" x1="392.32" y1="754.09" x2="400.74" y2="754.83"/><line class="cls-19" x1="394.96" y1="759.93" x2="403.49" y2="760.96"/><polygon class="cls-25" points="347.93 729.18 342.22 735.57 407.74 807.94 412.98 802.91 347.93 729.18"/><line class="cls-19" x1="397.69" y1="765.79" x2="406.23" y2="766.82"/><g id="Layer_13" data-name="Layer 13"><path class="cls-23" d="M426.88,760.34s-13.95,7.58-11.45,21,84.21,53.78,84.21,53.78,9.45-3.49-16.17-33.47C463.06,777.8,457.7,769,457.7,769s-4.35-1.06-5.42,2.78-14.72,3.62-16.64-3S429.84,758.33,426.88,760.34Z"/><path class="cls-24" d="M451.35,758v16.19s-10,4.93-14.78,0S433.33,756,433.33,756Z"/><line class="cls-19" x1="459.37" y1="786.4" x2="468.95" y2="784.16"/><line class="cls-19" x1="464.58" y1="791.79" x2="473.31" y2="790.1"/><line class="cls-19" x1="468.95" y1="796.92" x2="477.87" y2="795.49"/><polygon class="cls-25" points="412.45 779.48 408.53 787.59 495.8 841.78 499.64 835.17 412.45 779.48"/><line class="cls-19" x1="473.41" y1="802.07" x2="482.34" y2="800.63"/><g id="Layer_10" data-name="Layer 10"><path class="cls-26" d="M317.87,558.08s109.47,1.5,136.12,12.84-11.8,82-29.74,103.53-33.91,54.36-33.91,54.36l-21-13.68L422,599Z"/><path class="cls-26" d="M429.06,760.34h35.79S449.12,601,447,595.18c-2.76-7.46-95.69-40.33-160-36.9C256.68,559.9,254,597.78,271,610.65c12,9.1,16.71,6.13,39.71,8.09,60.64,5.17,95.63,3.94,95.63,3.94S412.67,701.7,429.06,760.34Z"/><path class="cls-26" d="M274.17,539.46s-12.63,21.69-13.27,39.61c-.46,12.88,61.73,8.34,87.79-12.27,10.76-8.52,14-6.65,14-6.65V539.46s-70-25.09-88.54,0"/><polyline class="cls-27" points="405.21 613.26 406.35 622.68 410.7 610.41"/><path class="cls-27" d="M320.88,569.08s12.75-9.16,31.71-5.15"/><path class="cls-27" d="M371.64,569.08c53,7.25,72.82,23.75,75.31,26.1,3.17,3,4.1,33.33,4.1,33.33"/><path class="cls-27" d="M406.34,622.68s4,34.56,8,66.37"/><g id="Layer_14" data-name="Layer 14"><path class="cls-21" d="M345.12,284.12s15.82,6.51,15.61,35.07c0,2-2.83,48.52-4.15,49.53-10.26,7.86-24.42.82-24.42.82s-6.94-84.25.1-87.66S345.12,284.12,345.12,284.12Z"/><path class="cls-11" d="M306.18,378.46s23.44,13.47,32.15,4c-6.83-24.24,1.85-40.51,1.85-40.51s-33.08-12-33.75-2.85c0,0,1.69,22.63-.25,39.39"/><path class="cls-11" d="M305.93,335.94s9.45,40,30.3,36.22a58.79,58.79,0,0,1-.39-9.31L308.22,336.2Z"/><path class="cls-11" d="M318.44,283.35c19.65-7.29,39.07,8.69,39.43,29.65.35,19.74-2.1,49.52-17.63,51.57-6.78.89-26-1.85-31.56-25.57-7.44.11-12.6-9.64-15.13-17.8C292.79,318.79,303.44,288.92,318.44,283.35Z"/><ellipse class="cls-14" cx="335.54" cy="322.31" rx="3.17" ry="4.36" transform="translate(-8.08 8.63) rotate(-1.46)"/><ellipse class="cls-14" cx="352.47" cy="322" rx="2.85" ry="3.92" transform="translate(-8.06 9.06) rotate(-1.46)"/><path class="cls-15" d="M345.44,320.8s9.16,13.86-1.77,12.13"/><path class="cls-21" d="M341.14,310.2c-.49-.95-3.6-1.86-7.9.2s-4.62,4.39-3.13,4.15,4.77-2.27,7.15-1.79C340.24,313.35,341.64,311.16,341.14,310.2Z"/><path class="cls-21" d="M348.05,310.33c.73-1,4-1.83,6.23-.27,3.07,2.12,2.94,4.48,1.49,4.24s-2.36-2.3-4.81-1.75C347.89,313.23,347.5,311.11,348.05,310.33Z"/><path class="cls-28" d="M334.29,344.14s3.38,4.46,7.92,4.08c2.69-.22,7.91-2.66,9.35-6.81a21.45,21.45,0,0,1-8.64,2.44C341.17,344.08,334.29,344.14,334.29,344.14Z"/><path class="cls-29" d="M302.14,327.57s-.17-4.29,4.22-.62c0,0-4.84-8.93-7.16-4"/><path class="cls-21" d="M343.75,291s-3.39,13.53-18.73,22-1.84,57.16-1.84,57.16l-37.3-10.11-.75-37.21s-3.25-39.16,27.16-44.94S349,290.37,349,290.37Z"/><path class="cls-30" d="M307,365.8s-8.9-35.09-1.09-48.87c7-12.41,23.38-12.55,25-24a9.35,9.35,0,0,1,10.3-8c4.68.57,5.45,3.77,5.45,3.77s-7.44-3.94-10.46,5.92c-5,16.22-17.85,12.28-24.38,23.72-9.07,15.89,2.92,49.6,2.92,49.6"/><path class="cls-30" d="M299.2,363.68s-9.31-30.58-.95-45.7,20.46-12.79,25.81-21.24c4.51-7.13,1.34-14,10.23-15.61,7-1.28,12.42,5.89,12.42,5.89"/><g id="Layer_11" data-name="Layer 11"><path class="cls-9" d="M322.25,382.62c-23.62-5-20-9.87-41.84-8.42-16.76,1.11-27.1,14.72-42.56,22.54-21.19,10.71-57.54,13-56.7,32.61,1.62,37.07,46.2,24.66,65.11,28.39,19.64,3.87,1.91,48.79,1.2,58.93-.83,11.64,4.53,20.4,22.09,25.86s33.22-13.18,59.78-4.3S376,541.55,382,527.84c3.2-7.34-4.15-25.27-6.05-42.61-1.65-15,2.31-30.23,2.31-30.23s26.77,51.47,52.36,56.62,40.88-20.6,50.3-33.45,39.82-53.1,14.56-67.66-64.1,47.43-64.1,47.43-28.57-35.15-50.69-67.27C366.06,369.39,334.13,385.15,322.25,382.62Z"/><path class="cls-10" d="M417.91,468.76s8.27-12.79,13.48-10.82c-7.09,8.86-6.6,21.64-6.6,21.64"/><path class="cls-10" d="M371.64,438s4.85,6.33,6.75,17.31"/><path class="cls-10" d="M379.57,433.58s.29,17.2-.59,23"/><path class="cls-10" d="M225.27,415.91s32.78,2.44,51.17,7.18c21.05,5.43,30.31,22.4,23.58,35.71-7.87,15.58-22.83,22.87-33.27,14-5.62-4.79-17.57-14-17.57-14"/><path class="cls-10" d="M325.27,384.08A188,188,0,0,0,332.54,432c6.64,22.12,22.45,40.11,8.7,46.08-20,8.66-5.46,16.54-1.06,38.18S318,535.9,318,535.9"/><path class="cls-10" d="M301.47,376.34c.56,2.7-4.92,16.35,8.37,18.08s15.52-10.63,15.52-10.63S315.84,384.08,301.47,376.34Z"/><path class="cls-10" d="M325.27,384.08s6.15,10,13.91,9.41c11.17-.9,8.33-11.3,7.51-13.48C339.6,383.24,325.27,384.08,325.27,384.08Z"/><ellipse class="cls-4" cx="491.63" cy="427.38" rx="11.63" ry="14.49"/><polygon class="cls-4" points="479.92 479.97 436.52 490.25 467.63 369.24 509.83 363.67 479.92 479.97"/><polygon class="cls-8" points="501.84 368.19 478.86 371.21 479.94 363.77 502.82 361.44 501.84 368.19"/><circle class="cls-8" cx="320.62" cy="407.93" r="3.87"/><circle class="cls-8" cx="325.27" cy="434.13" r="3.87"/><circle class="cls-8" cx="334.95" cy="457.74" r="3.87"/><circle class="cls-8" cx="328.37" cy="479.59" r="3.87"/><circle class="cls-8" cx="329.57" cy="504.4" r="3.87"/><circle class="cls-8" cx="324.5" cy="528.31" r="3.87"/><path class="cls-11" d="M498.33,404.67s-23.89-8.35-21.44-1.51c1.55,4.31,19.28,8.87,19.28,8.87s-19-3.55-20.11.65c-1.22,4.68,17.72,6.9,17.72,6.9s-15.5-2.24-16.58,1.26c-1.83,5.93,13.11,5.21,13.11,5.21s-12.58.27-12.71,2.13c-.31,4.29,11,4,12.51,4.13,0,0,8.29-.59,7.95-4.83-.39-4.71,2.42-4.69.71-8.24-.9-1.87,2.68-3.23,2.08-4.95C499.78,411.16,508.37,410.72,498.33,404.67Z"/><ellipse class="cls-4" cx="285.71" cy="463.59" rx="15.49" ry="4.68" transform="translate(-225.12 274.92) rotate(-38.08)"/><g id="Layer_17" data-name="Layer 17"><line class="cls-31" x1="315.15" y1="449.22" x2="310.76" y2="515.99"/></g><path class="cls-11" d="M288.42,455.31s17.22,8.06,25,15.05c5.93,5.33,7.18,19.55,7.44,26a6.18,6.18,0,0,1-2.93,5.54,11.39,11.39,0,0,1-7.34,1.91c-5.43-.76-25.89-14.08-27.19-19.47-.75-3.13-9-16.65-4.55-22.5A33.81,33.81,0,0,1,288.42,455.31Z"/><g id="Layer_15" data-name="Layer 15"><path class="cls-15" d="M308.92,476.62s10.35,14.23,11.7,21.63"/><path class="cls-15" d="M303.68,482.6s10.24,15.94,14.29,18.8"/><path class="cls-15" d="M294.51,488s12.58,11.37,18.45,15.28"/></g></g></g></g></g></g><g id="Layer_24" data-name="Layer 24"><polyline class="cls-6" points="1198.24 654.27 1157.82 630.73 1157.82 606.34"/><line class="cls-6" x1="1127.5" y1="630.73" x2="1157.82" y2="630.73"/></g></svg>