<svg id="Layer_1" data-name="Layer 1" xmlns="http://www.w3.org/2000/svg" xmlns:xlink="http://www.w3.org/1999/xlink" viewBox="0 0 1459.13 1060.09"><defs><style>.cls-1,.cls-12,.cls-14,.cls-15,.cls-17,.cls-19,.cls-21,.cls-23,.cls-27,.cls-28,.cls-29,.cls-30,.cls-9{fill:none;}.cls-2{fill:#ede4dd;}.cls-3{fill:#565697;}.cls-31,.cls-4{fill:#1d1e40;}.cls-11,.cls-32,.cls-33,.cls-5,.cls-6{fill:#efb6ab;}.cls-6{opacity:0.64;}.cls-13,.cls-31,.cls-6{isolation:isolate;}.cls-13,.cls-7{fill:#a16d4b;}.cls-8{fill:#989cb7;}.cls-23,.cls-9{stroke:#4c1c17;}.cls-11,.cls-12,.cls-14,.cls-17,.cls-19,.cls-21,.cls-23,.cls-27,.cls-28,.cls-29,.cls-30,.cls-32,.cls-33,.cls-9{stroke-linecap:round;stroke-linejoin:round;}.cls-9{stroke-width:3.7px;}.cls-10{fill:#e69766;}.cls-11,.cls-32,.cls-33{stroke:#3a130d;}.cls-11{stroke-width:9.25px;}.cls-12,.cls-14,.cls-15{stroke:#000;}.cls-12{stroke-width:7.4px;}.cls-13{opacity:0.62;}.cls-14,.cls-15{stroke-width:5.55px;}.cls-15{stroke-miterlimit:10;}.cls-16{fill:#fff;}.cls-17{stroke:#5b5b5b;}.cls-17,.cls-21,.cls-23,.cls-28,.cls-32{stroke-width:1.85px;}.cls-18{fill:#e55558;}.cls-19{stroke:#93242a;}.cls-19,.cls-27,.cls-29,.cls-30,.cls-33{stroke-width:1.39px;}.cls-20{fill:#fcca5f;}.cls-21,.cls-30{stroke:#1d1e40;}.cls-22{fill:#9d4e49;}.cls-24{fill:#55957c;}.cls-25{fill:#e59666;}.cls-26{fill:#fcc95f;}.cls-27{stroke:#fff;}.cls-28{stroke:#91461c;}.cls-29{stroke:#772220;}.cls-31{opacity:0.76;}.cls-34{fill:#75778c;}.cls-35{fill:#75778e;}.cls-36{clip-path:url(#clip-path);}.cls-37{fill:#a3a3a3;}</style><clipPath id="clip-path"><path class="cls-1" d="M583.85,346.82s109.67-66.16,206.75-77.35c59.58-6.86,128.2,73,99.31,114.91-16.78,24.36-97.44,22.94-160.36,25.36-55.47,2.13-155.74-7.88-151.91-8.51Z"/></clipPath></defs><g id="Layer_33" data-name="Layer 33"><path class="cls-2" d="M545.64,213.39C373.4,663.93,161.72,628.18,187.78,863.45,207,1036.78,346.46,987,508.57,993.5s647.48.55,647.48.55-62.18-247.4,63-495.73C1454,32.05,662.94-93.44,545.64,213.39Z"/></g><g id="Layer_5" data-name="Layer 5"><path class="cls-3" d="M484.45,968.7S676.2,856.61,716.08,826.46c41.21-31.15,146.82-45,236-19.11s240,83.07,281.64,124c23.43,23,20.62,37.39,20.62,37.39Z"/><path class="cls-4" d="M892.57,798.12,939,812.33S844.33,891.46,811.65,908c-34.59,17.52-73.24,31.55-104.71,14.46C668.75,901.72,723.59,844,723.59,844Z"/><g id="Layer_3" data-name="Layer 3"><path class="cls-5" d="M691.41,759.12S720.56,778,716.8,866.36s194-53.62,194-53.62-43.47-12.66-53.51-130.48-17.44-75-17.44-75S676.8,737.44,691.41,759.12"/><path class="cls-6" d="M827.67,612.46s16.74,176.66-111.59,214c-4.7-25.29-3.81-39.56-14.85-51.81C714.73,696.69,827.67,612.46,827.67,612.46Z"/><g id="Layer_2" data-name="Layer 2"><path class="cls-7" d="M844.09,594.59s-13.89,104.49,23.38,100.1S938.68,511.1,940.53,496s14.5-114.41,10.84-123.9S816,318.09,599.3,343.66c-109.31,9.5-103.73,37-103.73,37s36.53,136.06,52.6,156.72S844.09,594.59,844.09,594.59Z"/><g id="Layer_41" data-name="Layer 41"><rect class="cls-8" x="179.05" y="931.7" width="1101.04" height="82.66"/></g><g id="Layer_4" data-name="Layer 4"><path class="cls-5" d="M532.36,383.59s-3,174,36.22,276.5S647,774.65,647,774.65s16.37,7.23,54.27,0c45.13-8.6,110.48-61,138.61-166.56,0,0,63.35,9.57,70.6-68.73,4.83-52.1-41.41-55.36-62.87-46.77-14.76,5.9-28.63,23-36.64,32.7-16.52,20-18.83-15.59-13.1-60.8,5.15-40.45-44.66-63.94-44.66-63.94"/><path class="cls-9" d="M879.79,527c-37-13.15-52.12,32.63-52.12,32.63s20.46-21.43,36.53-5.36"/><path class="cls-10" d="M635.73,479.53c.34-8.77,21-17.33,39-16.35s26.21,7.27,31.48,12.24c4.33,4.11,1,12.28-9.3,7.27-11.36-5.55-20.92-9-37-5.34C643.19,481.16,635.42,487.39,635.73,479.53Z"/><path class="cls-9" d="M580.56,511.29S558.94,628.14,562.18,641.5c2.55,10.58,11,24.27,33.21,22.25S623.73,653,623.73,653"/><path class="cls-11" d="M633.42,683.23s29.52,11.76,43-19.3"/><path class="cls-12" d="M654.93,540.07s15.49,13.44,31.63,10.76,21.51-17.48,21.51-17.48"/><path class="cls-12" d="M543.53,537.4s4.24,11.29,12.15,11.29c9,0,14.93-8.79,14.93-8.79"/><path class="cls-10" d="M538.37,474.48c5.57.33,7.44-5.85,20.94-2.26s14.91,7.7,18,6.73c6.6-2.09,2.31-12-12.08-16.25-8.86-2.63-17.89-2.37-23.05,1.61C539.46,466.4,532.8,474.15,538.37,474.48Z"/><path class="cls-7" d="M635.73,479.53c.34-8.77,21-17.33,39-16.35s26.21,7.27,31.48,12.24c4.33,4.11,1,12.28-9.3,7.27-11.36-5.55-20.92-9-37-5.34C643.19,481.16,635.42,487.39,635.73,479.53Z"/><path class="cls-7" d="M538.37,474.48c5.57.33,7.44-5.85,20.94-2.26s14.91,7.7,18,6.73c6.6-2.09,2.31-12-12.08-16.25-8.86-2.63-17.89-2.37-23.05,1.61C539.46,466.4,532.8,474.15,538.37,474.48Z"/><ellipse class="cls-7" cx="723.89" cy="370.84" rx="227.5" ry="38.86"/><path class="cls-13" d="M953.59,371.73c0,21.48-101.64,38-227.28,38s-227.5-17.4-227.5-38.86S600.67,332,726.31,332,953.59,350.26,953.59,371.73Z"/><path class="cls-9" d="M826.19,648.86s-29.13,105.93-134.8,127.38"/></g></g></g></g><g id="Layer_17" data-name="Layer 17"><line class="cls-14" x1="1001.79" y1="501.69" x2="1167.24" y2="989.73"/><line class="cls-15" x1="959.88" y1="567.11" x2="1024.84" y2="567.11"/><line class="cls-15" x1="977.52" y1="620.21" x2="1040.1" y2="620.21"/><line class="cls-15" x1="997.43" y1="680.41" x2="1064.05" y2="680.41"/><line class="cls-15" x1="1016.81" y1="740.16" x2="1083.43" y2="740.16"/><line class="cls-15" x1="1037.8" y1="798.01" x2="1104.43" y2="798.01"/><line class="cls-15" x1="1057.22" y1="857.5" x2="1123.85" y2="857.5"/><line class="cls-14" x1="977.52" y1="620.21" x2="959.88" y2="949"/></g><g id="Layer_40" data-name="Layer 40"><path class="cls-10" d="M605.6,991.91v.53a3.34,3.34,0,0,1-3.4,3.28l-221.93,10.12-142.83-69V907.58l270.38,26.81,93.6,23.08a4.09,4.09,0,0,1,4.18,4h0a3.24,3.24,0,0,1-3.31,3.18h-6.84v24.2l6.94,0A3.13,3.13,0,0,1,605.6,991.91Z"/><polygon class="cls-16" points="595.45 988.84 382.06 999.57 382.06 972.1 595.45 964.4 595.45 988.84"/><line class="cls-17" x1="427.19" y1="980.57" x2="594.53" y2="974"/><line class="cls-17" x1="423.1" y1="990.71" x2="594.38" y2="983.66"/><polygon class="cls-16" points="240.68 934.4 382.06 999.57 382.06 972.1 240.68 913.41 240.68 934.4"/><line class="cls-17" x1="248.26" y1="920.72" x2="382.06" y2="978.05"/><line class="cls-17" x1="289.52" y1="944.06" x2="382.06" y2="986.06"/><line class="cls-17" x1="303.91" y1="956.01" x2="382.06" y2="993.5"/></g><g id="Layer_39" data-name="Layer 39"><path class="cls-18" d="M590.53,947.72v.8c0,2.72-1.87,4.93-4.2,4.93l-251.14,13.8-89.78-56.87v-52l224.91,2.5,115.05,34.85c2.85,0,5.14,2.72,5.14,6h0c0,2.64-1.83,4.79-4.07,4.79H578v36.51l8.52,0C588.74,943,590.53,945.13,590.53,947.72Z"/><polygon class="cls-16" points="578.03 943.1 338.39 955.01 338.39 912.23 578.03 906.23 578.03 943.1"/><line class="cls-17" x1="371.26" y1="930.61" x2="576.9" y2="920.72"/><line class="cls-17" x1="366.25" y1="945.89" x2="576.71" y2="935.27"/><line class="cls-19" x1="248.93" y1="860.9" x2="332.53" y2="907.57"/><line class="cls-19" x1="248.26" y1="908.64" x2="330.79" y2="960.17"/></g><g id="Layer_38" data-name="Layer 38"><path class="cls-4" d="M611.58,891.62v.59a4,4,0,0,1-4.2,3.67l-251.9,5.73-89-37.62.67-31.91,187.45,10.34,151.84,10.71c2.85,0,5.14,2,5.14,4.5h0a3.84,3.84,0,0,1-4.07,3.55h-8.41v27l8.52,0A3.71,3.71,0,0,1,611.58,891.62Z"/><polygon class="cls-16" points="599.08 888.2 355.48 892.49 355.48 866.84 599.08 860.9 599.08 888.2"/><line class="cls-17" x1="393.99" y1="874.18" x2="599.08" y2="868.96"/><line class="cls-17" x1="387.61" y1="883.19" x2="598.08" y2="877.84"/><polygon class="cls-16" points="270.01 837.34 270.01 859.92 355.48 892.49 355.48 866.84 270.01 837.34"/><line class="cls-17" x1="282.24" y1="858.4" x2="355.48" y2="887.46"/><line class="cls-17" x1="298.11" y1="858.4" x2="355.48" y2="880.51"/><line class="cls-17" x1="289.45" y1="846.25" x2="355.48" y2="871.57"/></g><g id="Layer_36" data-name="Layer 36"><path class="cls-20" d="M584.67,852.84l-253.62,2.07L242,823.09V771.84H430.35l151.84,16.63c2.85,0,5.14,3.13,5.14,7h0c0,3-1.83,5.51-4.07,5.51h-8.41v42l8.52,0C590.7,844.2,590.35,852,584.67,852.84Z"/><rect class="cls-16" x="334.12" y="800.55" width="240.73" height="42.43"/><line class="cls-17" x1="456.62" y1="811.4" x2="573.83" y2="813.09"/><line class="cls-17" x1="363.36" y1="826.87" x2="573.83" y2="826.87"/><line class="cls-19" x1="245.76" y1="774.62" x2="328.83" y2="798.99"/><line class="cls-19" x1="245.76" y1="820.21" x2="325.17" y2="848.29"/><line class="cls-17" x1="445" y1="835.65" x2="574.83" y2="835.65"/></g><g id="Layer_37" data-name="Layer 37"><path class="cls-3" d="M559.25,783.53v.69a4.32,4.32,0,0,1-4.34,4.27H293.59l-92.33-23.9V726.1H396.51l157.38,12.49a5.29,5.29,0,0,1,5.34,5.23h0A4.17,4.17,0,0,1,555,748h-8.73v31.56l8.82,0A4.1,4.1,0,0,1,559.25,783.53Z"/><rect class="cls-16" x="296.77" y="747.67" width="249.53" height="31.87"/><line class="cls-17" x1="407.2" y1="757.08" x2="546.88" y2="757.08"/><line class="cls-17" x1="327.11" y1="767.44" x2="545.27" y2="767.44"/><line class="cls-21" x1="205.2" y1="728.17" x2="291.32" y2="746.5"/><line class="cls-21" x1="205.2" y1="762.43" x2="287.51" y2="783.51"/></g><g id="Layer_16" data-name="Layer 16"><polygon class="cls-22" points="360.72 714.02 360.72 738.59 384.52 738.59 384.52 726.3 404.01 738.59 456.62 738.59 408.75 713.76 360.72 714.02"/><polygon class="cls-22" points="360.72 713.95 360.72 738.51 384.52 738.51 384.52 726.23 404.01 738.51 456.62 738.51 408.75 713.69 360.72 713.95"/><polygon class="cls-22" points="438.9 717.78 438.9 738.59 459.62 738.59 459.62 725.9 484.01 738.59 535.67 738.59 491.87 717.78 438.9 717.78"/><line class="cls-23" x1="360.72" y1="733.85" x2="383.84" y2="733.85"/><line class="cls-23" x1="397.04" y1="733.85" x2="438.9" y2="733.85"/><line class="cls-23" x1="459.61" y1="733.85" x2="438.9" y2="733.85"/><line class="cls-23" x1="524.65" y1="733.85" x2="475.91" y2="733.85"/><g id="Layer_15" data-name="Layer 15"><path class="cls-24" d="M343.51,450.3s7.16,207.48,3,230.06-9.62,36.38-9.62,36.38L424.79,718,397.1,584.16l-20.7-94.81a84,84,0,0,1-18-15,72.44,72.44,0,0,1-14.93-24.1"/><path class="cls-25" d="M343.51,450.08s7.16,207.47,3,230.06-9.62,36.38-9.62,36.38l87.92,1.26L397.1,583.94l-20.7-94.81a84,84,0,0,1-18-14.95,72.44,72.44,0,0,1-14.93-24.1"/><path class="cls-26" d="M353.61,479.1s50,229.71,71.19,238.9h80.61s-42.82-58.93-61.11-138.54c-5.4-23.52-19.5-88-19.5-88l-77-49.13Z"/><path class="cls-27" d="M400.57,498.32s14.06,62.79,20.15,85.84C432.81,630,458.41,704.18,482,718"/><g id="Layer_13" data-name="Layer 13"><path class="cls-5" d="M452.64,313s-7.08,9.27-4.57,16.19c3,8.16-30.16-7.42-21.51-11.64a77.88,77.88,0,0,0,15.56-10.32L452.64,313"/><polyline class="cls-6" points="442.82 298.32 448.61 320.15 458.54 301.02 442.82 298.32"/><path class="cls-5" d="M495.16,366.63c1.21-3.57,9.53-7.53,15.73,3.94s3.08,15.55-.36,14.68-5.88-2.59-7.45-6.82a15.79,15.79,0,0,0-5.1-7.12S494,370.18,495.16,366.63Z"/><g id="Layer_14" data-name="Layer 14"><path class="cls-18" d="M447.61,331s34.33-9.67,44.65-17.83,33-48.86,41.56-53.45,15.19-4.29,25.8,2,14.91,24.36,1.72,39.54S519.78,338,519.78,338l-61.24,40.41S462.68,354.62,447.61,331Z"/><g id="Layer_12" data-name="Layer 12"><path class="cls-18" d="M405.44,327.92S391.77,339.57,388,372c-3.69,32.2-42.11,58.41-46,57.52s-.67,72.54,72.21,64.09c42.74-5,30.09-43.32,30.09-43.32s23.51,2.74,41.52-28.57c15.52-27,17.89-31.13,19.54-38.14,1.83-7.83-5.92-20.7-23.7-16.08-6.31,1.65-20.08,16.91-20.08,16.91.86-2.09.79-41.41-14-53.4-7.58,0-8.73-1.79-17.48-6.23C420.07,319.68,405.44,327.92,405.44,327.92Z"/><path class="cls-5" d="M440,304.37s7.08,13.24,22.56,7.27c12.54-7.21,11.64-16.17,13.62-21.25a41.63,41.63,0,0,0,5.84-3.33,2.22,2.22,0,0,0,.85-2.52c-.52-1.63-2.48-4.29-5.05-7-.55-11.75-4.88-16.7-4.88-16.7s-12.76-12.34-24,2.85S440,304.37,440,304.37Z"/><ellipse cx="471.77" cy="281.46" rx="2.85" ry="1.54" transform="matrix(0.34, -0.94, 0.94, 0.34, 47, 629.83)"/><path class="cls-28" d="M467.66,277.86s1.79-4.93,5.79-5"/><path class="cls-23" d="M469.42,292.46s1.14,3.48,3.53,2.77"/><path class="cls-22" d="M458.1,267.49S467,300,437.66,320.3s-44.85.59-46.26-5.76-2.59-14.91,5.36-20.66,16.48-19.84,16.48-29.37,29.64-16.15,35.57-19.73,32.41-20.94,39.66-3.5c8.58,20.64-10.45,25.28-18.48,25.28S460.52,264.27,458.1,267.49Z"/><path class="cls-29" d="M462.94,238s9.62-3.59,13.1,4c3.81,8.26-1.3,18.7-18.33,23.15,0,0,15.06-8.58,8.71-18-5-7.38-20.12-.31-20.12-.31"/><path class="cls-29" d="M396.3,321.09s41.75,11.78,60.65-54.53c0,0-18.31,51-64.42,48.52"/><path class="cls-19" d="M414.74,366.63s5.27,14.15,0,38.53,12.93,45.24,29.56,45.16"/><path class="cls-19" d="M437.6,329.77A64.76,64.76,0,0,1,450.31,372c-1,18.29-1,25.91-1,25.91l11.43-12.61"/><path class="cls-19" d="M440.05,421a37.8,37.8,0,0,1,9.28-23"/><path class="cls-19" d="M473.45,339.07s8.17-1.94,30.87-39.29"/><path class="cls-19" d="M454.94,339.07A88.17,88.17,0,0,1,461.78,375"/></g></g></g></g></g><g id="Layer_22" data-name="Layer 22"><path class="cls-16" d="M904.74,361.47s47-73,56.79-104.27,20.71-51.77,20.71-51.77,13.39,5,19.13,40.81-13.6,86.65-13.6,86.65L969.16,380.7S911.18,371.73,904.74,361.47Z"/><path class="cls-5" d="M933.58,386.62s-.93-13.24,3.81-12.15,13.67.87,9.6,4.7C942,383.83,933.58,386.62,933.58,386.62Z"/><g id="Layer_21" data-name="Layer 21"><path class="cls-16" d="M995.78,187.6l-13.52,17.83s8.93,114.35,10.64,147-.36,108.84-.36,108.84,49.09-22.33,60.08-20.26-37-250.29-37-250.29Z"/><path class="cls-30" d="M982.26,222.58s11.39,52.44,8.73,100"/><g id="Layer_27" data-name="Layer 27"><polygon class="cls-4" points="1003.01 651.43 962.56 678.18 979 679.29 1024.49 665.36 1020.38 648.86 1003.01 651.43"/><polygon class="cls-31" points="1003.42 651.43 962.97 678.18 979.41 679.29 1024.89 665.36 1020.79 648.86 1003.42 651.43"/><g id="Layer_26" data-name="Layer 26"><path class="cls-4" d="M970,679.29l40-25s33.55,2.07,37,0-5.22,23.34-5.22,23.34l-8.87-.06-2.09-9.24-9.33,11H970Z"/></g><g id="Layer_24" data-name="Layer 24"><path class="cls-3" d="M995.78,649.29S1036.64,470,1021,353.83c-8.16-60.69,33.24,15.24,33.24,15.24l8.71,140.4L1037.17,649.3S1007.56,655.17,995.78,649.29Z"/><path class="cls-4" d="M1004.23,197.07l47.43,51.16s-8.73,107.32-17,108.21-26,7.51-24.19-12.53-14.37-103.19-18.27-123.22-1.74-18.36,0-23.6C992.14,197.07,992.82,205,1004.23,197.07Z"/><g id="Layer_19" data-name="Layer 19"><path class="cls-5" d="M976.3,172.31s15.84,26.08,18.8,28.41,14.13-7.14,16.61-10.71,3.88-10.88,3.88-10.88S997.28,168,996,155.85,973.16,167.2,976.3,172.31Z"/><g id="Layer_18" data-name="Layer 18"><path class="cls-5" d="M951.3,127.16S949.36,161,964.24,171.4s26.12-5.83,26.12-5.83,6.73-8.78,9-14.79c3.13-8.34-9.19-35.68-13.08-38.92S952.15,117.65,951.3,127.16Z"/><path class="cls-5" d="M952.56,143s-8.07,11.27-3.19,14.61c3.59,2.46,6.74-1,6.74-1"/><path class="cls-32" d="M958.62,161.27s5.2,2.36,5.64-3.93"/><path class="cls-21" d="M954.68,137.28s2.85-3,5.7.7"/><ellipse cx="957.53" cy="142.81" rx="1.63" ry="2.61" transform="matrix(0.96, -0.28, 0.28, 0.96, -1.82, 272.82)"/><path class="cls-4" d="M984.94,139.09s.89-6.92,6.46-5.48,6.06,10.82,0,13.6c-4.09,9,7.47,13.24,10.91,11.84,3.25-1.34,4.44-4,3.13-8.29s-4.89-16.33.48-26.27-2.06-20-2.06-20-16.27,2.18-31.85-4.27-31.35,7.34-31.68,16c-.32,8.52,3.38,13.37,13.41,13.83,8.21.39,13.32-4.49,15.44-6.16,1.45-1.13,8.49-3,9.9,4.55S980.34,141.88,984.94,139.09Z"/><path class="cls-33" d="M992,141.46a3.2,3.2,0,0,0-4.85,1.07s.41-5.37,3.18-5.48"/><path class="cls-6" d="M991.38,152.76s.63,18.81-5.64,24a8.66,8.66,0,0,1-5.48,2c-.63-1-2.62-4.27-2.62-4.27S987.88,170.25,991.38,152.76Z"/><g id="Layer_25" data-name="Layer 25"><path class="cls-3" d="M1040.69,477.55s-13.6,99.6-22.44,135.43-11.93,42-11.93,42,26.19,5.49,45.32,0c11.34-3.26,52.79-188.15,52.79-188.15Z"/><path class="cls-27" d="M1043,446.68s.85,59.93-36.72,208.25"/><g id="Layer_20" data-name="Layer 20"><path class="cls-16" d="M1013.43,177.73l-9.2,5.4-7.12,23.34s18.79,64.07,25.34,87.41,8.25,101.66,8.25,101.66v85.71s39.29,16.22,65.77,13.94,38.44-13.39,38.44-13.39-20-122.29-23.64-138.94S1082.51,240.35,1070,220.71s-27.36-33.68-44.71-40.43A46.92,46.92,0,0,0,1013.43,177.73Z"/><path class="cls-30" d="M1040.69,353.83l5.92,47.9s12.11,13,35.51-2c-4.24-23.95-7.9-38.32-7.9-38.32S1059.57,369.33,1040.69,353.83Z"/></g></g></g></g></g></g></g></g><g id="Layer_35" data-name="Layer 35"><line class="cls-14" x1="938.98" y1="505.44" x2="1104.43" y2="993.5"/></g><g id="Layer_32" data-name="Layer 32"><path class="cls-34" d="M923.07,217.73l6.53,8.62-1.27,10.51-11.56,3.33-6.68-7.31,1.24-11.76s-11,8.16-5.42,20.49c4.79,10.62,17.35,9.64,21.51,7.77S939,243.31,938.2,233C937.48,223.47,930.51,219.18,923.07,217.73Z"/><path class="cls-35" d="M927.92,276.2l-9.06-29.46s7.19,1.66,12.65-3.11c2.84,9.38,7.91,22.66,7.91,22.66s8.4,14.72-11.5,9.91"/><polyline class="cls-35" points="950.47 298.01 956.14 316 965.82 320.17 970.27 328.67 962.8 341.57 962.19 330.62 956.27 324.42 947.82 327.68 946.43 335.54 953.16 344.21 939.33 340.29 937.57 329.36 942.38 318.93 933.58 293.07"/><g id="Layer_23" data-name="Layer 23"><path class="cls-16" d="M962,265.81s47.52,7.39,51.59,6.19,4.71,1.19,4.71,1.19-9.62-48.26-6.14-65.39,24-13.11,37.94,7.4c7,10.32,12.65,52,12.65,52s2.7,39.84-8.44,47.24-72.72,12.65-83.56,7.16S958.2,293,958.2,293,956.2,268.19,962,265.81Z"/><path class="cls-30" d="M1039.1,281s-13.91-12.78-21-8.66"/><ellipse class="cls-3" cx="964.01" cy="293.01" rx="5.66" ry="26.63" transform="translate(-28.3 118.4) rotate(-6.93)"/><path class="cls-5" d="M939.42,266.29s6.42,9.6-4.71,10-11.51-1.86-10.75,3,3.38,2.83,4.9,4.9,2.26,6.81,4.72,8.88a39,39,0,0,0,7.67,5.27c2.11.94,11.93-.76,13.82-.94s3.2-2.45,3.2-2.45L970.11,297s-1.65-12.89-2.41-16-4-.15-9.84-7.81S939.42,266.29,939.42,266.29Z"/><path class="cls-30" d="M1057.5,229.66s10.91,42.84,3.55,71.07c-4.68,17.9-34.38,20.58-34.38,20.58s-26.52,4.83-59.45-1.87"/><path class="cls-30" d="M960.79,266.56s52.62,3.59,57.46,6.63a41,41,0,0,1,13.58,14.29"/><path class="cls-30" d="M1015.57,234.14s.57,28.35,2.68,39.05"/></g></g><g id="Layer_28" data-name="Layer 28"><path class="cls-3" d="M604.18,248.18V241.5L597,238.17l-.87-5.45,6-6-2.22-5.45-8,1.23-4.24-4.23,2.83-8.6-5.29-3.78-6.49,5.18-5.29-2.46-1.4-6.86-7.2-1.05-3,7.91H556l-4.41-5.79-6.67,2.46.68,8.09-4,3.35-7.19-2.46L530,219.55l4.74,7.19-1.92,4.92-8.25.87-.69,6.86,8.14,3.52v5.64l-6,5.09,2.83,6.51,8.08-1.06,3.7,4.57-2.64,7,5.79,4.24L550,269.8l5.11,3.16.87,7.2h8.08l2.83-7.2h5.27l5.11,5.46,6.32-3.16-1.24-7,4.05-3.33,8.25,1.77,3.7-5.78-4.57-5.81,2.28-5.63ZM564,255.45a15,15,0,1,1,15-15A15,15,0,0,1,564,255.45Z"/><path class="cls-5" d="M551.78,245.57s-5.83,10.3.46,14.58,12.14-.63,14.71-3.28,1.81-5.9-1.08-8.28S553.43,241.65,551.78,245.57Z"/></g><g id="Layer_31" data-name="Layer 31"><g class="cls-36"><path class="cls-37" d="M702.65,330.75a47.65,47.65,0,1,0,47.65,47.64A47.63,47.63,0,0,0,702.65,330.75Zm.61,72.15a24.51,24.51,0,1,1,24.51-24.51A24.5,24.5,0,0,1,703.26,402.9Z"/></g><g class="cls-36"><path class="cls-3" d="M782.09,376v-10.5l-12.31-4-2.19-7.16L775,343.56l-5-8.36-11.43,1.56-7.12-7.42,3.11-9.58L746,311.71l-12.06,6.5-8.32-5.35V302.45L715.05,300l-7.11,10.5h-8.71l-8-11.65-9.79,2.59-2.22,13.39-6.8,3.07-11.44-7.73-8.67,5.57,3.39,13.3-6.79,7.41-10.82-2.16-6.51,8.95L639.9,354l-3.39,9-12.06,1.83-1.24,10.82,11.43,5.77v10l-8.36,6.2,2.19,10.5,13.61.93,4.62,7.12L640.84,427l6.49,9.89L660,431l7.75,8.05-2.18,10.19,11.13,4.64,9.27-8.67,9.27,2.18,3.1,10.5h10.51l4.94-12.37,9-1.24L732,454.52l9.09-4.33-1.67-13.61L746.9,431l11.74,5.57,7.23-8.36-6-10.82,6-10.19L779.38,409l2.71-10.51-11.41-7.12,1.56-10Zm-78.83,55.7a53.33,53.33,0,1,1,53.31-53.33A53.33,53.33,0,0,1,703.26,431.72Z"/></g><g class="cls-36"><path class="cls-37" d="M702.65,330.75a47.65,47.65,0,1,0,47.65,47.64A47.63,47.63,0,0,0,702.65,330.75Zm.61,72.15a24.51,24.51,0,1,1,24.51-24.51A24.5,24.5,0,0,1,703.26,402.9Z"/></g><g class="cls-36"><path class="cls-3" d="M702.65,330.75a47.65,47.65,0,1,0,47.65,47.64A47.63,47.63,0,0,0,702.65,330.75Zm.61,72.15a24.51,24.51,0,1,1,24.51-24.51A24.5,24.5,0,0,1,703.26,402.9Z"/></g><g class="cls-36"><path class="cls-34" d="M653.36,400.85l-1.09-8.22,8.62-7-3.9-9L646.09,379l-6.19-5.51L641,362.34l-8.75-2.56-6.07,9.7h-7.78l-7-8.09-8.62,3.76,2.57,10.91-5.4,5.79-11.58-1.09-3,9.69,10.51,5.27-.13,7.79-9,6.45,4.85,9.57,10.63-2.81,5.92,5.23-1.61,10.76,9.69,3.39,5.66-9.56,7.66.13,7.42,8.21,8.47-4.44-2.3-10.64,5.41-5.53,10.76.82,2.83-8.9Zm-29.65,9.28a12.19,12.19,0,1,1,12.19-12.19A12.19,12.19,0,0,1,623.71,410.13Z"/></g><g class="cls-36"><path class="cls-2" d="M837.1,398.31v-7.6l-8.23-3.81-1-6.22,6.83-6.82-2.54-6.21-9.08,1.4-4.83-4.83,3.22-9.8-6-4.31L808,356l-6-2.81-1.6-7.81-8.22-1.2-3.4,9h-6.6l-5-6.6-7.6,2.81.8,9.21-4.61,3.83-8.21-2.82-5,6,5.4,8.21-2.2,5.6-9.42,1-.79,7.83,9.26,4v6.42l-6.88,5.8,3.22,7.42,9.21-1.2,4.22,5.22-3,8,6.6,4.83,7.21-5.82,5.83,3.62,1,8.21h9.21l3.22-8.21h6l5.82,6.22,7.22-3.63-1.41-8,4.61-3.81,9.41,2,4.22-6.6-5.22-6.63,2.59-6.4Zm-45.78,8.31a17.11,17.11,0,1,1,17.11-17.11A17.1,17.1,0,0,1,791.32,406.62Z"/></g></g></svg>