<svg xmlns="http://www.w3.org/2000/svg" viewBox="0 0 1459.13 1060.09"><defs><style>.cls-1,.cls-15,.cls-19,.cls-22,.cls-24,.cls-3{isolation:isolate;}.cls-2{fill:#fff;}.cls-24,.cls-3{fill:#bababa;}.cls-3{opacity:0.18;}.cls-4{fill:#ede4dd;}.cls-5{fill:#e65658;}.cls-10,.cls-11,.cls-13,.cls-17,.cls-18,.cls-20,.cls-6{fill:none;stroke-linecap:round;stroke-linejoin:round;}.cls-6{stroke:#7f1417;stroke-dasharray:16;}.cls-10,.cls-11,.cls-18,.cls-6{stroke-width:3.55px;}.cls-7{fill:#565797;}.cls-19,.cls-8{fill:#1d1e40;}.cls-15,.cls-9{fill:#9e4f4a;}.cls-10,.cls-20{stroke:#541e1c;}.cls-11,.cls-13{stroke:#1d1e40;}.cls-12{fill:#fdca60;}.cls-13{stroke-width:8.89px;}.cls-14{fill:#7f1417;}.cls-15,.cls-22{opacity:0.52;}.cls-16{fill:#76778e;}.cls-17{stroke:#fdca60;stroke-width:1.78px;}.cls-18{stroke:#565797;}.cls-19{opacity:0.53;}.cls-20{stroke-width:2.67px;}.cls-21{opacity:0.12;}.cls-22{fill:#ffecd5;}.cls-23{mix-blend-mode:multiply;}.cls-24{opacity:0.88;}</style></defs><g class="cls-1"><g id="Layer_1" data-name="Layer 1"><g id="Layer_15" data-name="Layer 15"><rect class="cls-2" x="29.32" y="6.34" width="1400.48" height="1047.62"/></g><g id="Layer_22" data-name="Layer 22"><rect class="cls-3" x="29.32" y="6.34" width="1400.48" height="1047.62"/><polygon class="cls-4" points="1429.81 1053.96 467.88 1053.96 1083.78 6.34 1428.94 6.34 1429.81 1053.96"/></g><g id="Layer_23" data-name="Layer 23"><polygon class="cls-5" points="773.4 858.15 703.88 1053.96 1001.1 1053.96 967.23 869.79 773.4 858.15"/><line class="cls-6" x1="847.43" y1="892.45" x2="821.05" y2="1053.96"/><g id="Layer_30" data-name="Layer 30"><path class="cls-7" d="M1258.49,576.19c-5.72,15.64-55.77,158.9-97.58,187.63s-293.75-65.25-293.75-65.25-30.16-154-5.49-163.3,65-12.5,239.34,95.31c16.94-91.85,34.18-158.86,108.14-151.71S1261.16,567.32,1258.49,576.19Z"/><ellipse class="cls-8" cx="1206.69" cy="493.14" rx="8.37" ry="36.58" transform="translate(550.39 1619.44) rotate(-82)"/><g id="Layer_31" data-name="Layer 31"><path class="cls-9" d="M1168.69,447.58a48.47,48.47,0,0,0,5.6,21.4c7.24,13.66,21.94,33.08,44.67,25.64,30.11-9.89,30.56-73.54,30.27-87.78a40,40,0,0,0-.48-5.56c-.89-6-1.81-13.38-5.4-16.26-5.1-4.07-4.2,40.58-7.22,42.62-2.27,1.55,4.71-58.89-8.71-60.35-5.05-.55-.48,32.52-6.52,51.71-1.49-2.81.92-55.63-9.33-62.51s-.93,37.11-8.75,58.05c-1.51-23.28,0-51.48-8-54.37s-4.75,60.45-9,66.72-9.62-35.24-20.71-30.37C1161.44,398.12,1168.2,428.35,1168.69,447.58Z"/><path class="cls-9" d="M1191.43,477.71l-4.43,20s20.18,6.18,39.57,5.22c3-11.6,7.43-23.39,7.43-23.39Z"/><path class="cls-10" d="M1189.38,436.35s22.61,18.89,19.75,42.52"/><g id="Layer_25" data-name="Layer 25"><path class="cls-7" d="M994,608.46c-14.53-29-50-72.62-98.53-78.15-65.5-7.49-110.27,80.47-150.91,195.18,0,93.11-115,113.39,23.06,176.62,46.85,21.45,134.75,18.93,188.46-9.64,21.71-11.53,68.26-33.33,59.25-81.75-12.36-66.33,2.22-76.85,2.22-117.61C1017.52,664.69,1006.5,633.47,994,608.46Z"/><path class="cls-11" d="M997,609.74s35.35,46,25.29,85.13c-11.11,43.19-10.95,50.82-10.95,50.82"/><path class="cls-11" d="M1101,630.58s34.71,8.19,40.85,47.14"/><path class="cls-11" d="M1101,634.54s21.79,25.7,20.42,54.2"/><g id="Layer_29" data-name="Layer 29"><path class="cls-7" d="M688.9,880.24c-30.11-70.67,85.3-285.87,140.42-321.39,29.33-18.91,79.93,19,87.54,66.71,11.5,72.26-108.41,185.16-108.41,185.16S989.74,872,1012.77,920.24c11.43,24-17.84,104.41-64.84,104C922.85,1024.09,719,950.93,688.9,880.24Z"/><path class="cls-11" d="M844.94,564.51c42.57,6.24,60.88,54.58,56.78,84.37-8.52,61.86-80.13,152.21-80.13,152.21s28.63-15.89,15.78,11.48c-1.48,3.13,13.69,2.21,6.61,12.36"/><path class="cls-11" d="M970.58,883.94s-68.33-35.27-86.78-44.38"/><path class="cls-11" d="M770.15,815.58s19.74-11.66,45-11.4"/><path class="cls-11" d="M795.81,831.86A88.64,88.64,0,0,1,823.88,819"/><ellipse class="cls-8" cx="989.69" cy="972.08" rx="37.9" ry="13.99" transform="translate(-288.08 1512.19) rotate(-67.4)"/><path class="cls-9" d="M1036.88,944.09a48.33,48.33,0,0,0-22.05-1.92c-9,1.32-21.34,1.44-29.61,8.67-3.62,6.55-6.86,10.37-12,26-.8,31.68,61.48,52.24,75,56.76a42.49,42.49,0,0,0,5.4,1.42c6,1.17,13.21,2.79,17.14.37,5.54-3.43-36.82-17.57-37.72-21.11-.68-2.67,53.87,24.21,59.78,12.07,2.22-4.59-30.47-11.38-46.5-23.52,3.14-.46,52.08,19.55,62,12.21s-34.64-13.35-51.74-27.74c22.45,6.39,48.51,17.27,53.89,10.71s-55.35-24.77-59.84-30.85,36.42,2.77,35.56-9.3C1085.9,953.87,1055.15,950.08,1036.88,944.09Z"/><g id="Layer_26" data-name="Layer 26"><path class="cls-12" d="M871.78,532.55c-7.71,1.19-14.82,12.81,5.37,32.15,21.22,20.34,71.94,35.78,93.09,30.82S964.6,564.08,946,553.65,894.18,529.08,871.78,532.55Z"/><g id="Layer_21" data-name="Layer 21"><path class="cls-9" d="M955.57,270s30.18,27.18,40.26,70.14c2.6,11.11,16.18,15.55,23.77,16,9.45.53,17.58,16-6.05,24.54,4.93,16.16,8.39,55.8-5.11,74.48-10.83,15-28.55,23.09-47.68,22.13-9.81-.5-15,64.17-8.64,87.52,5.64,20.78-32.68,7.63-43.15,3.56-13.37-5.19-39.41-18.08-32.73-37.29,13.25-38.06,8.09-98,8.09-98s-60.24,16.16-49.27-35.69c8.82-41.61,43.74-15.11,43.74-15.11s-18.25-31.85-18.61-54.14C859.73,297.65,881.42,248,955.57,270Z"/><path class="cls-13" d="M972,314.27s-11.42,2.33-16.44,18.35"/><path class="cls-14" d="M1015.28,395.93c7.46,44.49-34.5,16.55-37.45,9.17C1020,382.26,1015.28,395.93,1015.28,395.93Z"/><path class="cls-10" d="M853.78,408.37s1.12-12.71,12-11.14,14.47,14.15,14.47,14.15-13.69-8.86-14.06,4.78"/><path class="cls-8" d="M929.94,300.82s20.07,16-30,60.61C876.28,382.58,883.35,400,883.35,400s-2.72-7-9.15-10.68c-10.38-5.92-30.22-7.91-31,10.76-1.58,41.13,41.06,33,41.06,33s8,28.42,2.79,36.17-53.53-11.45-82.33-45.5c-27.55-32.58-22.43-68.95-19.41-88.24,3.54-22.54,21.69-50.83,43.82-65.23,39.92-25.94,87.06-24.07,127.53-3.54C978.63,279.82,929.94,300.82,929.94,300.82Z"/><path class="cls-15" d="M915.26,455.76s2.36,42.84,35.59,51.6c3-27.62,8.54-30.16,8.54-30.16S938.79,478.35,915.26,455.76Z"/><path class="cls-10" d="M957.78,477.09A71.83,71.83,0,0,1,916.11,456"/><path d="M984.76,342.84a17.85,17.85,0,0,1,1,5.9,9.2,9.2,0,0,0-11.85,4.48,17.62,17.62,0,0,1-3.09-5.66c-2.14-6.27-.75-12.44,3.11-13.74S982.63,336.56,984.76,342.84Z"/><path class="cls-8" d="M674.36,374.17c5.72,24,37.7,55.09,72.79,41.15,41.93-16.63,49.55-58.8,27.35-87.88-18.08-23.65-45.72-27-66.76-18.22C682.5,319.82,668.63,350.21,674.36,374.17Z"/><path class="cls-5" d="M785.91,332.62s-8.42-4.32-5,8c4.31,15.66,4.64,36.12-3.27,50-3,5.24,3.47,15,11,1.19C797.86,374.88,792.19,332.1,785.91,332.62Z"/><path class="cls-2" d="M1015.28,395.93s-3.68,11-31.16,9.87c14,7.44,20.39,7.05,25.86,4.44S1015.28,395.93,1015.28,395.93Z"/></g></g></g></g></g></g></g><g id="Layer_6" data-name="Layer 6"><path class="cls-16" d="M284.89,169.9H546.8c17.51,0,28.69-19.39,19.22-34.11a37.39,37.39,0,0,0-21.81-16.35c-31.78-8.89-56.38,9.72-56.38,9.72s28.38-27.1.64-43.51c-21-12.4-39.13,9-39.13,9S468,28.9,414.77,29.32c-55.58.45-40.2,64.9-40.2,64.9s-23.84-38.34-52.81-29.47-9.35,59.35-9.35,59.35-38.79-11.22-52.81,1.4c-3.5,3.15-5.09,7.5-5.48,12.27C252.65,155.24,267.37,169.9,284.89,169.9Z"/><path class="cls-16" d="M509.49,287.15h123c12.87,0,18.49-16.28,8.34-24.19a32.59,32.59,0,0,0-6.47-3.9c-25.59-11.87-42.69,9.42-42.69,9.42s1.65-40.45-28.87-41.75C533.94,225.5,530.29,263,530.29,263s-12-14.24-28-7.11c-.44.2-.87.41-1.28.64C486.39,264.54,492.77,287.15,509.49,287.15Z"/><path class="cls-16" d="M84.52,256.93H251.69c19.27,0,23.67-27.91,5.06-32.92-.62-.16-1.26-.32-1.93-.43C233.56,219.75,220,236.86,220,236.86s17.11-39.55-10.33-48.11-36.9,18.89-36.9,18.89,6.11-51-19-47.14-22.23,59.41-22.23,59.41-53.51-16-63,13.7c0,.16-.13.32-.18.48A17.06,17.06,0,0,0,84.52,256.93Z"/><line class="cls-17" x1="1325.59" y1="218.15" x2="1306.66" y2="343.92"/><line class="cls-17" x1="1272.71" y1="199.77" x2="1184.53" y2="296.23"/><line class="cls-17" x1="1241.73" y1="150.74" x2="1105.49" y2="200.96"/><line class="cls-17" x1="1236.72" y1="92.07" x2="1115.17" y2="75.13"/><line class="cls-17" x1="1297.24" y1="218.31" x2="1267.5" y2="277.69"/><line class="cls-17" x1="1250.78" y1="180.45" x2="1190.06" y2="216.81"/><line class="cls-17" x1="1232.08" y1="120.92" x2="1165.57" y2="127.14"/><circle class="cls-12" cx="1334.25" cy="120.56" r="70.03"/></g><g id="Layer_33" data-name="Layer 33"><path class="cls-16" d="M188.05,901.23s-43,74.61-49.84,112.11c-4,21.88-9.06,40.62-9.06,40.62H382l-1.69-132Z"/></g><g id="Layer_34" data-name="Layer 34"><path class="cls-8" d="M380.32,614.7s83.39,89.87,89.18,201S348,897.39,348,897.39Z"/><g id="Layer_27" data-name="Layer 27"><path class="cls-8" d="M422.5,692c-13.56-41.06-28-81.55-74.42-120.62s-85.14,30.39-85.14,30.39-90.88,185.77-98.08,248.92c-3.31,28.92,6.27,52.94,16.83,62.29,53.75,47.63,224.62,67.9,212.14-10.81C376,790,446.75,765.35,422.5,692Z"/><path class="cls-9" d="M507.47,363.4s11.84,51.32,8.21,81c-1.37,11.27,6.79,20,13.46,23.57,8.31,4.46,9.13,21.86-15.75,19.62-2.33,16.66-15.84,53.9-35.85,65.08-16.07,9-35.47,8.87-52.32,0-8.63-4.55-40.43,51.63-44.5,75.38s-36.16-11.46-39.64-15.94c-8.77-11.29-28.8-31.8-14.7-46.34,27.92-28.8,48.42-85.11,48.42-85.11S313.65,470,345.31,427.78c25.4-33.88,45.82,4.71,45.82,4.71S388,396.07,397,375.83C409.35,348.17,449.74,312.46,507.47,363.4Z"/><path class="cls-13" d="M480.31,424.12s11.09,3.4,23.11-8.25"/><path class="cls-10" d="M357.54,445.61s6.33-11,15.48-5.05,7.13,18.84,7.13,18.84-8.64-13.74-14.7-1.58"/><path class="cls-8" d="M471.39,380.48s11.41,22.83-52.48,42.15c-30.27,9.15-31.16,27.82-31.16,27.82S388.23,443,384,437c-6.88-9.7-24-19.82-32.44-3.27-18.68,36.48,23.25,47,23.25,47s-4.68,29-12.66,33.81-43.53-32.8-55.22-75.6c-11.2-41,8.67-71.65,19.48-87.79,12.64-18.86,40.9-36.79,66.92-40.49,46.93-6.66,88.68,14.81,116.6,50.3C524.14,381.94,471.39,380.48,471.39,380.48Z"/><path class="cls-15" d="M393.16,514.19s-15.84,39.65,10.47,61.5C418,552,424,552.05,424,552.05S404.93,544.44,393.16,514.19Z"/><path class="cls-10" d="M422.58,551.28a71.24,71.24,0,0,1-28.75-36.52"/><path class="cls-8" d="M212.39,340.85c-4.89,24,10.91,65.53,48.43,67.68,44.85,2.56,69.4-32.29,61.56-67.84-6.38-28.94-29.93-43.59-52.63-44.46C242.53,295.2,217.26,316.81,212.39,340.85Z"/><path class="cls-7" d="M332.31,343.3s-9.74-5.3-9.18,3.89c1,16.69-10,43.46-20.66,50.2-4.58,2.91-.73,10.36,8.07,6.33C330.08,394.79,337.33,346.68,332.31,343.3Z"/><path class="cls-8" d="M352.84,520.71s30.93,36.67,55.5,47.62c17.13,7.64-35.89,80.82-35.89,80.82S303,607.72,305,589.05,349,518.65,352.84,520.71Z"/><ellipse cx="492.49" cy="445.24" rx="12.64" ry="6.86" transform="translate(-98.88 747.02) rotate(-69.15)"/><path class="cls-14" d="M476.42,510.79s19.49-33.34,33.09-11.11C499.36,496,489.57,501.42,476.42,510.79Z"/><path class="cls-8" d="M285.67,598.26s-24.12,30.56-61.21,168.17C201.4,852,196.62,972.9,196.32,1054c1.4.13,109.49,0,109.49,0L339,667.49S314.91,570.05,285.67,598.26Z"/><path class="cls-8" d="M323.82,795.06S417.53,766,427.93,815.68c10.31,49.35-30.49,99.21-69.59,90.66S274.67,839.84,323.82,795.06Z"/><path class="cls-18" d="M323.36,562.43s12.26,38.69,54,52.27"/><path class="cls-18" d="M398.35,660.33s36.74,51.21,29.27,91.28c-5.35,28.72-15.89,40.08-15.89,40.08"/><path class="cls-18" d="M344.33,812.24s43.3-28.37,78.25-18.76"/><path class="cls-18" d="M267.67,610.7s55.26-46.41,71.36,41.9c11.33,62.14-10.84,129.28-10.84,129.28"/><line class="cls-18" x1="315.55" y1="900.93" x2="311.47" y2="988.05"/><ellipse class="cls-19" cx="336.46" cy="855.59" rx="16.16" ry="34.54"/><path class="cls-9" d="M265.34,808.09s22-.67,42.14-3L348,831.45s4.61,6.9,4.61,24.14c0,9.81-3.19,23.07-24.48,26.36s-67.46-4.5-69.57-8c-3.45-5.65,20.33-3.57,33.43-6,29.21-5.4-26.3-8.26-30.53-8.56-18.08-1.3-17.73-9.64-5.34-10.35,14.22-.8,32.94-.82,36.35-.82s9.44-2.66,1.09-2.66c-9,0-51.66,1.33-51.58-7.81.05-7.07,51.81-7.48,57.94-10.47,2.76-1.33-8.3-7-22.48-6.29-15.72.75-35,7.64-37.35,2.93C238,819.67,265.34,808.09,265.34,808.09Z"/><path class="cls-18" d="M201.05,923.68S192.53,816.2,215.69,742"/><path class="cls-18" d="M353.64,892.52s15.22,7.77,40,8.41"/><path class="cls-20" d="M309.12,813.73s9.83,1.51,5.65,11.34c-3.3,7.8,5.51,9.81.78,17.26-4.6,7.25,3.31,10.17,0,16.76s2.92,8.83,0,15.45"/><path class="cls-11" d="M348,927.26c-.41,2.93-3.66,109.42-3.66,109.42s21.4,14.4,21.52-47.51"/></g></g><g id="Layer_24" data-name="Layer 24" class="cls-21"><polygon class="cls-22" points="1429.81 1053.67 467.88 1053.67 1084.21 6.06 1429.38 6.06 1429.81 1053.67"/></g><g id="Layer_32" data-name="Layer 32" class="cls-23"><polygon class="cls-24" points="467.88 1053.96 29.32 1053.96 29.32 6.34 972.5 6.34 1083.78 6.34 467.88 1053.96"/></g></g></g></svg>