<svg id="Layer_1" data-name="Layer 1" xmlns="http://www.w3.org/2000/svg" viewBox="0 0 1459.13 1060.09"><defs><style>.cls-1{fill:#ede4dd;}.cls-2{fill:#fdca60;}.cls-10,.cls-11,.cls-12,.cls-13,.cls-14,.cls-15,.cls-16,.cls-17,.cls-19,.cls-21,.cls-23,.cls-24,.cls-3{fill:none;stroke-linejoin:round;}.cls-3{stroke:#565797;}.cls-10,.cls-11,.cls-12,.cls-13,.cls-17,.cls-19,.cls-21,.cls-23,.cls-24,.cls-3{stroke-linecap:round;}.cls-10,.cls-11,.cls-12,.cls-13,.cls-14,.cls-15,.cls-16,.cls-17,.cls-19,.cls-23,.cls-3{stroke-width:1.5px;}.cls-4{fill:#9e4f4a;}.cls-18,.cls-5{fill:#eeb6ab;}.cls-6{fill:#565797;}.cls-7{fill:#1d1e40;}.cls-8{fill:#fff;}.cls-9{fill:#cfcfcf;}.cls-10{stroke:#fff;}.cls-11{stroke:#404040;}.cls-12{stroke:#606160;}.cls-13{stroke:#e65557;}.cls-14,.cls-15,.cls-16{stroke:#a5c3e6;stroke-linecap:square;}.cls-15{stroke-dasharray:11.84 11.84;}.cls-16{stroke-dasharray:12.06 12.06;}.cls-17,.cls-24{stroke:#1d1e40;}.cls-18{opacity:0.67;isolation:isolate;}.cls-19{stroke:#542210;}.cls-20{fill:#cc4746;}.cls-21{stroke:#913a44;stroke-width:3px;}.cls-22{fill:#24100a;}.cls-23{stroke:#3c151d;}.cls-24{stroke-width:2px;}</style></defs><g id="Layer_14" data-name="Layer 14"><ellipse class="cls-1" cx="729.57" cy="829.56" rx="478.33" ry="110.2"/></g><g id="Layer_7" data-name="Layer 7"><path class="cls-2" d="M707.08,330.34s145.68-70.09,208.52-35.8,46.25,121.88,46.25,121.88L952.48,425s-36.57,50.6-3.3,97.42,79.16,119.6,74.23,165.19-29.12,32.07-29.12,32.07,16.9-48.11-110.61-158.19C792.19,430.51,707.08,330.34,707.08,330.34Z"/><path class="cls-3" d="M741.62,334s15.64,15,44.29,15.64a72.23,72.23,0,0,0,37-9.19"/><g id="Layer_6" data-name="Layer 6"><path class="cls-4" d="M670.42,231.31s24.51,39,17.18,62,45.06,39.38,41.83,88.77c-4.64,71-27.15,171.88-32.77,185.24s-35-50.09-37.51-68.44-5.6-75.73-6.3-118.6-43.47-84.83-43.47-101.7,20.19-80.29,29-76.09S670.42,231.31,670.42,231.31Z"/><path class="cls-4" d="M623.85,227.42s5.74,36.82,9.88,60.61c5.45,31.29,7.77,88.49,4.55,137.87-4.64,71,10.14,122.78,4.52,136.13s-35-50.09-37.51-68.44-30.2-65-30.9-107.84,0-97.9,0-114.77,1.32-78,10.15-73.77S623.85,227.42,623.85,227.42Z"/><g id="Layer_3" data-name="Layer 3"><path class="cls-5" d="M608.64,353.43c-19.71,39.75-72.1,288.13-83.6,326.35s-122,75.51-123.63,92.33-6.16,31.5,57.91,26.91,47.64-22.93,78.86-22.93,18.07-60.32,29.57-80.19,83.79-135.36,98.58-202.62c18.9-64.08,65.59-119.12,40.82-150.61C684,313.24,628.35,313.68,608.64,353.43Z"/><path class="cls-6" d="M611.32,336.85c-23.91,40.51,39,237.43,59.64,171.4-11.28,141,23.06,240.14,69.16,265,74.17,39.91,144.08,3.21,166.19-25.43,31.09-40.28,5.61-100.9-17.33-133.95-22-31.62-54.86-58.62-101.76-148.28-24.66-47.15-38.11-78.05-59.36-114.21C708,317.53,635.23,296.34,611.32,336.85Z"/><path class="cls-7" d="M514.82,621.53,652.36,685s115.86-273.46,73.31-331.7-110.88-50.4-124.33-12.9S514.82,621.53,514.82,621.53Z"/><path class="cls-6" d="M514.82,621.56,652.36,685s115.86-273.46,73.31-331.7-110.88-50.4-124.33-12.9S514.82,621.56,514.82,621.56Z"/><path class="cls-5" d="M659.23,365.13C639.52,407.84,596,700.59,584.5,741.66S449.79,817.23,448.14,835.3s6.57,39.43,70.64,34.5,47.64-24.64,78.86-24.64,24.64-62.43,36.14-83.79,77.21-147.86,92-220.14c3,141.43,67.64,224.17,101,239.18C903.56,815,964.93,786.57,984,755.85c26.88-43.2-4.57-101-30.72-131.53-25-29.26-60.48-52.8-116.17-137.29-29.28-44.43-45.77-73.82-70.55-107.65C743.44,347.76,678.94,322.41,659.23,365.13Z"/><path class="cls-8" d="M552,801.38c-12.38,43.21-109.72,28.34-111.49,47.35s7.08,41.48,76.06,36.3,59.58-26.52,86-26.51c24.46,0,20.66-14.51,22.45-25.6Z"/><polygon class="cls-9" points="592.77 701.87 654.2 721.57 633.78 761.38 584.49 741.66 592.77 701.87"/><g id="Layer_17" data-name="Layer 17"><path class="cls-8" d="M493.79,732.39c-11.67,38.16-103.43,25-105.1,41.81s7.32,40.61,72.15,33.73c44-4.67,55.11-24,80-24,23,0,20.09-13.93,21.77-23.73Z"/><polygon class="cls-9" points="532.19 644.51 590.1 661.91 570.85 697.06 524.39 679.65 532.19 644.51"/><path class="cls-7" d="M570.85,697.06c-10.84,18.86,0,69.48-24.73,71-29.37,1.75-34.78,18.71-82.71,27.4-59.58,10.8-69.11-17.11-67.57-33.07s117.7-46.42,128.54-82.69Z"/><path class="cls-8" d="M424.28,743.35s34.38,20.3,31.63,48.58c-1.68,17.34-33,10.43-50.87-3.11-10.21-7.71-14.82-12.57-13.29-21.07.16-.9.4-1.9.71-3C395.68,753.36,424.28,743.35,424.28,743.35Z"/><path class="cls-10" d="M469.94,792.17c4.16-24.1-7.67-34.89-7.67-34.89s33.44-8.57,52.3-24.24c17.25-14.33,28.07-44.88,37.39-42.55"/><path class="cls-11" d="M454.78,796s-39.23,1.84-53.8-10.36c-8.32-7-9.51-14.87-9.51-14.87"/><path class="cls-12" d="M389.49,781s3,15.64,36.23,19.91c17.65,2.27,41.37,1.8,60.18-4.87,22.58-8,35.63-13.72,41.06-15.06s21-4.69,26-6.64c7.21-2.85,8.85-5.85,8.85-5.85"/><path class="cls-10" d="M447.48,746.37l37.06,2,3.34-24.51L522,725.59l-5.54-20.39,22.78-4.11-10.28-18.46c-1,7.58-3.79,12.57-8.46,18.39s-15.85,13.68-24.24,18.34S448.71,744.84,445,745.13s-12.41-5.59-12.41-5.59"/><polyline class="cls-10" points="462.27 757.27 469.27 732.39 507.12 738.44 507.12 712.51 532.69 710.9 525.52 693.56 549.68 689.06"/><line class="cls-13" x1="525.95" y1="677.31" x2="573.85" y2="689.06"/><line class="cls-13" x1="525.95" y1="672.65" x2="578.77" y2="682.62"/><line class="cls-13" x1="528.09" y1="663" x2="580.39" y2="679.65"/><line class="cls-13" x1="530.08" y1="654.04" x2="582.33" y2="676.11"/><line class="cls-13" x1="531.14" y1="649.27" x2="586.77" y2="667.99"/><ellipse class="cls-8" cx="545.73" cy="728.59" rx="12.48" ry="10.43" transform="translate(-305.92 1050.08) rotate(-73.85)"/></g><path class="cls-6" d="M656.46,364c-19.71,42.71,55.46,245,69.32,177.22,3,141.43,52.19,244.49,82.57,264.54,77.29,51,156.58-19.2,175.69-49.92,26.88-43.2-4.57-101-30.72-131.53-25-29.26-60.48-52.8-116.17-137.29-29.28-44.43-45.77-73.82-70.55-107.65C743.44,347.76,676.17,321.31,656.46,364Z"/><path class="cls-6" d="M570.91,656.7l137.54,68.21s110.24-269.56,67.69-332.15S666.7,327.53,653.25,367.82,570.91,656.7,570.91,656.7Z"/><line class="cls-14" x1="641.51" y1="691.71" x2="642.95" y2="685.89"/><line class="cls-15" x1="645.8" y1="674.39" x2="701.4" y2="450.27"/><path class="cls-14" d="M702.83,444.52l1.44-5.82s.79,1.94,2.29,5.54"/><path class="cls-16" d="M711.26,455.34c26.8,62.52,126.26,282.36,219.92,332.78"/><path class="cls-14" d="M936.57,790.83c1.84.86,3.67,1.66,5.51,2.38"/><line class="cls-13" x1="587" y1="736.69" x2="638.43" y2="752.31"/><line class="cls-13" x1="586.77" y1="730.69" x2="642.62" y2="744.5"/><line class="cls-13" x1="588.32" y1="724.91" x2="647.97" y2="733.71"/><line class="cls-13" x1="590.1" y1="716.25" x2="650.59" y2="728.6"/><line class="cls-13" x1="591.99" y1="707.86" x2="652.48" y2="724.91"/><path class="cls-17" d="M573.19,648.47s49.12-243.63,85.58-291.36c18.73-24.53,67.23-8.69,67.23-8.69"/><path class="cls-17" d="M792.42,789.91s-62.84-88-64-208.3c-7.27,81.4-24.13,140-24.13,140"/><path class="cls-17" d="M721.13,515.69s9.31,29,7.27,65.91C728.63,566,717,533,717,533"/><g id="Layer_16" data-name="Layer 16"><path class="cls-7" d="M633.78,761.38c-11.5,21.36,0,78.68-26.23,80.35-31.15,2-24.7,23.15-88.77,28.08s-72.29-16.43-70.64-34.5S573,782.74,584.5,741.67Z"/><path class="cls-8" d="M478.29,813.79s36.47,23,33.56,55c-1.79,19.64-34.64,7.27-53.64-8.06-10.83-8.74-16-9.69-14.42-19.32q.25-1.53.75-3.39C448,825.13,478.29,813.79,478.29,813.79Z"/><path class="cls-10" d="M526.73,869.07c4.42-27.29-8.13-39.51-8.13-39.51s35.48-9.7,55.48-27.45c18.29-16.23,29.78-50.82,39.67-48.19"/><path class="cls-11" d="M515.11,869.07s-41.4,3.26-61.5-9.89c-9.81-6.42-10.11-15.06-10.11-15.06"/><path class="cls-12" d="M441.39,856.38s3.2,17.72,38.43,22.55c18.72,2.57,44.72.21,65.4-4.58,27.89-6.46,36.23-16.47,42-18s22.33-5.31,27.57-7.52c7.65-3.23,9.39-6.63,9.39-6.63"/><path class="cls-10" d="M502.91,817.21l39.32,2.28,3.55-27.76,36.16,1.94-5.87-23.09,24.16-4.65L589.32,745c-1.1,8.59-4,14.23-9,20.83s-16.81,15.5-25.72,20.77-50.41,28.86-54.36,29.19-13.16-6.33-13.16-6.33"/><polyline class="cls-10" points="518.59 829.56 526.02 801.38 566.17 808.23 566.17 778.87 593.29 777.05 585.69 757.41 611.32 752.31"/><g id="Layer_10" data-name="Layer 10"><path class="cls-5" d="M766,233.19s28.67,26.12,51.13,71.63S743.93,332.14,735,320,734.65,225.49,766,233.19Z"/><path class="cls-18" d="M771.64,228.7s33.43,29.56,31.72,67.23-34.8,36.22-45.63,32.81C745.21,324.8,771.64,228.7,771.64,228.7Z"/><g id="Layer_11" data-name="Layer 11"><path class="cls-5" d="M773.71,239.34s32.34,86.35-22.47,96.92-118.41-52.9-118.41-52.9-27.7-91.3,23.49-90.12S770.66,119.07,773.71,239.34Z"/><path class="cls-19" d="M751.88,202.31s-11.54,3.11-9.68,18.74c0,0-12.57-20.84-1.92-29.78"/><path class="cls-20" d="M723.22,321.26s-14.5-8,23.43-24C725.81,308.41,723.22,321.26,723.22,321.26Z"/><path class="cls-21" d="M667.34,258.24s14.33-4.56,20.33-14.45"/><path class="cls-21" d="M655.65,274.27s3.29,6.65,0,18.17"/><path class="cls-19" d="M683.23,285.1s5.79,21,15.55,19c8.3-1.7,9-10.84,9-10.84"/><ellipse class="cls-22" cx="694.05" cy="263.89" rx="6.08" ry="8.79" transform="translate(82.6 685.16) rotate(-55.38)"/><ellipse class="cls-22" cx="672.81" cy="294.64" rx="6.08" ry="8.79" transform="translate(48.12 680.97) rotate(-55.38)"/><path class="cls-23" d="M624.26,239.31s3.37,14.55,5.81,33.27c3.39,26,6.72,39,6.72,39"/><g id="Layer_8" data-name="Layer 8"><path class="cls-5" d="M979.78,423S977,378.42,935,361.44s-22,65,3.29,101.28,12.85,127.47,39.81,207.36,33.16,112.83,20.57,123.82-9.15,14-29.22,18.67c-13.09,3-8,14.2,8.64,7.41,24-9.78,25.56-4.92,27.81,8.39,3,17.85-13.16,49-5.56,51.49,9.48,3.14,15.81-49.85,25.17-44.85s9,50.72,16.51,50.71c10.19,0-6.45-50.13,3.25-53.8,8.65-3.27,25,34.4,32.7,31.44s-26.08-37.54-18.89-41.87c6-3.6,26,20.67,30.72,15.25,2-2.36-16.67-14.72-29.13-33.9-3.16-4.86-12.45-19.25-16.2-22.86-11.62-11.14-10.22-22-10.84-30s-9.61-151.78-13.6-171.75S979.78,423,979.78,423Z"/><path class="cls-18" d="M947.89,555.65s24.25,30,52.47,30,13.18-34.35,13.18-34.35Z"/><path class="cls-10" d="M1004.88,772s5.29,8.85,18.9,7c6.63-.92,12.65-5.15,12.65-10.56"/><path class="cls-24" d="M1004.36,765.64s7.58,9.64,18.16,7.14,12.22-10,12.22-10"/><path class="cls-13" d="M1003.75,761a21.07,21.07,0,0,0,18.07,3.68c10.64-2.72,12.28-6.72,12.28-6.72"/><g id="Layer_9" data-name="Layer 9"><path class="cls-2" d="M870.81,309.87s32,200.1,58.7,248.2c49.84,25,118.55,0,118.55,0S975.54,328.56,927.44,302.32,884.56,294.87,870.81,309.87Z"/><path class="cls-3" d="M897,434.8S910.75,540.25,928,559.38c3.84,4.27,31.23,8,31.23,8"/><path class="cls-3" d="M959,339.84s-55.8,12.27-61.93,73.33"/><g id="Layer_12" data-name="Layer 12"><path class="cls-4" d="M585.36,203.11s11.31,41.26,63.81,38.7c43.9-2.14,71.38-16.1,81.62-28.69-9.76-28.93,17-40.66,30.43-20.39,16.07,24.2-2.48,39-2.48,39S774.1,252.91,795.65,284c30.62,44.15,19.19,89.37,18,129.2-.45,15.33-.53,28.87-.3,40.81,29.57,47.11,26.45,39.67,49.38,69.74,2.43-8.56,3.11-21.16.65-39.69-2.87-21.62-16-177.46,22.73-192.66s-43.34-143.67-160.58-167C619.08,103.09,577.22,171.88,585.36,203.11Z"/><path class="cls-23" d="M610.84,228.7s53.38,15.1,117.27-22.43"/><path class="cls-23" d="M588.57,210.72s72.72,20.8,139.84-13.73"/><path class="cls-23" d="M584.53,197.2s92.44,10.7,147.19-9.58"/><path class="cls-23" d="M763.36,228.7s61.41,27.41,54.39,128.42"/><path class="cls-23" d="M767.5,215.78s48.69,17,63.75,66.91c17.61,58.33-17.92,166.69-17.92,166.69"/><path class="cls-23" d="M761.23,192.73s72.5,7.29,90.84,73.33c13.89,50,6.13,163.13,6.13,163.13"/></g></g></g></g></g></g></g></g></g></svg>