<svg xmlns="http://www.w3.org/2000/svg" viewBox="0 0 1459.13 1060.09"><defs><style>.cls-1,.cls-16,.cls-24,.cls-27,.cls-37,.cls-9{isolation:isolate;}.cls-2{fill:#ede4dd;}.cls-24,.cls-3,.cls-9{fill:#9d4e49;}.cls-4{fill:#fcca5f;}.cls-10,.cls-12,.cls-13,.cls-14,.cls-17,.cls-23,.cls-25,.cls-29,.cls-30,.cls-31,.cls-32,.cls-34,.cls-35,.cls-38,.cls-41,.cls-42,.cls-43,.cls-44,.cls-5,.cls-7{fill:none;stroke-linecap:round;}.cls-5{stroke:#3c131c;}.cls-10,.cls-13,.cls-14,.cls-17,.cls-23,.cls-25,.cls-29,.cls-30,.cls-31,.cls-32,.cls-34,.cls-35,.cls-38,.cls-41,.cls-42,.cls-43,.cls-44,.cls-5,.cls-7{stroke-linejoin:round;}.cls-10,.cls-25,.cls-38,.cls-43,.cls-5,.cls-7{stroke-width:2.69px;}.cls-6{fill:#efb6ab;}.cls-14,.cls-7{stroke:#532210;}.cls-8{fill:#cb4646;}.cls-9{opacity:0.66;}.cls-10,.cls-23,.cls-41{stroke:#1d1e40;}.cls-11,.cls-16,.cls-22{fill:#a26d4b;}.cls-12,.cls-35{stroke:#000;}.cls-12{stroke-miterlimit:10;}.cls-12,.cls-30,.cls-34,.cls-35{stroke-width:5.38px;}.cls-13,.cls-34,.cls-38{stroke:#a26d4b;}.cls-13,.cls-23,.cls-32{stroke-width:7.18px;}.cls-14,.cls-17,.cls-31{stroke-width:3.59px;}.cls-15{fill:#e65557;}.cls-16{opacity:0.62;}.cls-17{stroke:#b9baba;}.cls-18{fill:#75778e;}.cls-19{fill:#565697;}.cls-20{fill:#cecece;}.cls-21{fill:#0c0c0c;}.cls-22{mix-blend-mode:multiply;}.cls-24{opacity:0.52;}.cls-25{stroke:#541d1c;}.cls-26,.cls-27{fill:#1d1e40;}.cls-27{opacity:0.45;}.cls-28{fill:#fff;}.cls-29,.cls-30,.cls-31,.cls-32{stroke:#e65557;}.cls-29{stroke-width:8.97px;}.cls-33{fill:#6bb487;}.cls-36,.cls-37{fill:#e69766;}.cls-37{opacity:0.59;}.cls-39{fill:#38646d;}.cls-40{fill:#c5d786;}.cls-41,.cls-42,.cls-44{stroke-width:1.79px;}.cls-42,.cls-43{stroke:#38646d;}.cls-44{stroke:#6bb487;}</style></defs><g class="cls-1"><g id="Layer_1" data-name="Layer 1"><g id="Layer_2" data-name="Layer 2"><circle class="cls-2" cx="495.25" cy="286.81" r="210.15"/><circle class="cls-2" cx="963.89" cy="286.45" r="210.15"/><circle class="cls-2" cx="963.89" cy="771.6" r="210.15"/><circle class="cls-2" cx="496.2" cy="773.63" r="210.15"/></g><g id="Layer_4" data-name="Layer 4"><path class="cls-3" d="M499.66,432.94s-30.9,19.83-74.72,13.84-52.32-33-49.64-48c4-22.14,22-28.6,16.9-53.95s3.23-44.73,3.23-44.73-15.22-43.82-12.92-59.5,12.41-39.5,29.48-46.12,102.33-1.2,102.33-1.2,70.17,110.51,62.33,170.93S499.66,432.94,499.66,432.94Z"/><g id="Layer_6" data-name="Layer 6"><path class="cls-4" d="M463,493.29l28.81-64.9s52.43-56.81,94.51-35.17c34.07,17.53,49.22,50.42,49.22,50.42S565.74,513.29,463,493.29Z"/><g id="Layer_5" data-name="Layer 5"><path class="cls-5" d="M422.32,374.47S397.71,397.2,402,417.69c3.52,16.69,21.62,23.67,32.05,28.64"/><path class="cls-5" d="M426.18,376.37S409,395.14,417.8,413.3s41.9,27.14,55.32,29.3"/><path class="cls-6" d="M506.44,426l-14.64,2.37-18.25-54.82s-13,8.95-26.48,8.09c-16.76-1.06-32.28-7.79-43.37-26.81s-10.87-36.51-11.27-50c-12.27-1.58-17.82-8.31-17-18s11.24-18.86,20.19-29.09c.32-22.91,14.35-50.89,19-59.39,0,0,50.48-20.37,108,11.91s33.21,159,33.21,159Z"/><ellipse cx="418.22" cy="270.14" rx="9.33" ry="5.13" transform="translate(92.49 646.69) rotate(-82)"/><path class="cls-3" d="M413.35,236.5c-1,1.65-1.58,3.77.63,5.58s10.68,8.61,13.64,10.21c1.54.83,3.35,1.53,5.29-.63,3-3.37-.88-5.76-.88-5.76l-13-9.44S415.29,233.61,413.35,236.5Z"/><path class="cls-7" d="M531.8,299s.1-6-5.62-5.86c-7.11.14-12.87,11.84-12.87,11.84s9.33-5.55,12.83-1.51"/><path class="cls-6" d="M503.54,342.65s-14.92,21.14-30,31.82c2.77,7.21,7,20.18,7,20.18S499.17,371.92,503.54,342.65Z"/><path class="cls-7" d="M503.54,342.65s-13.87,21.12-30,30.92"/><g id="Layer_3" data-name="Layer 3"><path class="cls-3" d="M440.75,206.7s-1.52,9.47,1.38,22.8,10.25,30.49,28,45.85c21.2,18.37,40.27,19.11,40.27,19.11s14.82-20.17,27-5.69c11.06,13.13.52,37.25-19.39,41.52,12.32,5,9,24.22-10,47.64s-10.39,54.76,10.59,69,50.18,11.09,68,4.48c25.61-9.49,47.27-32.06,53.44-38.73,7.8-8.44,25.33-39.23,11.9-67.11s-65.23-52.13-79.39-108.09c-5.09-20.12-14.12-32.3-16.49-34.56-1.77-1.69-14.15-6.05-33-9.24-19-3.23-75-8.24-98.67-2.69,0,0-16.33,3-8.72,8.25C422.25,203.75,440.75,206.7,440.75,206.7Z"/><path class="cls-8" d="M399.82,323.61s14.9-10.87,21.07,19"/><path class="cls-5" d="M519.81,284.66s-15-26.41-45.67-36.84c-20.85-7.08-32.51-29-32.51-29"/><path class="cls-5" d="M476.06,211.49s22.74,6.3,35.71,30.95,14.41,40.09,14.41,40.09"/><path class="cls-5" d="M513.3,213.17s15.86,16.24,15.21,43.32c-.57,24.81-.61,26-.61,26"/><path class="cls-5" d="M540,314.7s7.56,40.84,46.22,47.46c37.92,6.49,42.37,26.95,41,42.7C625.28,427,608.45,440,608.45,440"/><path class="cls-5" d="M549.52,404.61s7.86-23-11.61-31.06c-27-11.21-46.7,24.17-38.34,47.16"/><path class="cls-9" d="M557.36,206c-.41,6.21-30.82,9-71.8,6.26s-72.49-9.81-72.08-16,32.62-9.24,73.6-6.48S557.8,199.74,557.36,206Z"/></g><g id="Layer_7" data-name="Layer 7"><path class="cls-10" d="M476.06,174.88s-21.33,13.39-3.48,23.53,28.3-1.53,29.16-6.44,7.23-5.73-6.49-17.09-54.95-23.52-53.6-11.77,41.09,7.72,68.27-1.22,2.34-32.46-25.82-25.55-35,26.77-50,14.19,20.36-18.08,42-1.61,44.47,37.77,32.46,41.81-29.44-20.31-11.59-36.53,60.45-2,49.09,9.74-40.56,8.92-38.95-10.95,8.88-36.51,24.73-29.6-4,30-25.12,17.85-21.5-51.12-49.49-41-39.35,37.32-5.28,31.65,24.23-29.61,43.35-22.72,34,23.94,8.29,21.5-76.85-17.44-80.26,2.83,14.45,12.17,39.59,1.22S504.13,106,513.31,110s-.53,23.94-12.11,13.39S496,86.48,513.31,97s45.94,23.52,42.17,36.1-20.4,3.25-12.7-10.94,26.77,4.46,26.77,17.44-29.7,30-41,21.91S545.2,151,553.31,164s-24.78,28.19-36.51,19.46,10.13-2.79,18.05,7.33"/></g></g></g></g><g id="Layer_8" data-name="Layer 8"><path class="cls-6" d="M1050.52,286.45s-22,40.7-22.92,47.54-17.6,58-50.2,77c-20.66,12-40,0-40,0l-14.14,28.63s-53.13-35-71.66-27.65c13.18-27,46.92-68.86,47.4-86.9s-32.78-51.06-9.87-67.62,105.8-11.22,135.53,2.92S1050.52,286.45,1050.52,286.45Z"/><path class="cls-11" d="M1002.28,258.05s5.46,31.83,39.84,35c31.11,2.3,32.94-22.82,32.94-28.29s-2.51-15.4-11.46-20.78-64.9-37.74-146.37-41.7c-18.21-.88-45.18,45.18-46.52,74.19-1.29,27.62,13.81,39.53,5.36,62.95-4.9,13.58-12.27,16.51-6.13,23,7.51,8,13.06-1.67,16.88-8.38s15.65-37,15.65-37-22.63-20.75-7.49-43.52c12.06-15.84,24.73.36,27.6,8.06s2.87,18.71,11.47,20.51,16.58-7.86,20.16-13.23S966.49,254.1,1002.28,258.05Z"/><path class="cls-7" d="M905.39,289.65s8.7-2.91,12.22,12.85c0,0,2.91-8.62-3.32-18.56s-14.91-1.52-14.91-1.52"/><path class="cls-6" d="M1023.69,319.63s13.15,38.09,11.36,46.92-9.15,11.49-16.15,9.12c-5.35-1.81-16.31-7.47-16.31-7.47"/><path class="cls-12" d="M997.37,325.41s2.56,15,17,10"/><path class="cls-13" d="M999.86,311.7s13.75-4.65,23.92,0"/><path class="cls-14" d="M971.35,389.66s15.56-11.34,22-2.45"/><path class="cls-7" d="M937.42,411c-34.2-15.88-28.58-55.64-28.58-55.64"/><path class="cls-6" d="M908.84,363.81s-1.82,18.91-1.89,20c-.52,9.19-2.49,34.78,21.59,45.19,5.79-11.72,8.88-18,8.88-18S912.68,404.83,908.84,363.81Z"/><path class="cls-15" d="M818.65,438.34s11-38.43,58.12-23.07,60.42,45.83,104.83,62.64c15.75,6,36,10.26,36,10.26S914.51,524.92,818.65,438.34Z"/><g id="Layer_16" data-name="Layer 16"><path class="cls-16" d="M1071.65,253.53c-1.94,6.17-38.34.27-81.32-13.21S914.08,210.93,916,204.76s52.43,2.89,82.06,11.41C1039.1,228,1073.59,247.36,1071.65,253.53Z"/></g></g><g id="Layer_9" data-name="Layer 9"><line class="cls-17" x1="1043.63" y1="210.57" x2="1040.97" y2="215.24"/><line class="cls-17" x1="1059.54" y1="210.57" x2="1056.89" y2="215.24"/><line class="cls-17" x1="1075.08" y1="210.57" x2="1072.41" y2="215.24"/><line class="cls-17" x1="1087.57" y1="210.57" x2="1084.89" y2="215.24"/><line class="cls-17" x1="1029.86" y1="210.57" x2="1027.21" y2="215.24"/><line class="cls-17" x1="1048.43" y1="223.33" x2="1045.78" y2="228"/><line class="cls-17" x1="1064.35" y1="223.33" x2="1061.69" y2="228"/><line class="cls-17" x1="1079.89" y1="223.33" x2="1077.22" y2="228"/><line class="cls-17" x1="1034.67" y1="223.33" x2="1032.02" y2="228"/><line class="cls-17" x1="1040.43" y1="237.24" x2="1037.78" y2="241.9"/><line class="cls-17" x1="1056.37" y1="237.24" x2="1053.69" y2="241.9"/><line class="cls-17" x1="1071.89" y1="237.24" x2="1069.23" y2="241.9"/><line class="cls-17" x1="1026.69" y1="237.24" x2="1024.01" y2="241.9"/></g><g id="Layer_10" data-name="Layer 10"><line class="cls-17" x1="948.01" y1="192.97" x2="945.35" y2="197.64"/><line class="cls-17" x1="963.92" y1="192.97" x2="961.27" y2="197.64"/><line class="cls-17" x1="979.46" y1="192.97" x2="976.79" y2="197.64"/><line class="cls-17" x1="991.95" y1="192.97" x2="989.28" y2="197.64"/><line class="cls-17" x1="934.24" y1="192.97" x2="931.59" y2="197.64"/><line class="cls-17" x1="952.81" y1="205.73" x2="950.16" y2="210.39"/><line class="cls-17" x1="968.73" y1="205.73" x2="966.07" y2="210.39"/><line class="cls-17" x1="984.27" y1="205.73" x2="981.6" y2="210.39"/><line class="cls-17" x1="996.76" y1="205.73" x2="994.1" y2="210.39"/><line class="cls-17" x1="939.05" y1="205.73" x2="936.4" y2="210.39"/><line class="cls-17" x1="960.75" y1="219.63" x2="958.07" y2="224.3"/><line class="cls-17" x1="976.27" y1="219.63" x2="973.61" y2="224.3"/><line class="cls-17" x1="988.76" y1="219.63" x2="986.1" y2="224.3"/><line class="cls-17" x1="980.84" y1="229.14" x2="978.17" y2="233.81"/></g><g id="Layer_12" data-name="Layer 12"><path class="cls-18" d="M970.18,144h99.5s.14-13.22-9.94-16a21.94,21.94,0,0,0-17.93,3.09s9-8.62.2-13.82c-6.66-4-12.43,2.87-12.43,2.87s5.92-20.88-11-20.76c-17.65.14-12.77,20.62-12.77,20.62s-7.57-12.19-16.78-9.37-3,18.86-3,18.86-12.32-3.57-16.77.45S970.18,144,970.18,144Z"/><g id="Layer_11" data-name="Layer 11"><line class="cls-17" x1="995.93" y1="150" x2="993.26" y2="154.66"/><line class="cls-17" x1="1011.85" y1="150" x2="1009.19" y2="154.66"/><line class="cls-17" x1="1027.37" y1="150" x2="1024.71" y2="154.66"/><line class="cls-17" x1="1039.88" y1="150" x2="1037.2" y2="154.66"/><line class="cls-17" x1="982.17" y1="150" x2="979.5" y2="154.66"/><line class="cls-17" x1="1000.74" y1="162.75" x2="998.07" y2="167.42"/><line class="cls-17" x1="1016.66" y1="162.75" x2="1014" y2="167.42"/><line class="cls-17" x1="1032.18" y1="162.75" x2="1029.52" y2="167.42"/><line class="cls-17" x1="1044.68" y1="162.75" x2="1042.01" y2="167.42"/><line class="cls-17" x1="986.98" y1="162.75" x2="984.31" y2="167.42"/><line class="cls-17" x1="992.74" y1="176.68" x2="990.08" y2="181.33"/><line class="cls-17" x1="1008.65" y1="176.68" x2="1006" y2="181.33"/><line class="cls-17" x1="1024.19" y1="176.68" x2="1021.54" y2="181.33"/><line class="cls-17" x1="1036.68" y1="176.68" x2="1034.03" y2="181.33"/><line class="cls-17" x1="978.98" y1="176.68" x2="976.32" y2="181.33"/></g><path class="cls-18" d="M921.92,183.87h101.73s3.23-12-9.83-18.05c-16.45-7.64-27.45,6.07-27.45,6.07s.77-19.13-18.84-20c-18.57-.79-20.62,16.46-20.62,16.46s-7.73-9.15-18-4.58S921.92,183.87,921.92,183.87Z"/><path class="cls-18" d="M1019.31,204.15h88.46s-.37-12.53-9.4-14.16-14.78,5.64-14.78,5.64,7.26-16.8-4.38-20.42-15.67,8-15.67,8,2.6-21.64-8-20-9.44,25.21-9.44,25.21-22.72-6.78-26.74,5.81C1016.71,201.12,1019.31,204.15,1019.31,204.15Z"/></g><g id="Layer_14" data-name="Layer 14"><path class="cls-19" d="M561.78,884.59l70,49.63s-46.64,45-117.87,48.83c-46.73,2.49-70.34-5.91-70.34-5.91L467,964.08l7.95-9.38-1.31,9.38,89.46-72.9-1.29-6.59"/><g id="Layer_15" data-name="Layer 15"><path class="cls-20" d="M525.8,869.36s27.89-7.47,32-4.7-92.21,99.4-92.21,99.4l-12.43-35.9s8.29-14.36,22.37-23.47S525.8,869.36,525.8,869.36Z"/><g id="Layer_13" data-name="Layer 13"><path class="cls-3" d="M396.06,705s-9.66,17.89-7.45,45c-8.51,19.3-25.68,20.6-22.65,30.43,1.42,4.59,8,8.58,15.44,11.11-3,3.82-2.3,28.62,7.93,42.61,14.66,20,32.22,25.43,56.21,27.94C458.19,885.56,476,952.34,476,952.34l70.56-51.92S518.59,859.24,520,838.1s6.45-62,19.35-66.25S464.89,693.78,443,688.78,396.06,705,396.06,705Z"/><ellipse class="cls-21" cx="405.53" cy="751.34" rx="5.35" ry="9.26"/><path class="cls-22" d="M404.74,817.81c-.07,7.89-10,4.79-10,4.79s-8.86-2.86-5.67-19.35C389,803.25,404.83,809.23,404.74,817.81Z"/><path class="cls-23" d="M403.05,724.57s3.5,5.3,7.84,8.11a28.52,28.52,0,0,0,8.64,4.06"/><path class="cls-24" d="M456.52,888.56s29.66-20.51,26.88-49.22c-15.66,23.47-37.27,23.4-37.27,23.4Z"/><path class="cls-25" d="M486.92,832.27a51.78,51.78,0,0,1-41.36,29.82"/><path class="cls-26" d="M436.88,706.63c9.24,9.38,2.58,21,21.37,26.23s17.49,24.3,17.17,31.75,2.12,20.11,10.26,14.24,13.14-20.63,28.6-11c8.38,5.22,7.74,17,1.85,25s-19.93,10.44-19.93,10.44,8.52,35.51,29.39,39.39c18.46,3.44,16.94-10.1,13-13-3.39-2.44-7.57-3.42-11-12.9A36.31,36.31,0,0,1,526,803.27s6.44,20.37,17.49,19.67c8.58-.56,7.16-6.32,5.69-9.19s-8-5.42-9.91-15.77c7.33,11.77,17.3,16.29,24.75,15.27s16.52-8,9.06-17.42-13.71-7.52-15.36-29.25a38.68,38.68,0,0,1,1.63-13s16.15,7,22.32,1.33c7.25-6.71-7.28-6.43-17.24-18.14-5.06-6-10-14.25-10.28-30.13s-103.21-31.08-116.67-31.51-42.16-2.4-38.11,4.07-11.95,11.29-29.08,5.35c-11.87-4.11-20.21,10.75-4.63,19.5s24.33,4.22,37.43.65S427.64,697.25,436.88,706.63Z"/><path class="cls-25" d="M510.43,787.43s2.83-9.53-2.52-11c-9.54-2.69-13.53,7.68-13.53,7.68s5.91-4.86,8.4-.66"/><path class="cls-27" d="M553.49,704.89c-.77,4.84-36.48,0-78.68-6.71s-75.81-16-75-20.89,35.74-4.16,77.82,3.32C525.52,689.14,554.26,700.05,553.49,704.89Z"/><path class="cls-28" d="M557.83,864.67l5.24,26.51-87.81,70.41-1.65-33.41S535.47,894.21,557.83,864.67Z"/><g id="Layer_23" data-name="Layer 23"><path class="cls-29" d="M444.2,608.68c1-6,18.21-15.41,25.67.48,4.15,10.3-3.48,17.46-10.06,20.12-2.55,1-10.8,1.63-11.59,10.75"/><path class="cls-30" d="M568.72,622c2.53-2.93,15-2.26,13.71,8.83-1.18,6.94-7.7,8.27-12.15,7.5-1.72-.29-6.38-2.73-9.85,1.93"/><path class="cls-31" d="M471.27,646.43c-.86-1.24.7-6,4.79-4.48,2.53,1.07,2.35,3.69,1.6,5.34-.29.63-1.7,2.21-.29,4"/><circle class="cls-15" cx="447.68" cy="650.72" r="4.31"/><circle class="cls-15" cx="521.14" cy="641.16" r="3.07"/><circle class="cls-15" cx="554.91" cy="646.66" r="3.07"/><circle class="cls-15" cx="499.28" cy="687.13" r="3.7"/><path class="cls-32" d="M499.28,655.58s7.54-10.49,14.81-5c7.64,5.76,3.69,16.4-6.43,19.61-4.9,1.56-6.42,6.69-6.42,6.69"/><ellipse class="cls-15" cx="467.45" cy="691.29" rx="2.73" ry="2.66" transform="translate(-285.25 330.96) rotate(-30.35)"/><ellipse class="cls-15" cx="499.24" cy="637.46" rx="1.79" ry="1.74" transform="translate(-253.69 339.65) rotate(-30.35)"/><ellipse class="cls-15" cx="479.88" cy="654.72" rx="1.79" ry="1.74" transform="translate(-265.07 332.23) rotate(-30.35)"/><path class="cls-30" d="M456.08,671.82s1-9.29,7.57-8.59c6.94.71,8.29,8.75,3,14.51a7.77,7.77,0,0,0-1.67,6.53"/><path class="cls-31" d="M492.48,625.19s.58-5.44,4.43-5.05c4.06.43,4.85,5.14,1.78,8.51a4.54,4.54,0,0,0-1,3.82"/><path class="cls-30" d="M523,616.27c0-6.32,13.37-9.1,13.62,1s-9.29,7.07-11.77,12-1.4,3-1.4,3"/><circle class="cls-15" cx="424.92" cy="665.78" r="3.07" transform="translate(-294.26 992.27) rotate(-81.87)"/><path class="cls-32" d="M404.45,651.47c-7.08-4.75-3.24-13.15,4.88-11.43,7.75,1.64,4.27,11.83,7.27,16.51s1.85,2.71,1.85,2.71"/><path class="cls-30" d="M551.64,663.05c2-2.43,11.09-2.35,10.19,6.73-.88,5.68-5,7.17-8.7,6.6-1.4-.22-5.26-2.14-8,1.72"/><circle class="cls-15" cx="541.29" cy="684.72" r="2.62"/><path class="cls-31" d="M570.57,683.54c1.78-.68,6.51,2,3.41,6.49-2.12,2.75-4.74,2.3-6.5,1-.68-.52-2.13-2.65-4.71-1.41"/><circle class="cls-15" cx="558.84" cy="691.92" r="1.58"/></g></g></g></g><g id="Layer_19" data-name="Layer 19"><path class="cls-33" d="M965.93,981.77S932,909.39,885.31,878s-75.45,36.51-75.45,36.51S870.64,983.67,965.93,981.77Z"/><g id="Layer_18" data-name="Layer 18"><path class="cls-6" d="M1020.84,670.42s16.09,30.79,20.63,67.74c22.65,20.2,21,29.67,21,29.67s-5.23,7.52-23.69,14.5c-.48,15.58-8.38,53.24-26.66,65.57-10.73,7.25-30.06,10.48-46.49,4-8.42-3.33-33.86,52.86-35.26,75.15s-5.92,39.73-39.73,0-59.23-67.25-42.85-94.76,62.43-40.5,62.43-40.5-46.8-4.57-26.86-40.58c12.75-23.08,33.43,7.23,33.43,7.23s-17.07-65.85,3.48-65.5S1008.3,669.36,1020.84,670.42Z"/><path class="cls-34" d="M1022.85,715.8s-10.27-3.19-21.46,7.54"/><path class="cls-35" d="M1008.71,743.54s3.86,4.61,11.54,3.3c5.16-.88,6.54-7,6.54-7"/><path class="cls-8" d="M1007.79,800.8s15.63,20.33,27.87,2.29"/><path class="cls-7" d="M890.82,761.14s4.74-10.76,13.76-6.19S913,771.6,913,771.6s-9.33-11.8-13.7,0"/><path class="cls-36" d="M1008.87,678.66s-6.78,31-63.73,55.17c-27,11.45-25.95,28.75-25.95,28.75s-18.57-33.54-33.32-11.2c-21,31.85,24.37,40.37,24.37,40.37s-26.42,50.35-20.24,94c2.29,16.31,9,32.51,23,46.27,50.84,49.74,69.73,48.88,69.73,48.88S893.23,996.77,813,917.86c-34.09-38-39.82-57.76-39.82-57.76s50.89-43.91,61.46-88.48,19.27-82.9,29.21-97.92,126.7-16,154.74-4.32C1029.54,674.78,1008.87,678.66,1008.87,678.66Z"/><ellipse class="cls-36" cx="944.49" cy="672.5" rx="77.23" ry="11.14"/><ellipse class="cls-37" cx="944.49" cy="672.5" rx="77.23" ry="11.14"/><path class="cls-38" d="M949.84,683.65s-5.78,28.61-41.49,63.44"/><path class="cls-38" d="M897.51,681.35s-18.53,3.34-30.23,51.84C845.87,821.9,789.1,885.94,789.1,885.94"/><path class="cls-38" d="M906.54,792.9C831.09,922.06,936.43,979,936.43,979"/><path class="cls-38" d="M864.7,954.87s-10.25-60.28,22.64-120.52"/><path class="cls-38" d="M846.32,943.7s3.84-37.36,25.62-72.26"/><path class="cls-7" d="M963.89,851.07c-23-13.4-31.49-29.23-31.49-29.23"/><path class="cls-6" d="M931.37,818.87s-11,40.51,15.38,58c8.67-18.43,17.3-25.19,17.3-25.19S945.22,845.58,931.37,818.87Z"/><path class="cls-39" d="M981.85,681.35s3.51-8.17,15.55-31.06,3-49.54,3-49.54,4.74,19.21-9.07,40.3-17.09,34.7-13,39.44C981,683.65,981.85,681.35,981.85,681.35Z"/><path class="cls-33" d="M941.89,586.54s-8.26,26.73,1.4,49.59-4,43.3-12.2,47.23c11.23-12.94,2-39.93,0-48.41S928.5,618.62,941.89,586.54Z"/><path class="cls-40" d="M903.72,594.38s1.37,34.27,10.68,43.35,12.42,6.55,14.71,22.84C932.41,624.38,917.41,615.16,903.72,594.38Z"/><path class="cls-39" d="M886.3,582s-30.47,39.69-15.93,68.31a64.55,64.55,0,0,0,30.25,29.3S902,666,893.24,650.5C885.49,636.76,877.2,615.34,886.3,582Z"/><path class="cls-41" d="M883.61,588.92s-15.52,25.43,1.54,55.56c12.49,22,15.54,36.26,15.54,36.26"/><path class="cls-33" d="M795.76,656.87s26.68-19,49.27-7.35,28.37,27.32,28.37,27.32l4.79,1.37s-8-34.15-35.33-40.48S795.76,656.87,795.76,656.87Z"/><path class="cls-40" d="M849.19,615.1c.77-1.34,45.67,26.83,31.76,63.72C870.17,662.81,868.5,636.49,849.19,615.1Z"/><path class="cls-41" d="M1019.42,621s-15.75,9.51-15.23,32c.62,26.6-18.43,27.69-18.43,27.69"/><g id="Layer_22" data-name="Layer 22"><path class="cls-42" d="M990.57,577.65s-37,24.05-28.73,104.65"/><path class="cls-43" d="M986.14,575.54s-5.71,5.69-5.12,10"/><path class="cls-43" d="M977.5,579.83s-3.71,6.11,0,11.44"/><path class="cls-43" d="M971.78,586.54a11.67,11.67,0,0,0,.49,13.06"/><path class="cls-43" d="M965.77,593.07s-2,8.65,3.66,13.71"/><path class="cls-43" d="M960.75,599.6s-.35,9.63,5,16.54"/><path class="cls-43" d="M958.31,610.62s.5,11.35,4.93,15.84"/><path class="cls-43" d="M954.61,619.7s.38,11.12,7.28,18"/><path class="cls-43" d="M952.6,632.09s2.33,8.17,8.2,13.5"/><path class="cls-43" d="M951.4,643.65s3.05,8.34,8.88,12.22"/><path class="cls-43" d="M951.4,653s1.13,11.77,8.72,16.91"/><path class="cls-43" d="M990.12,582s-3.46,4.45-8,3.84"/><path class="cls-43" d="M988.9,586.54s-4,5.25-10.16,4.86"/><path class="cls-43" d="M987.39,593.07s-3,5.69-13.69,6.19"/><path class="cls-43" d="M982.13,602.45A14.62,14.62,0,0,1,970,606.78"/><path class="cls-43" d="M981,608.64s-6.26,6.68-12.09,3.7"/><path class="cls-43" d="M980.34,614.33s-6.89,7.64-13.8,4.63"/><path class="cls-43" d="M979.82,619.7s-9.49,11.78-15.93,8.5"/><path class="cls-43" d="M979.82,626.46s-9.6,12.36-16.56,11.2"/><path class="cls-43" d="M975.6,638.32S968.21,649,961.73,649"/><path class="cls-43" d="M975.6,645.46s-8.79,9.31-13.49,8.58"/><path class="cls-43" d="M971.15,655.87s-5.92,6.1-10.08,5.87"/><path class="cls-44" d="M921.76,682.3s9.4-10.43,6.44-32"/><path class="cls-42" d="M895.58,616.14c.64.6,26.28,57.1,19.72,66"/><path class="cls-43" d="M890.05,613.52s2.71,7.49,7.46,8.81"/><path class="cls-43" d="M889,621s7.54,8.75,11.86,7.82"/><path class="cls-43" d="M894.79,637.73s7.91,7.36,12.45,6.73"/><path class="cls-43" d="M900.62,653a19.34,19.34,0,0,0,11.43,5.76"/><path class="cls-43" d="M902.72,662.76s6.94,4.18,11,2.78"/><path class="cls-43" d="M898.48,611.6s1.94,5.53,0,9.41"/><path class="cls-43" d="M903.72,618.53a24.21,24.21,0,0,1-2.26,8.94"/><path class="cls-43" d="M905.88,626.46s2.71,6.85-.76,10.26-13.42-6.2-13.42-6.2"/><path class="cls-43" d="M910.61,636s.58,5.45-3.37,8.47"/><path class="cls-43" d="M914.92,640.49s.88,9.82-5.2,10.77c-3.93.61-11.24-5.67-11.24-5.67"/><path class="cls-43" d="M917.88,648.44a16.62,16.62,0,0,1-4.2,11.77"/><path class="cls-43" d="M921.76,658.79s-.42,8.19-5.41,10.52"/><path class="cls-43" d="M922.67,669.94s0,7.17-6,9.69"/><g id="Layer_17" data-name="Layer 17"><path class="cls-33" d="M1009.71,674.24c9.75-35.4,49.49-47.47,49.49-47.47s-21.53-6.79-41.29,13c-17.2,17.21-9.17,39.08-9.17,39.08Z"/></g></g></g></g></g></g></svg>