<svg xmlns="http://www.w3.org/2000/svg" xmlns:xlink="http://www.w3.org/1999/xlink" viewBox="0 0 1459.13 1060.09"><defs><style>.cls-1,.cls-10,.cls-12,.cls-13,.cls-16,.cls-18,.cls-19,.cls-21{fill:none;}.cls-17,.cls-2{isolation:isolate;}.cls-3{fill:#ede4dd;}.cls-4{fill:#e69866;}.cls-5{fill:#fdca60;}.cls-6{clip-path:url(#clip-path);}.cls-7{fill:#bfdde8;}.cls-8{fill:#828282;mix-blend-mode:screen;}.cls-9{fill:#e7b4af;}.cls-10{stroke:#532413;}.cls-10,.cls-13,.cls-16,.cls-18,.cls-21{stroke-linecap:round;stroke-linejoin:round;}.cls-10,.cls-12,.cls-13,.cls-16{stroke-width:1.5px;}.cls-11{fill:#565797;}.cls-12,.cls-13,.cls-21{stroke:#fff;}.cls-12,.cls-19{stroke-miterlimit:10;}.cls-12{stroke-dasharray:12;}.cls-14{fill:#e65658;}.cls-15{fill:#1d1e40;}.cls-16{stroke:#612a29;}.cls-17{fill:#931a1d;opacity:0.69;}.cls-18{stroke:#000;stroke-width:3px;}.cls-19{stroke:#828282;}.cls-20{fill:#eeb6ab;}</style><clipPath id="clip-path"><ellipse class="cls-1" cx="774.11" cy="500.58" rx="285.91" ry="368.55"/></clipPath></defs><g class="cls-2"><g id="Layer_1" data-name="Layer 1"><g id="Layer_14" data-name="Layer 14"><path class="cls-3" d="M1070.68,797.57c55.2-81.22,126-324.92,7.49-472.46S622.56,225.67,510.86,153.5s-231.4-21.92-183.48,150c54.95,197.1-28.13,315.23,54.95,396.93s332,222.24,423.73,222.26C965.68,922.7,1031.08,855.84,1070.68,797.57Z"/></g><g id="Layer_13" data-name="Layer 13"><ellipse class="cls-4" cx="774.68" cy="500.58" rx="304.5" ry="394.68"/><ellipse class="cls-5" cx="773.68" cy="500.58" rx="294.14" ry="381.25"/></g><g id="Layer_9" data-name="Layer 9"><g class="cls-6"><ellipse class="cls-7" cx="774.11" cy="500.58" rx="285.91" ry="368.55"/></g><g class="cls-6"><path class="cls-8" d="M923.07,116.71S778.21,173.35,717.22,259,673,384.22,559.56,395.71s-177,32.12-169.85,72.85,94.32,99,169.08,69.67S676.33,413.5,751.92,391.5s139.57-31.05,145.57-106.65,37.28-108.65,72.58-120.11S923.07,116.71,923.07,116.71Z"/></g><g class="cls-6"><path class="cls-8" d="M1088.48,485.37s-59.67,36.81-120.66,122.43S862.54,638.89,792,728.42c-60.31,76.52-170.16,44.15-163.06,84.88s20.52,122.94,95.27,93.61S841.73,782.18,917.32,760.17s159-41,165-116.63,17.82-98.67,53.12-110.13S1088.48,485.37,1088.48,485.37Z"/></g></g><g id="Layer_5" data-name="Layer 5"><path class="cls-9" d="M818.51,431.35s58.74-7.1,70.17,6,21.76,50.11,21.76,50.11,12,2.85,25,15.9,31.76,34.9,30.12,52.29-1.08,52.63-21.74,57.52-52.44,1.28-62.77-17.08-87.57,16.46-93,14.28,19.58,32.09-7.07,33.72-46.23-12-49-38.07-10.88-105,0-119.66,27.46-46.38,40.65-49S818.51,431.35,818.51,431.35Z"/><path class="cls-10" d="M910.43,487.49s4.27,15.5,2,28.59c0,0,24.08,13.77,31.41,39.61"/><path class="cls-11" d="M856.39,429.5s-11.75,9.63-14.55,46.82-3,52.75,6.34,74.66,40.7,54.34,51.78,59.44c19.57,9,35.48,4.24,35.48,4.24s19.63,147.92,22.85,166.24c-6.06,12.63-65.6,66.59-128.13,81.15-45.14,10.51-89.38,4.61-89.38,4.61s-39.3-144.12,28.43-208.56c24.58-23.39,13.63-26.52,13.63-31.39s-24.45-31.81-19.58-65.89c-2.7-8.36-16.39-24-12.63-54.16,7.3-29.7,18.59-68,18.59-68l9.46-3.07-9.46,55.5,65.93-1s-3.26-42.89,10.54-60.63C853.57,429.43,856.39,429.5,856.39,429.5Z"/><path class="cls-12" d="M908.13,613.49s9.81,1.55,4.29,21.77S953,725.91,935.2,805.1"/><path class="cls-10" d="M923.81,524.73s14.9,17.82,11,38.16"/><path class="cls-13" d="M769.22,559.31s20.33,24.46,62.45,11.86"/><path class="cls-13" d="M781,622.45s37.1,26.93,72.75,13.36"/><g id="Layer_8" data-name="Layer 8"><path class="cls-9" d="M845.69,403.27l-12.47,30.24s-5.29,14.84-18.9,8-16.25-19.33-14-24.24,15.31-30.06,15.31-30.06Z"/><path class="cls-9" d="M849.36,400.62s-10.49,16-16.56,17.94S813.74,408,814,393.89,849.36,400.62,849.36,400.62Z"/><path class="cls-9" d="M813.3,373s1.36,38.62,31.42,32.62c29.13-5.82,23.18-63.35,23.18-63.35s1.66-20.49-38.59-27.36S813.3,373,813.3,373Z"/><path class="cls-14" d="M788.05,417.67s9.06,14.5,29.43,16.78c17.41,1.95,33.78-4.37,26.4-7.14-4.26-1.6-3.47,0-16.88.58-5.25.21-19.24-2.16-25.08-10.22S788.05,417.67,788.05,417.67Z"/><path class="cls-15" d="M818.31,345.86l54.9-.13s-2.6-35.54-35-41-60.12,6.13-63.07,47.48c-2.13,29.8-1.82,185.32,0,201.68s38.16,5.41,38.16,5.41Z"/><path class="cls-16" d="M846.68,357.6s8.74,13.5,6.83,16.38-9.7,1.19-9.7,1.19"/><ellipse cx="830.17" cy="361.51" rx="3.35" ry="6.7" transform="translate(-17.93 44.34) rotate(-3.03)"/><ellipse cx="855.75" cy="360.35" rx="3.35" ry="6.7"/><path class="cls-17" d="M841.84,393.9s5.77-11.19,12.88-8.39"/><path class="cls-18" d="M824.86,353.23s5.83-4.5,10.62-3.72"/><path class="cls-18" d="M861.94,353.23s-4.74-4.67-9.54-4"/><path class="cls-19" d="M831.46,303.85s-31.41,18.4-27.24,70.17-.38,187.51-.38,187.51"/><path class="cls-19" d="M831.46,303.85c-9.79-.54-38,8.61-36.4,74.62-.86,15.43,4.07,184.15,4.84,183.71"/></g></g><g id="Layer_7" data-name="Layer 7"><path class="cls-20" d="M453.78,445.73s36.33-16.3,65.19-13.56c27.74,2.63,75-8.38,98.18,17.44s-11.57,71.67-11.57,71.67-146-7.57-146-19.59S453.78,445.73,453.78,445.73Z"/><g id="Layer_15" data-name="Layer 15"><polygon class="cls-20" points="510.86 795.67 528.59 954.18 610.48 954.18 610.48 847.54 510.86 795.67"/><polygon class="cls-9" points="506.22 754.23 526.22 932.93 610.48 942.11 610.48 806.06 506.22 754.23"/><polygon class="cls-20" points="425.76 887.2 426.88 954.18 498.33 954.18 516.42 843.16 425.76 887.2"/><polygon class="cls-9" points="425.25 880.84 426.61 938.15 502.39 927.93 515.12 851.18 425.25 880.84"/><g id="Layer_6" data-name="Layer 6"><path class="cls-11" d="M563,498.09c13.25,0,9.89-61.71,21.25-66.25,2.51.58,4.29,1,8.06,2.14-2.46,2.9-8.51,56.79-5.55,59.76s22.66,12.75,25.86,16.5-33.87,119.67-33.87,119.67l33.76,74.21,15.9,207.46S455.91,916.32,417.87,909c2-78.62,47.87-274.65,47.87-274.65l-8.39-61.92-6.5-37.24,10-40.53,9.37-4.08s1.59-58.56,8.6-55.16c.44.21,7,.43,6.91,1.11-3.29,18.35-3.07,49.06-2.26,56.11C484.33,500.17,544.06,498.07,563,498.09Z"/><polyline class="cls-12" points="593.23 511.87 557.61 626.05 593.23 703.24 598.32 909"/><g id="Layer_4" data-name="Layer 4"><path class="cls-20" d="M558.38,384.84s-2.63,13.71-.56,26.87,17,20.73,13.47,27.38c-3.39,6.39-17.9,15.11-38.17,13.49-18.2-1.45-25.83-25.23-14.56-35.22s13.9-41.54,13.9-41.54Z"/><path class="cls-20" d="M601.37,496c-2.73-3.83-5.91-12.1-8.14-21.19-4.68-19.12-5.12-41.86,11.77-34.59,36.36,15.66,42.4,51.43,72.66,87S707,590,698.88,594.45c-15.31,8.48-136.9-17.77-144.11-18.73s-11.62,9.07-30.69,6.19-13.7-6.45-26.19-6.45-.75-11.18,9.79-8.2c1.52.43,7.59,3,9.79,2.93,3.24-.16,1.71-9.37-22.53-12.73S475,553.41,475,547.16s-3.51-7.48,8.82-10.84,26.64-12,32-8.17,23.59,12.49,28.87,18.73,68.21,11.53,87.91,9.61,22.58-.48,22.58-.48S617.22,518.2,601.37,496Z"/><path class="cls-20" d="M453.78,445.73S437,462.92,434,500.57,426.85,572,425.7,572s-13.64,8.7-23.24,4.09-10-13.45-11.91-17.67-11.14-7.68-11.14-7.68l-10,3.84-13.83-11.53-11.36,4.07s-.66,6.61,1.65,9.68-4.66,5.66-.69,11.85c3.87,6-6.28,5.83-.3,12.74s3.68,10,6.37,12.68,37,2,42.83,2c4.08,0,36.22,15.5,47.13,16.3,5.5.41,13.12.57,17-15.95s-7.68-49.58-7.3-61.29,8.45-32.07,10-40.53S482.21,437.28,453.78,445.73Z"/><path class="cls-10" d="M672.58,562.92a50.23,50.23,0,0,0-19.2-7.23"/><path class="cls-10" d="M448.29,582.41s-5.92-16.78-22.28-10.06"/><path class="cls-9" d="M557.61,381.29s-.11,43-34.38,56.09c-10.92,4.16-38.73-6-38.73-6Z"/><path class="cls-10" d="M597.92,483.24s0,17.34,12.56,26.28"/><line class="cls-10" x1="459.85" y1="483.24" x2="460.85" y2="494.67"/><path class="cls-16" d="M489.37,535.76s.61,3.45,7.94,3.35a12.13,12.13,0,0,0,8.79-3.66s11.65,5,13.86,5.82"/><path class="cls-16" d="M474.58,542.94s5.25,3,8.82,1.29c3.21-1.52,6.14,1.84,11.07-2.14,0,0,6.91,3.6,12.26,1.43,1.74-.7,9.38,3.88,9.38,3.88"/><path class="cls-16" d="M475.59,548.29s2.89,1.79,8.82,0,10.77,2.6,13.8,1.78S510.86,553,510.86,553"/><path class="cls-10" d="M368.85,557s-.66,3.62,4.11,4.11a18.19,18.19,0,0,0,9.37-2.06"/><path class="cls-10" d="M375.58,565.34s-3.6,11.79,6.76,17.07"/><path class="cls-10" d="M345.83,552.18s9.54,13,14.8,12.17-3.95-15.45-3.95-15.45"/><path class="cls-10" d="M351.41,585s12.5,1.74,16.28,3.87-2.63,5.1-8.14,4.93"/><path class="cls-10" d="M344.61,574.29s23.87,4.07,25.21,8-22.9,1.77-22.9,1.77"/><path class="cls-10" d="M345.18,568.69s15.67,4.91,19.3,5.19c5.39.42,4.73-1.8,1.39-4.86-2.26-2.07-19.67-10-19.67-10"/><path class="cls-14" d="M503.58,428s9.06,14.5,29.43,16.78c17.41,1.95,39-8.52,34.93-15.29s-12,5.3-25.4,5.85c-5.25.21-19.26.72-25.1-7.34S503.58,428,503.58,428Z"/><path class="cls-21" d="M554.77,575.72c14.07-12.7.79-24.89.79-24.89"/><path class="cls-21" d="M563.26,552.25s9.55,2.11,7.44,13.84c-2.49,13.83-13.09,9.63-13.09,9.63s7.55-1.48,8.3-10.83-8.3-13.64-8.3-13.64"/><path class="cls-21" d="M554.46,550.44s5.15,15.33-1.65,25.28"/><g id="Layer_3" data-name="Layer 3"><path class="cls-20" d="M565.15,294.63s31.31,12.92,21.48,57.87c-4.1,18.75-13.4,35.31-28.69,36.8-10.49,1-18.78,2.17-24.33-6.25-12.31-18.7-29.11-62.88-17.25-77.93S553.87,288.68,565.15,294.63Z"/><path class="cls-9" d="M584.4,339.32s9.73,15,7.6,18.22-10.8,1.32-10.8,1.32"/><path class="cls-15" d="M574.1,328h18.83s6.71-34.8-43.24-41.7S495,318.41,494.64,328.16s-1.17,78-7.8,83.12-12.1,21.85-3.9,24.58,37.57,3.12,51.18-10.54,24.9-45,26.91-72.68c1-14,2.54-24.27,2.54-24.27Z"/><ellipse cx="580.17" cy="342.74" rx="6.7" ry="3.35" transform="translate(165.08 873.56) rotate(-82.55)"/><path class="cls-17" d="M569.64,374s3.45-6.69,7.7-5S569.64,374,569.64,374Z"/><path class="cls-18" d="M575.08,333.88a11.46,11.46,0,0,1,8.48-2.31"/><path class="cls-19" d="M556.72,287.51c-6.26-.22-4.14,14-4.14,14s6.39,61.62-10,92.38-50.31,30.68-58,24.87"/><path class="cls-19" d="M488.21,409.83c72.73-.59,59.62-108.31,59.62-108.31s-1.55-14,8.23-14"/></g></g></g></g></g></g></g></svg>