<svg xmlns="http://www.w3.org/2000/svg" xmlns:xlink="http://www.w3.org/1999/xlink" viewBox="0 0 1459.13 1060.09"><defs><style>.cls-1,.cls-10,.cls-12,.cls-13,.cls-15,.cls-16,.cls-17,.cls-19,.cls-23,.cls-8{fill:none;}.cls-2{isolation:isolate;}.cls-3{fill:#ede3dc;}.cls-4,.cls-5{fill:#e69766;}.cls-5{opacity:0.59;}.cls-20,.cls-5,.cls-7{mix-blend-mode:multiply;}.cls-6,.cls-7{fill:#eeb5aa;}.cls-8{stroke:#511918;}.cls-10,.cls-12,.cls-15,.cls-16,.cls-17,.cls-19,.cls-23,.cls-8{stroke-linecap:round;stroke-linejoin:round;}.cls-12,.cls-13,.cls-15,.cls-16,.cls-17,.cls-19,.cls-8{stroke-width:1.93px;}.cls-9{fill:#a95e32;}.cls-10{stroke:#000;stroke-width:3.87px;}.cls-11{fill:#cb4746;}.cls-12,.cls-13{stroke:#a95e32;}.cls-13{stroke-miterlimit:10;}.cls-14{fill:#565797;}.cls-15,.cls-16,.cls-17,.cls-23{stroke:#fff;}.cls-16{stroke-dasharray:9.2 9.2;}.cls-17{stroke-dasharray:9.66;}.cls-18,.cls-20{fill:#fdca5d;}.cls-19{stroke:#565797;}.cls-21{clip-path:url(#clip-path);}.cls-22{fill:#fff;}.cls-23{stroke-width:9.66px;}.cls-24{clip-path:url(#clip-path-2);}</style><clipPath id="clip-path"><path class="cls-1" d="M815.16,821.21s45.49,67.95,58.53,75.13c-16.4,8.22-212,80.39-212,80.39s-86.3.45-115.22-10.55c-12.37-4.7-22.86-15.9-27.09-34.28-27.52-119.53,111-20.15,132.41-44.67,32.55-37.24,70.75-13.27,97.31-27S815.16,821.21,815.16,821.21Z"/></clipPath><clipPath id="clip-path-2"><path class="cls-1" d="M704.05,823.68s-53.95,65.18-67.24,71.87C650.16,902,758.2,932,795.49,950.49c11,5.45,37.1,5.36,50.64,9.45,23.36,5.2,39.36,18.63,70.24,16.57,20.93-1.39,51.24-20.26,56.73-44.61,12.23-54.3-77.66-27.64-109.5-34.5-23.37-5-43.54-.26-96.25-30.6C741.43,851.88,704.05,823.68,704.05,823.68Z"/></clipPath></defs><g class="cls-2"><g id="Layer_14" data-name="Layer 14"><ellipse class="cls-3" cx="749.14" cy="917.78" rx="513.83" ry="88.25"/></g><g id="Layer_10" data-name="Layer 10"><path class="cls-3" d="M823.83,150.23S820.69,375.3,811.6,432.59s127.32-31.52,138.23,28.57S922.55,698,943,722.16s-152.32,75.89-160.73,77.3-406.53-56-406.53-56-44-171-97.1-37.68c-56.34-61.14-46.3-134.09-46.3-134.09L486.56,416l55-163.5,140-102.3,87-47.37Z"/><path class="cls-4" d="M823.83,151.62S820.69,376.69,811.6,434s127.32-31.51,138.23,28.57-27.28,236.85-6.82,261-152.32,75.9-160.73,77.31-406.53-56-406.53-56-44-170.95-97.1-37.69c-56.34-61.13-46.3-134.09-46.3-134.09L486.56,417.43l55-163.5,140-102.31,87-47.37Z"/><path class="cls-5" d="M823.83,151.62S820.69,376.69,811.6,434s127.32-31.51,138.23,28.57-27.28,236.85-6.82,261-152.32,75.9-160.73,77.31-406.53-56-406.53-56-44-170.95-97.1-37.69c-56.34-61.13-46.3-134.09-46.3-134.09L486.56,417.43l55-163.5,140-102.31,87-47.37Z"/><g id="Layer_5" data-name="Layer 5"><path class="cls-6" d="M780.42,262.87s-7.53,49.82,16.35,69.8c12.2,10.22-21.29,41.48-52.84,39.37-31.71-2.12-62.46-39.74-49.73-41.18,25-2.82,24.2-62.18,24.2-62.18S750.91,220.84,780.42,262.87Z"/><path class="cls-7" d="M782.28,265s-13.93,58.63-68.09,40.4c3-9.52,4.53-31.45,4.53-31.45Z"/><path class="cls-6" d="M803.23,232.91s-10,53.91-58.75,53.39c-41.59-.45-56.85-53.39-56.85-53.39S670.29,235,667.3,215c-3.09-20.56,16.1-16.09,16.1-16.09s-14.28-79.2,24.14-102.84c33.89-20.86,87.26-10.29,100.67,29.06s1.37,72.44,1.37,72.44,17.93-1,13.57,19.19C819.89,231.83,811.09,232.52,803.23,232.91Z"/><path class="cls-8" d="M745.19,190.66s-17.86,30.3,7.25,25.63"/><path class="cls-9" d="M786,176.14c2.21,3.12,7.55.46,4.71-4.24-4.06-6.74-16.15-10.25-25.16-5.84-7.85,3.84-3.17,8.63.31,6.48C772.12,168.64,781.8,170.27,786,176.14Z"/><path class="cls-9" d="M707,176.14c-2.21,3.12-7.55.46-4.71-4.24,4.06-6.74,16.15-10.25,25.16-5.84,7.85,3.84,3.17,8.63-.31,6.48C720.86,168.64,711.18,170.27,707,176.14Z"/><path class="cls-10" d="M765,190.66s2.74,7.94,11.36,7.65,9.49-7.65,9.49-7.65"/><path class="cls-10" d="M704.43,190.66s2.73,7.94,11.35,7.65,9.5-7.65,9.5-7.65"/><path class="cls-11" d="M734.57,233.26a12.91,12.91,0,0,0,12.37,7.94,13.16,13.16,0,0,0,12.36-7.94"/><path class="cls-8" d="M674.43,210.24s4-4.73,10,1.74c0,0-5.51-13.39-11.45-6.72"/><g id="Layer_7" data-name="Layer 7"><path class="cls-4" d="M777.92,114S775.43,146,680.86,170.8c-82.68,21.7-113.15,119.7-115.73,189-4.59,123.35-143.47,152-206.47,167.28s-134.42,88.25-80,178.73c0,0-185.95-121.18-2.68-197.54S433.59,384.9,471.65,258.18C499.91,164.1,576,199.84,624.07,164.1s64.24-91.65,107.68-78.49S777.92,114,777.92,114Z"/><path class="cls-4" d="M777.92,114S805,150.1,805.35,198.31,761.68,304.22,803.25,335s112.06,147.75,97.82,250.84S925,740.74,948.35,748.14,1101,725.42,1101,725.42,987,666.7,1000.41,554.5s-4.22-169.73-48.65-209.6S824,319.21,833.65,241.2,828.13,126.59,795.79,100c-30.34-24.95-64-14.38-64-14.38S775.43,99.93,777.92,114Z"/><path class="cls-12" d="M756.37,95.75s-31.09-4.36-46.14,37.49c-9.87,27.45-82.8,26.74-141.63,65.07C496.06,245.58,570,413,490.89,434.57,346.55,474,216,528.59,227.3,621.14c8.17,67.06,51.35,84.67,51.35,84.67-39.78-25.07-40.21-102.51-7.95-152.69,53.83-83.72,188.92-94,239.72-118.53s26.17-107.72,62.15-193.39C608.09,156.6,688.8,172.36,718.15,140c32.88-36.22,50.41-32.63,50.41-32.63"/><path class="cls-13" d="M736.51,88.75s-40.23-3.14-52.12,35.79c-12.11,39.63-109.75,58-109.75,58S472,198,486.56,286.3c16.89,102.44-26.44,149-77.11,166.27-57.85,19.78-229.52,84.87-203.56,172.52,11.7,39.51,72.76,80.72,72.76,80.72"/><g id="Layer_8" data-name="Layer 8"><path class="cls-6" d="M987.85,687.44S1110,654,1139.29,682.65s-8,97.58-8,97.58l-200,19.23Z"/><path class="cls-6" d="M375.75,682.65s12-21.95,95.59-8,140,31.18,140,31.18l12.73,66.38L475,756.88l-99.23-74.23"/><g id="Layer_3" data-name="Layer 3"><path class="cls-14" d="M620,692.18l16.8-54.26s177.38-12.1,227.83,5.49l22.91,62.4s51.26-25.84,96.54-27c16.32-.42,16.32,22.31,16.32,41.68s-22,108.85-22,108.85L772,893.46,480.5,785.62s15.46-102,38.92-111C549.67,663,620,692.18,620,692.18Z"/><line class="cls-15" x1="868.22" y1="724.84" x2="887.55" y2="705.81"/><line class="cls-15" x1="644.6" y1="709.46" x2="620.63" y2="693.27"/><path class="cls-15" d="M755.41,671.05s-.15,1.75-.42,4.81"/><path class="cls-16" d="M754.16,685c-1.14,12.49-3,31.64-5,50.23-5.47,49.57-8.26,90,3.27,128"/><path class="cls-15" d="M753.81,867.67c.51,1.52,1.05,3,1.6,4.56"/><path class="cls-17" d="M727.4,668.44s-10,69.26-8,83.86c1.9,14,25,12,25,12"/><g id="Layer_2" data-name="Layer 2"><path class="cls-18" d="M619.16,500.66s-12.08,47.71,8.31,77.89c22.15,32.75-26.56,31.85,10.81,63,25,20.86,145.8,42.61,209.93,18.26,53.3-20.24,16.57-43.61,28-72,4.12-10.28,14.31-42.32,8.24-80.79,38.46,135,75.33,140.3,116,138.36,59.88-2.86,110.17-112.29,135.52-124.69,32.21-15.75,6.8-89.38-14.2-107.19-32.53-27.61-64.94,15.65-84.61,47.65L1004.67,514s-60-131.34-126.79-157.7C852,346,798.11,333,798.11,333s-12.22,40.84-49,39.09-54.94-41.23-54.94-41.23-69,12.76-108.24,46.2c-34.83,29.66-98.47,137.49-98.47,137.49s-40.37-28.84-55.83-53.39c-17.33-27.51-62.27-45-84.45-27.78-27.84,21.55-29,63.06-21.48,81.55,9.31,23,65.36,60.81,102.44,91.58,57.89,48,106.11,27.35,125.16,8C586.77,580.41,619.16,500.66,619.16,500.66Z"/><path class="cls-19" d="M871.46,560.9s-65.88,104.42-187.08,63.68"/><path class="cls-19" d="M641.47,579.72s48.11,26.81,103.63,27.51"/><path class="cls-19" d="M1004.67,514s-20.58,20.31-13.86,46.93"/><path class="cls-19" d="M487.49,514.55s29.1,15.61,31.93,46.35"/><path class="cls-14" d="M675.55,335.23s15.1,54.7,74.82,53.49c53.43-1.09,64-51.62,64-51.62L798.11,333s-14.65,39.15-50.71,38.73c-33.56-.39-53.2-40.87-53.2-40.87Z"/><ellipse class="cls-20" cx="348.31" cy="464.41" rx="37.31" ry="14.13" transform="translate(-214.59 606.34) rotate(-67.28)"/><ellipse class="cls-20" cx="1119.62" cy="444.97" rx="14.13" ry="37.31" transform="translate(-84.97 467.81) rotate(-22.76)"/><path class="cls-19" d="M624.07,464.41l-4.91,36.25c-11-10.21-10.83-27.33-10.83-27.33"/><path class="cls-19" d="M902.29,472.69s-9.15,28.05-18.06,35.18l.29-26.26"/><g id="Layer_11" data-name="Layer 11"><path class="cls-6" d="M1142.24,448.82a234.69,234.69,0,0,0,38.15-6.51A118.5,118.5,0,0,0,1208,430.74c12.07-7.39,8-12.74,8-12.74s-3.77-1.54-.49-5.48c3.69-4.43-1.73-6.27-1.73-6.27a73.88,73.88,0,0,1,2.38-8.49c1.49-4-3.46-1.83-3.46-1.83s-5.68-.22-5.17-5,1.31-25-3.65-27.92-28.33-3.08-32.54-3.22c-6.89-.24-11.4,7.37-1.83,10,11.27,3.12,22.21,5.27,22.21,5.27l-4.85,9.93-20.06,11.88s-7.72,4.45-12.6.77c-2.13-1.6-3.72-4.76-3.89-10.5,8.23-9.93,12.23-15.56,9.46-20.29-3.62-6.17-10.24-3.36-20.69,10.41s-16.74,15.51-19,28.56C1119.31,410.36,1116.68,434,1142.24,448.82Z"/><path class="cls-8" d="M1136.43,420.45s16.12-4.92,14.73-24.52"/><path class="cls-6" d="M1125.75,410.89l-22.91,28.94s6.56,24.23,19.08,34.66c8.42-6.89,25.2-28.06,25.2-28.06"/><g id="Layer_12" data-name="Layer 12"><path class="cls-6" d="M346.52,430.44l20.58,20.69s-3.13,22-17.71,39.15c-7.45-7.13-31.65-34.61-31.65-34.61"/><g id="Layer_6" data-name="Layer 6"><path class="cls-6" d="M1106.55,675.61c-40.9,8.52-86.4,31.74-144.14,49.81S741.85,880,741.85,880l92.91,27.35S1032.54,855.11,1104.14,803c12.93-9.4,61.08-38.61,61.08-64.35C1165.22,715.72,1147.45,667.1,1106.55,675.61Z"/><path class="cls-6" d="M408.51,675.61c40.89,8.52,86.4,31.74,144.14,49.81S773.21,880,773.21,880L680.3,907.33S482.52,855.11,410.92,803c-12.93-9.4-61.08-38.61-61.08-64.35C349.84,715.72,367.61,667.1,408.51,675.61Z"/><path class="cls-8" d="M1000.41,712.37s46.89-16.77,81.48-27.44"/><path class="cls-8" d="M499.22,706.56s-19.5-8.09-80.05-23.49"/><g class="cls-21"><path class="cls-22" d="M815.16,821.21s45.49,67.95,58.53,75.13c-16.4,8.22-137.87,27.69-191.31,50.41-12.37,4.54-37.1,18.15-55.22,20.4-13.13,1.63-63.07-5.64-81.55-39.44-30.22-55.25,84.78-16,106.22-40.48,32.55-37.24,70.75-13.27,97.31-27S815.16,821.21,815.16,821.21Z"/><path class="cls-18" d="M778.9,829.67s11.58,70.78,51.94,88.11S868.22,913,868.22,913s-66.54-83-65.23-98.65S778.9,829.67,778.9,829.67Z"/><path class="cls-23" d="M777.92,800.88s38.32,93.8,70.63,106.45"/></g><g class="cls-24"><path class="cls-22" d="M704.05,823.68s-53.95,65.18-67.24,71.87c16.07,8.82,211.38,89.53,211.38,89.53s68.48,16.08,97.79,6.15c12.53-4.24,40.2-24.81,36.69-43.34C971,886,944.39,883.63,896.36,879.14c-49.25-4.6-103,2.38-129-12.34S704.05,823.68,704.05,823.68Z"/><path class="cls-18" d="M723.55,816.34s-36.94,67.34-79.3,91c-45.12,25.2,47.22,17.55,47.22,17.55s39-46.78,51.77-81.9C747,832.53,723.55,816.34,723.55,816.34Z"/><path class="cls-23" d="M743.24,809.46s-34,89.62-106.43,129.24"/></g><path class="cls-8" d="M753.31,858.74s27.93,15.45,38,20.4c37.18,18.33,76.62,18.33,76.62,18.33"/><line class="cls-8" x1="636.81" y1="895.55" x2="733.53" y2="927.71"/></g></g><path class="cls-6" d="M1213.63,349.1c5.17-1.9,11.33,12.33,11.33,12.33s3.18,17.23,2.42,22-14.3,24.78-14.3,24.78l-19.27-9.52s18.46-15.82,19.83-18.33.37-6.92,0-14C1208.4,355.21,1209.84,350.49,1213.63,349.1Z"/><path class="cls-6" d="M1241,372.24c5.27,2.11,4.32,12.22,2.46,17s-5.48,14.48-8.35,17.35-28.86,9.49-28.86,9.49l-10.33-15.27s30.37-4.72,31.6-6.74S1235.7,370.13,1241,372.24Z"/><path class="cls-6" d="M1222.78,392.38c5.28,2.11,4.33,12.22,2.47,17s-5.48,14.48-8.35,17.35-28.87,9.49-28.87,9.49L1177.71,421s32.08-4.65,33.31-6.67S1217.51,390.27,1222.78,392.38Z"/><path class="cls-8" d="M1196.61,419.69S1209.79,415,1211,413s6.49-24,11.76-21.94,4.33,13.52,2.47,18.34"/><line class="cls-8" x1="1193.81" y1="395.93" x2="1207.78" y2="386.14"/><line class="cls-8" x1="1202.22" y1="404.31" x2="1215.64" y2="399.08"/></g></g><g id="Layer_16" data-name="Layer 16"><path class="cls-6" d="M332.91,467.39a234.47,234.47,0,0,1-38.65,1.8,118.78,118.78,0,0,1-29.41-5.41C251.48,459.14,254.33,453,254.33,453s3.36-2.31-.69-5.45c-4.55-3.54.35-6.5.35-6.5a75.47,75.47,0,0,0-4.14-7.79c-2.31-3.61,3-2.52,3-2.52s5.5-1.43,4-6-6.61-24.11-2.39-28.05,27-9.06,31.09-10.1c6.68-1.71,12.72,4.76,3.93,9.4-10.34,5.47-20.57,9.9-20.57,9.9l6.86,8.67,22.14,7.31s8.5,2.7,12.48-1.94c1.73-2,2.61-5.44,1.55-11.09-10.17-7.94-15.28-12.59-13.58-17.79,2.22-6.81,9.29-5.47,22.44,5.74s19.67,11.58,24.62,23.85C345.39,420.7,361.45,455,332.91,467.39Z"/><path class="cls-8" d="M332.53,438.44s-16.8-1.37-19.63-20.81"/><path class="cls-6" d="M241.86,385.24c-5.46-.75-8.43,14.47-8.43,14.47s.57,17.51,2.34,22S255,442.85,255,442.85l16.79-13.42s-21.42-11.51-23.29-13.67-1.84-6.68-3-13.7C248.27,390.09,245.86,385.79,241.86,385.24Z"/><path class="cls-6" d="M220.1,413.69c-4.71,3.19-1.62,12.86,1.23,17.18s8.45,13,11.86,15.16,30.23,3.1,30.23,3.1L270.24,432s-30.67,1.88-32.3.17S224.8,410.5,220.1,413.69Z"/><path class="cls-6" d="M242.17,429.48c-4.7,3.19-1.61,12.86,1.24,17.17s8.45,13,11.86,15.16,30.23,3.1,30.23,3.1l6.82-17.12s-32.33,2.31-34,.6S246.87,426.29,242.17,429.48Z"/><path class="cls-8" d="M273.58,450.56s-13.87-1.73-15.5-3.43S246.6,425,241.89,428.21s-1.33,14.13,1.52,18.44"/><line class="cls-8" x1="271.24" y1="426.75" x2="255.5" y2="420.17"/><line class="cls-8" x1="264.81" y1="436.73" x2="250.58" y2="434.5"/></g><path class="cls-15" d="M804.76,671.05c.16.51,2.76,10.33,9.15,15.27,11.54,8.92,36.8-.28,36.8-.28"/><path class="cls-15" d="M697.27,663s-7.49,20.37-21.38,21.84c-9.77,1-24.89-5.53-24.89-5.53"/><line class="cls-15" x1="620.63" y1="693.27" x2="627.16" y2="718.34"/><line class="cls-15" x1="887.55" y1="705.81" x2="859.82" y2="715.32"/></g></g></g></g></g></g></svg>