<svg xmlns="http://www.w3.org/2000/svg" viewBox="0 0 1459.13 1060.09"><defs><style>.cls-1,.cls-20,.cls-27{isolation:isolate;}.cls-2{fill:#ede4dd;}.cls-10,.cls-15,.cls-16,.cls-19,.cls-21,.cls-23,.cls-24,.cls-28,.cls-29,.cls-3,.cls-30,.cls-31,.cls-6{fill:none;}.cls-10,.cls-16,.cls-21,.cls-23,.cls-3{stroke:#fff;}.cls-10,.cls-15,.cls-16,.cls-19,.cls-23,.cls-28,.cls-3,.cls-30,.cls-31,.cls-6{stroke-linecap:round;}.cls-10,.cls-15,.cls-16,.cls-23,.cls-28,.cls-3,.cls-30,.cls-31,.cls-6{stroke-linejoin:round;}.cls-3{stroke-width:2.81px;}.cls-4{fill:#e69866;}.cls-5{fill:#fdca60;}.cls-19,.cls-6{stroke:#62210f;}.cls-10,.cls-15,.cls-16,.cls-21,.cls-23,.cls-24,.cls-28,.cls-30,.cls-31,.cls-6{stroke-width:1.41px;}.cls-6{stroke-dasharray:16.87;}.cls-7{fill:#1d1e40;}.cls-8{fill:#eeb6ab;}.cls-9{fill:#76778e;}.cls-11{fill:#bababa;}.cls-12{fill:#565797;}.cls-13{fill:#a9c8d5;}.cls-14{fill:#fff;}.cls-15{stroke:#1d1e40;}.cls-16{stroke-dasharray:14.24;}.cls-17{fill:#8e8d8d;}.cls-18{fill:#010101;}.cls-19,.cls-21,.cls-24,.cls-29{stroke-miterlimit:10;}.cls-19{stroke-width:1.49px;}.cls-20{fill:#bc826c;mix-blend-mode:multiply;}.cls-22{fill:#e65658;}.cls-23{stroke-dasharray:14.51 14.51;}.cls-24,.cls-30{stroke:#661715;}.cls-25{fill:#a26e4c;}.cls-26,.cls-27{fill:#9e4f4a;}.cls-27{opacity:0.52;}.cls-28{stroke:#431616;}.cls-29{stroke:#000;stroke-width:1.19px;}.cls-31{stroke:#60361d;}</style></defs><g class="cls-1"><g id="Layer_1" data-name="Layer 1"><g id="Layer_21" data-name="Layer 21"><path class="cls-2" d="M212,880.32s-309-237.49,42.1-495.48C671,78.54,1053.61,7.34,1266.65,307.5c180.93,254.92,37.61,494.2-104.27,572.82C1010.25,892.29,212,880.32,212,880.32Z"/></g><g id="Layer_25" data-name="Layer 25"><path class="cls-3" d="M829.8,646.68s17.68,131.93-148.4,189.7c-48.58,17.55-79.6,36.69-79.6,36.69s31.62-105.57,95.25-140.63C799.4,676,829.8,646.68,829.8,646.68Z"/><path class="cls-3" d="M644.81,463.51s100,119.5-41.55,399.14c-13,25.64-25,10.42-25,10.42S557.37,603.55,644.81,463.51Z"/><path class="cls-3" d="M611,862.65S629,798.94,716.07,759.88,829.79,646.7,829.79,646.7"/><path class="cls-3" d="M601.82,873.07s53.73-352.72,43-409.58"/><line class="cls-3" x1="757.27" y1="797.04" x2="678.96" y2="780.45"/><line class="cls-3" x1="787.52" y1="768.98" x2="711.82" y2="763.52"/><line class="cls-3" x1="806.97" y1="741.98" x2="748.74" y2="741.98"/><polyline class="cls-3" points="795.58 672.74 792.85 704.11 827.2 691.41"/><polyline class="cls-3" points="771.25 691.41 771.25 725.11 819.9 714.62"/><line class="cls-3" x1="749.5" y1="703.71" x2="747.99" y2="740.99"/><line class="cls-3" x1="720.39" y1="719.35" x2="711.82" y2="761.84"/><line class="cls-3" x1="688.15" y1="737.93" x2="678.96" y2="780.45"/><polyline class="cls-3" points="629.04 492.47 644.86 522.07 661.7 494.64"/><polyline class="cls-3" points="615.74 524.32 641.06 560.71 672.22 528.87"/><line class="cls-3" x1="608.1" y1="547" x2="636.94" y2="594.97"/><line class="cls-3" x1="638.43" y1="594.97" x2="677.39" y2="565.63"/><line class="cls-3" x1="678.96" y1="603.42" x2="632.23" y2="643.42"/><line class="cls-3" x1="597.53" y1="594.97" x2="632.23" y2="643.42"/><line class="cls-3" x1="628.98" y1="676.59" x2="675.72" y2="636.73"/><path class="cls-3" d="M395.05,720S427.68,823.86,531.19,858.3,505.65,734.15,395.05,720Z"/><line class="cls-3" x1="395.05" y1="720.02" x2="585.31" y2="868.22"/><line class="cls-3" x1="488.24" y1="838.06" x2="537.15" y2="830.72"/><polyline class="cls-3" points="422.63 726.28 434.67 750.88 404.21 741.98"/><polyline class="cls-3" points="452.81 738.58 462.13 772.27 419.44 768.99"/><polyline class="cls-3" points="482.22 755.42 480.53 786.61 431.94 786.61"/><polyline class="cls-3" points="507.23 771.02 498.31 800.45 447.75 804.93"/><polyline class="cls-3" points="527.61 791.19 520.38 815.52 464.6 820.78"/><line class="cls-3" x1="542.15" y1="805.99" x2="539.9" y2="829.2"/><line class="cls-3" x1="667.8" y1="689.9" x2="622.53" y2="722.34"/><line class="cls-3" x1="655.6" y1="731.09" x2="614.88" y2="756.52"/><line class="cls-3" x1="636.84" y1="818.32" x2="686.94" y2="834.4"/><polyline class="cls-3" points="661.56 761.84 653.84 800.38 724.86 817.59"/><line class="cls-3" x1="639.69" y1="791.19" x2="636.84" y2="818.32"/></g><g id="Layer_3" data-name="Layer 3"><path class="cls-4" d="M501.68,731.51H266.4a14.29,14.29,0,0,1-14.25-14.24V698.1a14.29,14.29,0,0,1,14.25-14.24H501.69a14.29,14.29,0,0,1,14.25,14.24v19.17A14.31,14.31,0,0,1,501.68,731.51Z"/><path class="cls-5" d="M212.56,471.73s41,217.65,40.28,222c6-12.71,9.62-9.87,52.19-9.87h71.16S350.63,479.06,347,461.41s-17.91-53.55-60.72-55.82C241.38,403.06,207.47,420,212.56,471.73Z"/><path class="cls-4" d="M258.13,407.77C232,424.9,230,435.67,233,465.7c0,0,40.55,213.81,39.87,218.17,0,0-11-.62-14.75,2.53a19.5,19.5,0,0,0-5.26,7.34s-34.28-196.37-40.61-226C209.61,430.82,232,410.08,258.13,407.77Z"/><line class="cls-6" x1="255.61" y1="709.93" x2="507.95" y2="709.93"/><polygon class="cls-7" points="469.81 732.09 524.84 937.43 513.35 937.43 457.48 732.09 469.81 732.09"/><polygon class="cls-7" points="518.5 730.81 573.54 936.15 562.05 936.15 506.17 730.81 518.5 730.81"/><polygon class="cls-7" points="319.57 732.09 264.54 937.43 276.03 937.43 331.9 732.09 319.57 732.09"/><polygon class="cls-7" points="276.97 732.09 221.93 937.43 233.41 937.43 289.3 732.09 276.97 732.09"/></g><g id="Layer_9" data-name="Layer 9"><polygon class="cls-8" points="511.93 855.04 515.92 904.21 548.49 904.21 554.45 848.5 511.93 855.04"/><polygon class="cls-8" points="583.41 841.49 590.88 891.71 624.52 886.8 617.04 839.62 583.41 841.49"/><g id="Layer_7" data-name="Layer 7"><path class="cls-9" d="M578.5,890.92c-.45,7.38-1.91,34,.12,38.15,20,1.25,120.55,0,120.55,0s-3.78-17.62-29.74-24.71-33-18.86-37.74-28.3-16.5,2.36-18.86,7.07-21.24,11.8-26,4.73c-2.6-3.9-4.83-3.15-6.32-1.69A7.13,7.13,0,0,0,578.5,890.92Z"/><rect class="cls-7" x="575.09" y="929.08" width="127.38" height="9.24"/><path class="cls-10" d="M635.62,908.32c2.11-5.26,7.36-11.59,19.22-9.55"/><path class="cls-10" d="M644.7,911.53c2.49-4.27,6.71-9.53,18.28-8.47"/><path class="cls-10" d="M627.55,904.67c.7-3.72,6-13.18,18.6-11.09"/><path class="cls-11" d="M508.88,892.4c-.45,7.38-1.91,34,.11,38.14,20,1.26,120.55,0,120.55,0s-3.78-17.61-29.73-24.7-33-18.87-37.74-28.3-16.51,2.36-18.87,7.07-21.23,11.8-25.94,4.72c-2.6-3.89-4.84-3.15-6.33-1.68A7.31,7.31,0,0,0,508.88,892.4Z"/><rect class="cls-7" x="505.46" y="930.56" width="127.38" height="9.24"/><path class="cls-10" d="M566,909.81c2.11-5.26,7.37-11.59,19.22-9.55"/><path class="cls-10" d="M575.09,913c2.49-4.26,6.7-9.53,18.28-8.48"/><path class="cls-10" d="M557.92,906.15c.7-3.73,6-13.19,18.6-11.09"/><g id="Layer_4" data-name="Layer 4"><path class="cls-12" d="M387.92,377.84s64,57.62,75.74,59.5,30.36-17.52,40.23-26.81,30.23-25.34,44.44-12.94c16.93,14.75,12.07,48-13.59,68.87-22.63,18.39-42,28.87-79.08,30.39-34.26,1.42-73.41-56-72.76-74.8S387.92,377.84,387.92,377.84Z"/><g id="Layer_6" data-name="Layer 6"><path class="cls-13" d="M361.15,639.11S351,685.28,451.67,683.59s91.46,0,91.46,0L549,857.28s.38,9.19,86.8,1.64c3.17-83.7-11.89-184.43-18.64-229a32.57,32.57,0,0,0-27.32-27.33L387.06,572l-32.73,5.88Z"/><path class="cls-7" d="M361.15,639.11S351,685.28,451.67,683.59s91.46,0,91.46,0L549,857.28s.38,9.19,86.8,1.64c3.17-83.7-11.89-184.43-18.64-229a32.57,32.57,0,0,0-27.32-27.33L387.06,572l-32.73,5.88Z"/><path class="cls-7" d="M302.76,625.24s-7.9,66.68,92.79,65,91.47,0,91.47,0l5.87,173.68s-1.67,7.55,84.76,0c3.37-89.66-11.79-197-17.93-236a20.85,20.85,0,0,0-17.48-17.38L330.93,578.6l-32.73,5.88Z"/><path class="cls-12" d="M316.69,633.44c36.36-5.5,50.86-48.72,90.84-43.26,64.69,8.83,35.65-63.58,15.22-117.8-13.12-34.83-15.51-61.93-22.39-80.25-5.07-13.53-12.6-22.28-28.69-25.82-48.37-10.61-80.2-3.09-98.82,39s12.77,94.64,0,131.13S280.33,638.92,316.69,633.44Z"/><rect class="cls-14" x="381.2" y="435.9" width="54.41" height="14.93" transform="translate(-89.18 103.11) rotate(-12.99)"/><g id="Layer_15" data-name="Layer 15"><path class="cls-7" d="M480.15,565.77l-81.64,18.82a8.67,8.67,0,0,1-10.42-6.51l-26.52-115a8.68,8.68,0,0,1,6.51-10.42l81.65-18.82a8.68,8.68,0,0,1,10.42,6.51l26.51,115A8.67,8.67,0,0,1,480.15,565.77Z"/></g><path class="cls-12" d="M266.81,436.51c-.74,18.39-.47,60.48-4.63,75.24-13.5,47.86,13.54,78.74,51,81.93s63.79-21.85,90.44-32C429,552,425.71,531,420.47,515.24c-4.87-14.6-4.39-33.71-45.37-17.35-29.84,11.9-42,24.49-42,24.49s11.05-14.44,7.06-16.85-15.06,16.85-15.06,16.85,7.23-20.5,5.65-22.19c-2.72-2.91-8.45,5.72-8.45,5.72s7.1-29,5.5-48.12"/><path class="cls-15" d="M268,436.51c-.73,18.39-.46,60.48-4.62,75.24-13.5,47.86,13.54,78.74,51,81.93s63.79-21.85,90.44-32C430.18,552,427,531,421.71,515.24c-4.87-14.6-4.39-33.71-45.38-17.35-29.83,11.9-41.95,24.49-41.95,24.49s11.05-14.44,7.06-16.85-15.08,16.85-15.08,16.85,7.23-20.5,5.66-22.19c-2.73-2.91-8.45,5.72-8.45,5.72s7.1-29,5.49-48.12"/><path class="cls-16" d="M345.25,633.76s131.75,8.78,156.66,15c12.52,3.15,10,152.32,14,207.39"/><g id="Layer_8" data-name="Layer 8"><polygon class="cls-9" points="371.47 358.44 377.09 385.95 342.62 363.26 371.47 358.44"/><path class="cls-7" d="M332,374.42s5.1,12.11,20.35,11.53c13.87-.52,13.87-7,13.87-7l-12.1-11Z"/><polygon class="cls-9" points="349.03 344.69 314.9 346.47 316.35 359.01 347.3 365.03 349.03 344.69"/><polygon class="cls-14" points="361.91 375.96 371.47 358.44 336.33 348.67 333.13 362.28 361.91 375.96"/><path class="cls-8" d="M322,331.48s5.36,18.46.74,30.78,20,19.85,39.22,13.7c2.25-23,4.27-44.48,4.27-44.48S324.49,320.57,322,331.48Z"/><polygon class="cls-17" points="351.08 371.53 353.44 378.15 344.07 378.94 333.13 369.92 351.08 371.53"/><polygon class="cls-14" points="314.9 346.47 311.19 372.92 344.07 396.58 351.08 371.53 314.9 346.47"/></g><path class="cls-15" d="M396.36,385.33s13.84,24.15,16.84,48.27"/><path class="cls-10" d="M578.45,860.85s-12.67-234.74-27-244c-22.52-14.51-127.33-21.37-127.33-21.37"/><g id="Layer_14" data-name="Layer 14"><path class="cls-8" d="M546.35,361.7A26,26,0,0,0,541,372.36c-1.94,8.1-2.91,21.21,8.94,26.29,15.72,6.73,38.58-18.87,43.54-24.75a22.32,22.32,0,0,0,1.8-2.42c1.78-2.75,4-6.06,3.62-8.5-.62-3.46-16.17,14.93-18.11,14.68-1.48-.19,22.89-22.16,18-27.53-1.85-2-11.78,13-21.07,18.6.39-1.67,20.2-22.19,18.5-28.64s-13.61,14.69-24.24,20.39c7.69-10,18.35-20.86,16.14-24.86s-23.47,22.77-27.42,23.82,8.68-17.69,2.45-19.69C561.06,339.09,553,353.74,546.35,361.7Z"/><path class="cls-8" d="M436.34,474.9a26.85,26.85,0,0,0-9.09,8.32,38.46,38.46,0,0,0-5.42,11.19c-1.56,5.8-18.88,18.53-13.35,23.88,4.54,13.37,22.29-3.18,25.12-2.51,14.79,3.51,37.94-8.53,43.78-11.76a24.35,24.35,0,0,0,2.62-1.68c2.73-2,.15-5.16-.41-5.21-3.61-.38-15.87,5.85-15.87,5.85s6.89-3.62,15.37-9.07c4.87-3.15,1.23-8.23-3.66-5.8-5.41,2.7-8.55,4.31-11.4,5.11.6-.89,6.62-3.29,14.62-8.61,5.16-3.43,4.05-9.28-3.92-6.25-5,1.88-7.83,4.09-13.19,4.79,4.24-2.6,8.94-5.17,13.1-7.62,6.72-3.95,3.53-9.48-4.67-5.6S453.13,478.22,451,478c-4.19-.45,14.87-13.9,9.6-18.11C458.85,458.46,445.69,469.67,436.34,474.9Z"/><g id="Layer_13" data-name="Layer 13"><path class="cls-14" d="M430.8,528.72l-11.4,4.46S411,531.43,406.28,517s-1-20.08-1-20.08l11.4-4.45Z"/><path class="cls-14" d="M565.54,404.61,559.13,415s-7.76,3.67-20.2-5S526,394.68,526,394.68l6.41-10.43Z"/></g></g></g></g></g><g id="Layer_10" data-name="Layer 10"><path class="cls-8" d="M326.91,332.47s3.63,28.82,28.32,33.81a6.76,6.76,0,0,0,8.07-4.71l.87-10.49Z"/><path class="cls-8" d="M338.36,257.4c24.24-8.29,49.24,10.55,49,36.16-.2,24.13-5.88,61.74-24.92,63.77-8.3.88-34.27-4.14-40.53-32.22-9.1-.09-12.33-12.19-15.19-22.24C305.93,299.92,319.87,263.73,338.36,257.4Z"/><ellipse class="cls-18" cx="357.76" cy="304.73" rx="3.59" ry="4.92"/><ellipse class="cls-18" cx="377.7" cy="304.73" rx="3.22" ry="4.41"/><path class="cls-19" d="M370.58,309.65s9,16.59-4.4,13.59"/><path class="cls-9" d="M363.6,289.87c-1.23-1.33-6.39-2.73-10.8,1.06s-2.93,7.92-1.11,7.3,4.9-4.19,8.33-3.91C364.31,294.67,364.82,291.2,363.6,289.87Z"/><path class="cls-9" d="M374.8,290.23c1.48-1.17,5.7-1.17,8.55,2.55,3,3.93,2.18,7,.41,6.06s-2.87-3.56-6.44-3.8C372.83,294.74,373.34,291.41,374.8,290.23Z"/><path class="cls-9" d="M311.91,314.94c-3-6.61-.72-14,4.88-15.13,5.12-1,9.25,8.39,9.25,8.39l1.22-23.06a95.09,95.09,0,0,0,16.07-12.41c7.79-7.55,25.83,6.76,35,.67a44.88,44.88,0,0,0,13.44-13.62s-32.86-30.37-71.09-11c-13.88,7-19.82,16.72-21.79,26.21-3.43,16.65,5.44,32.66,5.44,32.66L324,344.46s-.12-12-2.05-20.09C317.91,323.6,315,321.54,311.91,314.94Z"/><path class="cls-20" d="M375.1,328s-6.92,4.65-18.93,3c3.63,4.35,8.45,7.24,13.63,5.32C375.15,334.3,375.1,328,375.1,328Z"/><path class="cls-19" d="M316.69,313.08s.46-6.31,6.61-.46c0,0-5.54-13.83-9.69-7.4"/><path class="cls-21" d="M299.76,271.73s14,3.09,22.19-4.53c15.8-14.64,25.11,3.54,25.11,3.54"/><path class="cls-21" d="M299.13,274.05s17.45,3.18,22.82-1.7c6.83-6.19,19.43,2.18,19.43,2.18"/><path class="cls-21" d="M298.69,276.16s14.16,5.16,21.88,1.88a10.41,10.41,0,0,1,12.56,3.18"/><g id="Layer_12" data-name="Layer 12"><circle class="cls-15" cx="361.75" cy="313.95" r="6.51"/><circle class="cls-15" cx="381.51" cy="313.95" r="6.51"/><line class="cls-15" x1="325.13" y1="305.14" x2="355.24" y2="313.95"/><path class="cls-15" d="M368.19,313.08s1.31-2.63,3.28-2.63c2.29,0,3,3.49,3,3.49"/></g><path class="cls-8" d="M356.17,281.22s15.89,2.77,22.5-2.53A226.11,226.11,0,0,1,356.17,281.22Z"/><path class="cls-8" d="M354.18,284.14s19.34,5.85,26.75-1.63C371.47,286.21,354.18,284.14,354.18,284.14Z"/></g></g><g id="Layer_20" data-name="Layer 20"><path class="cls-22" d="M995.13,420.06c-15.83,8.26-19,16.31-25.87,38.47-6.69,21.67-12.37,39.83-12.37,39.83l73.42,22.71s12.77-58.73,2-83.59C1024.89,420.36,1011,411.81,995.13,420.06Z"/><g id="Layer_16" data-name="Layer 16"><polygon class="cls-7" points="1159.93 732.37 1214.98 937.72 1203.49 937.72 1147.6 732.37 1159.93 732.37"/><polygon class="cls-7" points="1208.64 731.09 1263.68 936.44 1252.18 936.44 1196.31 731.09 1208.64 731.09"/><polygon class="cls-7" points="1019.88 733 964.84 938.35 976.34 938.35 1032.21 733 1019.88 733"/><polygon class="cls-7" points="971.18 731.73 916.13 937.07 927.63 937.07 983.51 731.73 971.18 731.73"/><path class="cls-4" d="M981.3,732.37h235.3a14.29,14.29,0,0,0,14.24-14.25V699a14.28,14.28,0,0,0-14.24-14.24H981.3A14.28,14.28,0,0,0,967.06,699v19.16A14.29,14.29,0,0,0,981.3,732.37Z"/><path class="cls-5" d="M1270.42,472.59s-41,217.65-40.28,222c-6-12.71-9.62-9.87-52.2-9.87h-71.15s25.56-204.81,29.16-222.46,17.91-53.55,60.72-55.82C1241.6,403.91,1275.51,420.86,1270.42,472.59Z"/><path class="cls-4" d="M1224.85,408.62c26.14,17.12,28.09,27.89,25.12,57.93,0,0-40.54,213.81-39.86,218.17,0,0,11-.62,14.75,2.53a22.31,22.31,0,0,1,5.32,6.37s34.23-195.41,40.55-225.06C1273.37,431.66,1251,410.92,1224.85,408.62Z"/><polygon class="cls-8" points="974.17 817.37 967.06 905.07 934.49 905.07 927.35 808.32 974.17 817.37"/><polyline class="cls-8" points="919.8 599.46 998.72 574.91 1018.64 537.9 1007.44 514 977.66 504.79 975.17 550.4 908.74 586.93"/><polygon class="cls-8" points="905.5 802.46 892.1 892.57 858.46 887.66 863.87 802.46 905.5 802.46"/><path class="cls-12" d="M1121.83,640s10.18,46.18-90.52,44.49-91.46,0-91.46,0l-4.92,145.31s-11.53,3.09-98-4.46c10.19-83.41,22.1-149.93,28.84-194.48a32.56,32.56,0,0,1,27.31-27.33l202.79-30.65,32.74,5.88Z"/><path class="cls-12" d="M1121.83,641.21s10.18,46.18-90.52,44.49-91.46,0-91.46,0L934.93,831s-11.53,3.1-98-4.45c10.19-83.42,22.1-149.94,28.84-194.48a32.56,32.56,0,0,1,27.31-27.34l202.79-30.65,32.74,5.88Z"/><path class="cls-12" d="M1180.22,626.09s7.9,66.67-92.79,65-91.47,0-91.47,0l8,139.31S980,837,893.61,829.45c11.12-97.08,23.52-161.66,29.66-200.68a20.87,20.87,0,0,1,17.48-17.38l152.68-23.07,58.62-8.86,22.73,6.67Z"/><path class="cls-15" d="M890.09,830.31c11.12-97.09,23.52-161.66,29.67-200.68a20.85,20.85,0,0,1,17.48-17.38l152.67-23.07,58.62-8.86,22.74,6.66"/><path class="cls-22" d="M1183.91,634.61s-49.9-61.78-162.65-41.69c-12,2.14-33.3-7.92-16.09-39.17,6.06-11,6.06-31.06,0-46.95-19.81-51.88-38.73-67.78-8.42-92,38.68-30.93,74.58-28.71,102.19-8.58,37.22,27.14,47.06,59,60.63,95.19C1177.93,550.4,1183.91,634.61,1183.91,634.61Z"/><path class="cls-5" d="M1000.77,463.44s24.16,64.63,23.68,77.41,40.41,1,49.27-11.1-25.58-80.06-25.58-80.06Z"/><path class="cls-10" d="M1175.43,634.61s-2.56.12-7.1.38"/><path class="cls-23" d="M1153.85,635.79c-46.49,2.6-153.4,9-172.78,13.85-11.48,2.88-10.84,80.84-13.73,136.24"/><path class="cls-10" d="M966.93,793.12c-.15,2.43-.31,4.79-.48,7.1"/><path class="cls-8" d="M979.88,606.09A24.12,24.12,0,0,1,990.45,603c7.69-.44,19.79.83,22.47,12.45,3.56,15.4-23.49,32-29.65,35.56a21.53,21.53,0,0,1-2.5,1.24c-2.8,1.17-6.18,2.69-8.34,1.88-3-1.12,16.24-12.26,16.32-14.07.07-1.36-23.91,17.2-28,11.85-1.54-2,13.75-8.59,20.39-16.12-1.57.08-23.51,14.74-29.09,12.14s15.61-10,22.52-18.71c-10.33,5.36-22,13.27-25.26,10.6s24.58-17.62,26.16-21-17.51,5-18.3-1C956.91,615.75,971.56,610.83,979.88,606.09Z"/><path class="cls-8" d="M908.74,586.93c-15.16,1.29-31.37,12.1-36.18,16-.69.55-6.86,7.79-6.33,11.61.37,2.7,12.36-10.33,14.1-10,1.33.24-18.85,10.71-16.39,18.45.67,2.11,11.25-9,19.43-13.61-7.3,6.56-20.84,15.18-18.38,21,1.33,3.63,11.42-9.35,21.08-13.63-8.28,7.2-17.87,14.3-16.37,17.56s24.3-16,28-16.6-10.14,13.1-4.71,15.06c1.81.65,11-10.15,18.06-15.86a21.7,21.7,0,0,0,6.25-7.89c1.43-3.15,2.79-7.32,2.4-11.29"/><path class="cls-10" d="M898.61,806.94a395.73,395.73,0,0,0,54.13,3.9c32.67,0,40.45-1.92,40.45-1.92"/><path class="cls-10" d="M842.44,805.38s14.95,5.84,43.73,2.5"/><path class="cls-24" d="M1013.24,553.65s38.21,10.09,75.16-26.83"/><g id="Layer_11" data-name="Layer 11"><path class="cls-25" d="M871,930.68v10h39l-.19-17h-7.94s2-24.13-3.82-37.67,1.51-34.19,1.51-34.19H855s0,17.71-4.1,23-19.41,23.54-21.78,29.43-37.66,10.59-41.78,22.36h-5.89V940.7h66Z"/><path class="cls-26" d="M871,930.68v10h39l-.19-17h-7.94s2-24.13-3.82-37.67,1.51-34.19,1.51-34.19H855s0,17.71-4.1,23-19.41,23.54-21.78,29.43-37.66,10.59-41.78,22.36h-5.89V940.7h66Z"/><path class="cls-26" d="M871,930.68v10h39l-.09-7.7-.1-9.35h-7.94s-11.09-.28-32.49.62c-18.24,6.83-49,2.85-82,2.32h-5.89V940.7h66Z"/><path class="cls-27" d="M869.52,930.68v10h39l-.08-7.7-.1-9.35h-7.94s-11.1-.28-32.5.62c-18.23,6.83-49,2.85-82,2.32h-5.89V940.7h66Z"/><polyline class="cls-28" points="873.89 859.47 854.05 861.66 869.77 878.31 849.08 877.13 859.19 893.61 837.13 892.22 845.75 910.18 824.73 907.47"/><path class="cls-28" d="M898.61,894.2S882.46,899,879.27,912"/><line class="cls-29" x1="872.77" y1="933.36" x2="909.9" y2="933.36"/><line class="cls-28" x1="860.38" y1="933.36" x2="781.51" y2="933.36"/><path class="cls-26" d="M946.37,930.68v10h39l-.19-17h-7.94s2.05-24.13-3.83-37.67S975,851.77,975,851.77H930.46s0,17.71-4.09,23S907,898.32,904.59,904.21s-37.67,10.59-41.79,22.36h-5.89V940.7h66Z"/><path class="cls-27" d="M946.37,930.68v10h39l-.09-7.7-.1-9.35h-7.94s-11.09-.28-32.49.62c-18.24,6.83-49,2.85-82,2.32h-5.89V940.7h66Z"/><path class="cls-28" d="M974,894.2s-20.6,3.53-20.6,27.06"/><line class="cls-28" x1="948.19" y1="933.36" x2="985.32" y2="933.36"/><line class="cls-28" x1="935.8" y1="933.36" x2="856.92" y2="933.36"/><path class="cls-28" d="M862.81,926.57s5.24-17.28,41.09-21l17.26,4.64-8.6-18,22.05,1.39L924.5,877.13l20.69,1.18-15.72-16.63,19.84-2.2"/><polyline class="cls-28" points="856.39 936.88 856.92 926.57 862.82 926.57"/></g><g id="Layer_22" data-name="Layer 22"><path class="cls-26" d="M934,326.86s-12.79,43.18,7.6,49.35S971,361.91,971,361.91,954.77,314,945.32,315.57,934,326.86,934,326.86Z"/></g><path class="cls-21" d="M1026.31,465.51s-11.58,76.13,27.57,61.3C1086.26,514.53,1026.31,465.51,1026.31,465.51Z"/><line class="cls-21" x1="1026.31" y1="465.51" x2="1052.25" y2="527.38"/><polyline class="cls-21" points="1024.72 483.7 1036.61 490.1 1039.27 477.3"/><polyline class="cls-21" points="1025 497.11 1041.79 502.43 1047.28 485.68"/><polyline class="cls-21" points="1026.31 507.83 1046.19 512.94 1054.22 494.13"/><polyline class="cls-21" points="1029.29 517.4 1051.31 525.13 1060.13 503.41"/></g><path class="cls-8" d="M1013.09,620.25c22.79-6,95.27-32.65,99.42-40.79,4-7.86,8.08-89.15,8.08-89.15l-41.46,3.62,3.26,66.71-79.48,43.88"/><g id="Layer_19" data-name="Layer 19"><path class="cls-22" d="M1068.82,408.39c-11.54,13.63-11.45,22.29-9.43,45.4,2,22.58,3.57,41.55,3.57,41.55l76.56-6.69s-4.84-27.64-14.08-51.19"/><path class="cls-30" d="M1068.82,408.39c-11.54,13.63-11.45,22.29-9.43,45.4,2,22.58,3.57,41.55,3.57,41.55l76.56-6.69s-4.84-27.64-14.08-51.19"/></g><path class="cls-30" d="M980.88,435.23s-6.13,19,10.12,42.79c13,19,16.45,36,16.45,36"/><g id="Layer_18" data-name="Layer 18"><path class="cls-8" d="M1011.4,354.51s14.25,23.81,28,39.18c14.25,15.93-20,37.56-30.14,24.76-10.25-29-29.56-37.32-29.56-37.32S1004.29,345.85,1011.4,354.51Z"/><g id="Layer_17" data-name="Layer 17"><path class="cls-8" d="M1009.7,351s19.18,46.45-4.32,57.35c-4.61-7.3-4.61-9.69-4.61-9.69l6.81-45.79Z"/><path class="cls-8" d="M960.17,307.3c-24.78,6.55-32.93,36.21-18.53,57.39,13.55,20,37,48,53.93,39.11,7.41-3.89,24.68-20.17,13.53-47.78,7.5-5.13,5.79-18.5,2.58-28.44C1010.74,324.66,979.06,302.29,960.17,307.3Z"/><ellipse class="cls-18" cx="970.53" cy="358.29" rx="3.88" ry="5.31" transform="translate(-35.63 599) rotate(-33.72)"/><ellipse class="cls-18" cx="953.4" cy="369.92" rx="3.49" ry="4.78" transform="translate(-44.97 591.45) rotate(-33.72)"/><path class="cls-19" d="M958.48,361.91s.82,27.22,13.84,14.58"/><path class="cls-26" d="M971,346.81c-.34,1.77-3.87,4.93-9.62,4.08s-6.78-4.36-4.92-4.81,6.39.94,9.14-1.13C969,342.37,971.3,345,971,346.81Z"/><path class="cls-26" d="M944.2,365c1.88,0,4.79-2.58,4.78-6.23,0-5-2.2-7-3.14-5.21s.87,4.33-1.93,6.58C940.41,362.92,942.73,365,944.2,365Z"/><path class="cls-20" d="M970.49,390.58a12.23,12.23,0,0,1,6.32-7.72c2.62-1.2,7.86-2.48,12.07-1.22-2.15,4.68-5.68,7.46-11.07,8.73C972.25,391.69,970.49,390.58,970.49,390.58Z"/><path class="cls-19" d="M1007.59,340s-2.85-4.42-4.65,2.35c0,0-1.45-12.31,4.36-9"/><path class="cls-26" d="M940.26,332.78s12.92,11.12,34.22,8.8,22.57-5.5,22.57-5.5,5.72-16.35,14.2-5.51c6.76,8.65.15,23.94.15,23.94l4.61,7.4s-2-20.25,0-29,5.25-9.61,5.25-9.61-24.33-41.4-58.79-25.77-27.93,38.32-27.93,38.32Z"/></g></g><g id="Layer_23" data-name="Layer 23"><line class="cls-6" x1="996.75" y1="711.52" x2="1230" y2="711.52"/></g></g><g id="Layer_24" data-name="Layer 24"><rect class="cls-2" x="86.33" y="938.26" width="1286.47" height="6.45"/><path class="cls-31" d="M996.75,335.11c-30.11,4.67-39,.24-52.71-7.16-5.27-2.84-9.5,2.62-9.5,2.62"/><path class="cls-31" d="M936.76,321.32s4.55-3.56,12.22-.8,15.9,15.08,49,12.24"/><path class="cls-31" d="M941.2,314s12.58-7.71,24.45,2.47,34.42,13.88,34.42,13.88"/></g></g></g></svg>