<svg width="190" height="206" viewBox="0 0 190 206" fill="none" xmlns="http://www.w3.org/2000/svg">
<path opacity="0.5" d="M77.4824 122.903C81.6651 115.357 71.5226 101.739 54.8284 92.4854C38.1343 83.232 21.2103 81.8481 17.0276 89.3942C12.8449 96.9403 22.9874 110.559 39.6815 119.812C56.3757 129.066 73.2997 130.45 77.4824 122.903Z" fill="#B9D3F9"/>
<path d="M65.8589 128.31C65.0164 128.31 64.1176 128.254 63.1628 128.198C55.9729 127.636 47.4915 124.828 39.3469 120.278C31.2022 115.785 24.3495 110.111 20.0247 104.27C15.5873 98.3718 14.3517 92.9796 16.4861 89.1038C18.6205 85.228 23.8442 83.4867 31.2026 84.0484C38.3925 84.61 46.8739 87.4184 55.0186 91.9681C63.1632 96.4615 70.0159 102.135 74.3407 107.977C78.7782 113.875 80.0138 119.267 77.8793 123.142C76.0257 126.513 71.8128 128.31 65.8589 128.31ZM28.562 85.0035C23.2258 85.0035 19.1818 86.52 17.4405 89.6096C15.5305 93.0922 16.7665 98.035 20.9231 103.596C25.1357 109.269 31.8762 114.83 39.9085 119.267C47.9409 123.705 56.1978 126.457 63.2751 127.019C70.1841 127.58 75.0706 126.008 76.9805 122.525C78.8904 119.043 77.6544 114.1 73.4978 108.539C69.2853 102.866 62.5448 97.3052 54.5124 92.8677C45.1322 87.6996 35.6956 85.0035 28.562 85.0035Z" fill="#B9D3F9"/>
<path d="M77.4301 123.423C77.3179 123.423 77.2056 123.367 77.0929 123.311C76.8121 123.086 50.1878 102.079 26.9895 94.5521C26.7087 94.4398 26.5401 94.159 26.6523 93.8782C26.7646 93.5973 27.0454 93.4287 27.3262 93.541C50.7491 101.18 77.542 122.3 77.7665 122.525C77.991 122.693 78.0473 123.03 77.8787 123.255C77.7109 123.367 77.5983 123.423 77.4301 123.423Z" fill="#B9D3F9"/>
<path opacity="0.5" d="M53.8535 135.68C72.4365 131.33 85.907 120.994 83.9407 112.594C81.9744 104.194 65.3159 100.911 46.7329 105.261C28.1499 109.611 14.6795 119.947 16.6458 128.347C18.6121 136.747 35.2705 140.03 53.8535 135.68Z" fill="#B9D3F9"/>
<path d="M38.0552 138.083C34.7974 138.083 31.7641 137.802 28.9558 137.241C21.71 135.837 17.1603 132.691 16.1492 128.366C15.1381 124.097 17.8342 119.266 23.6758 114.717C29.4052 110.279 37.5499 106.684 46.6493 104.606C55.6927 102.472 64.6236 102.079 71.7008 103.483C78.9466 104.887 83.4963 108.033 84.5074 112.358C85.5185 116.627 82.8224 121.457 76.9807 126.007C71.2514 130.444 63.1067 134.039 54.0073 136.117C48.5029 137.409 43.0543 138.083 38.0552 138.083ZM46.8738 105.674C28.6186 109.943 15.3063 120.053 17.2162 128.141C19.1261 136.23 35.5277 139.375 53.7828 135.05C62.7136 132.972 70.6897 129.433 76.3068 125.108C81.8113 120.896 84.3392 116.458 83.4404 112.583C82.5415 108.707 78.2727 105.899 71.4763 104.55C64.5109 103.202 55.8046 103.595 46.8738 105.674Z" fill="#B9D3F9"/>
<path d="M25.585 127.355C25.3605 127.355 25.1919 127.243 25.0796 127.018C24.9674 126.737 25.0796 126.4 25.3605 126.344C56.4785 113.818 83.6086 112.021 83.8894 111.965C84.1702 111.965 84.4511 112.189 84.4511 112.47C84.4511 112.751 84.2266 113.032 83.9457 113.032C83.6649 113.032 56.7034 114.885 25.754 127.299C25.7536 127.355 25.6413 127.355 25.585 127.355Z" fill="#B9D3F9"/>
<path d="M48.3965 161.381C45.1665 161.667 43.1568 154.31 43.5588 151.075C45.9591 140.582 53.4238 160.036 48.3965 161.381Z" fill="#332E25"/>
<path d="M63.633 109.317C67.4766 108.44 68.8051 114.23 64.9881 115.154C48.2703 119.407 41.55 133.99 48.1428 150.289C49.1213 153.637 44.1209 154.465 43.5585 151.075C35.9707 132.191 43.6413 115.135 63.633 109.317Z" fill="#332E25"/>
<path d="M63.192 115.649C47.3956 120.771 42.0617 134.46 48.0848 150.07C48.1645 150.214 48.2445 150.358 48.3512 150.55C48.8835 151.51 49.3039 152.72 49.6547 154.032C50.5476 157.678 50.0499 160.967 48.4453 161.354C48.2268 161.413 48.1041 161.418 47.907 161.402C48.9004 158.215 48.1991 155.028 47.4173 152.825C46.7788 151.109 46.092 149.984 46.092 149.984C45.8687 149.354 45.645 148.726 45.4696 148.07C41.0184 133.031 46.4674 123.169 51.73 119.873C57.1363 116.498 62.9253 115.734 63.192 115.649Z" fill="#3F3A31"/>
<path d="M47.6629 150.556C44.3532 142.1 44.2627 134.243 47.4493 127.77C50.433 121.722 56.0908 117.329 63.9011 115.005C64.1678 114.92 64.4447 115.08 64.53 115.346C64.6152 115.613 64.4551 115.89 64.1884 115.975C56.6448 118.214 51.1999 122.426 48.3767 128.197C45.3502 134.394 45.4037 141.957 48.6281 150.146C48.713 150.413 48.5798 150.737 48.3131 150.823C48.0463 150.908 47.7961 150.795 47.6629 150.556C47.6363 150.507 47.6363 150.507 47.6629 150.556Z" fill="#2D1D1D"/>
<path d="M43.0201 151.687C39.0827 141.76 39.0039 132.454 42.7771 124.776C46.4597 117.274 53.5683 111.762 63.4418 108.859C63.7086 108.774 63.9854 108.934 64.0707 109.2C64.156 109.467 63.9959 109.744 63.7291 109.829C54.1706 112.621 47.2753 117.952 43.7045 125.203C40.0697 132.679 40.1594 141.665 43.9853 151.278C44.0706 151.545 43.937 151.869 43.6703 151.955C43.4514 152.013 43.1528 151.927 43.0201 151.687Z" fill="#2D1D1D"/>
<path d="M43.3847 155.627C43.0287 154.193 42.9176 152.748 42.9611 151.469C42.9985 151.197 43.2331 150.941 43.505 150.979C43.777 151.016 44.0325 151.251 43.9951 151.523C43.8985 152.706 44.0788 154.049 44.3817 155.387C45.1526 158.474 46.6168 160.548 47.6878 160.895C47.8371 160.938 48.0342 160.954 48.2048 160.922C49.2976 160.63 49.9124 157.779 49.0461 154.18C48.61 152.602 47.9027 150.988 47.6629 150.556C47.6452 150.179 47.514 149.947 47.7538 149.814C48.0419 149.654 48.4257 149.729 48.5589 149.969C48.8252 150.449 49.6496 152.214 50.0906 153.914C51.1005 157.998 50.4105 161.393 48.4913 161.892C48.1501 161.956 47.7824 161.972 47.3828 161.817C46.4611 161.513 45.5341 160.521 44.7624 159.129C44.2039 158.122 43.709 156.89 43.3847 155.627Z" fill="#2D1D1D"/>
<path opacity="0.5" d="M157.887 120.973C158.827 112.401 144.216 103.766 125.253 101.687C106.29 99.6075 90.1557 104.871 89.2157 113.443C88.2757 122.015 102.886 130.65 121.849 132.73C140.812 134.809 156.947 129.546 157.887 120.973Z" fill="#B9D3F9"/>
<path d="M130.117 133.758C127.421 133.758 124.669 133.59 121.86 133.309C112.592 132.298 104.11 129.714 97.8757 126.007C91.5287 122.243 88.2705 117.75 88.7763 113.369C89.2816 108.988 93.3823 105.336 100.403 103.033C107.312 100.787 116.187 100.112 125.399 101.124C134.667 102.135 143.149 104.718 149.383 108.426C155.73 112.189 158.988 116.683 158.483 121.064C157.977 125.445 153.877 129.096 146.856 131.399C142.025 132.972 136.296 133.758 130.117 133.758ZM117.086 101.798C111.02 101.798 105.403 102.584 100.684 104.101C94.1126 106.235 90.2368 109.605 89.7874 113.537C89.3379 117.469 92.4271 121.57 98.3814 125.108C104.504 128.703 112.873 131.287 121.973 132.242C131.072 133.253 139.779 132.579 146.519 130.388C153.091 128.254 156.967 124.884 157.416 120.952C157.866 117.02 154.776 112.919 148.822 109.381C142.7 105.786 134.33 103.202 125.231 102.247C122.478 101.91 119.726 101.798 117.086 101.798Z" fill="#B9D3F9"/>
<path d="M140.846 120.053C140.789 120.053 140.733 120.053 140.677 120.053C140.396 119.997 113.547 111.852 89.5065 112.807C89.2257 112.864 88.9448 112.583 88.9448 112.302C88.9448 112.021 89.1693 111.74 89.4502 111.74C113.659 110.786 140.733 118.93 141.014 119.043C141.295 119.155 141.463 119.436 141.351 119.716C141.295 119.941 141.07 120.053 140.846 120.053Z" fill="#B9D3F9"/>
<path opacity="0.5" d="M134.08 115.39C149.533 104.211 157.963 89.4861 152.91 82.5013C147.856 75.5165 131.233 78.9168 115.781 90.096C100.328 101.275 91.8977 116 96.9509 122.985C102.004 129.97 118.627 126.57 134.08 115.39Z" fill="#B9D3F9"/>
<path d="M106.076 127.187C101.695 127.187 98.4375 125.895 96.5839 123.311C94.0001 119.772 94.6181 114.268 98.2689 107.808C101.864 101.517 107.986 95.0576 115.513 89.6095C123.04 84.161 131.128 80.3415 138.206 78.881C145.451 77.4205 150.844 78.5438 153.427 82.1388C156.011 85.6774 155.393 91.1823 151.742 97.6415C148.147 103.933 142.025 110.392 134.498 115.84C126.972 121.289 118.883 125.108 111.806 126.569C109.727 126.962 107.818 127.187 106.076 127.187ZM143.879 79.3304C136.464 79.3304 126.073 83.3184 116.131 90.5083C100.965 101.518 92.5396 115.953 97.4264 122.693C102.313 129.434 118.659 125.951 133.824 114.998C148.99 103.989 157.416 89.5532 152.529 82.8131C150.844 80.4538 147.754 79.3304 143.879 79.3304Z" fill="#B9D3F9"/>
<path d="M96.9772 123.536C96.865 123.536 96.7527 123.479 96.6401 123.423C96.4155 123.255 96.4155 122.862 96.5837 122.637C113.94 102.416 138.149 90.2271 138.43 90.1148C138.711 90.0026 139.048 90.1148 139.161 90.3393C139.273 90.6202 139.161 90.9573 138.936 91.0696C138.712 91.1819 114.671 103.259 97.4266 123.311C97.314 123.479 97.1454 123.536 96.9772 123.536Z" fill="#B9D3F9"/>
<path d="M137.984 89.8856C132.962 103.616 118.75 113.285 104.048 110.743C100.185 109.886 98.6594 115.954 102.899 116.814C120.137 119.424 136.851 107.839 142.268 91.5995C143.343 88.8189 139.135 87.1307 137.984 89.8856Z" fill="#332E25"/>
<path d="M136.505 93.1157C134.695 96.695 132.411 99.9443 129.578 102.712C129.022 103.235 128.364 103.808 127.783 104.282C121.263 109.736 112.354 111.983 104.048 110.743C103.019 110.56 102.189 110.78 101.557 111.278L105.156 113.891C105.156 113.891 113.94 114.959 123.296 109.926C132.577 104.869 136.755 93.2429 136.755 93.2429L136.505 93.1157Z" fill="#3F3A31"/>
<path d="M109.55 117.615C107.062 117.773 104.902 117.707 102.869 117.391C101.49 117.13 100.49 116.369 100.072 115.135C99.6292 113.851 99.8911 112.346 100.778 111.347C101.614 110.374 102.797 109.98 104.177 110.241C112.483 111.482 121.217 109.133 127.484 103.928C128.065 103.455 128.722 102.882 129.228 102.383C132.138 99.5148 134.6 95.9906 136.589 91.8851C136.716 91.6349 137.044 91.5367 137.294 91.6642C137.544 91.7918 137.642 92.1189 137.515 92.3691C135.474 96.6251 132.936 100.249 129.926 103.166C129.37 103.69 128.713 104.263 128.131 104.736C121.586 110.14 112.6 112.613 103.943 111.294C102.965 111.086 102.109 111.381 101.551 112.03C100.968 112.755 100.734 113.808 101.055 114.715C101.325 115.521 102.05 116.104 103.003 116.261C104.885 116.526 106.995 116.616 109.432 116.483C116.87 116.084 124.049 113.373 129.608 108.891C133.474 105.804 136.743 101.758 139.366 96.778C139.494 96.5278 139.821 96.4296 140.071 96.5571C140.321 96.6847 140.42 97.0118 140.292 97.262C137.618 102.392 134.272 106.538 130.28 109.75C128.309 111.344 126.164 112.71 123.845 113.849C119.459 116.003 114.526 117.299 109.55 117.615Z" fill="#2D1D1D"/>
<path d="M143.886 98.6653C143.886 98.6653 133.636 31.1227 132.216 31.3291C130.934 31.517 140.277 99.2105 140.277 99.2105C140.447 100.256 141.387 100.972 142.393 100.821C143.438 100.652 144.154 99.711 143.886 98.6653Z" fill="#4150D8"/>
<path d="M142.37 101.274C141.778 101.368 141.168 101.226 140.679 100.829C140.189 100.431 139.878 99.8973 139.823 99.2861C139.804 99.1481 137.464 82.1901 135.319 65.4305C134.07 55.5916 133.102 47.725 132.493 42.0865C131.292 31.0466 131.607 30.9895 132.159 30.9146C132.711 30.8398 133.046 30.8225 135.056 41.7107C136.08 47.2928 137.442 55.0641 139.026 64.8857C141.762 81.5512 144.32 98.4517 144.358 98.6291C144.452 99.2209 144.31 99.8305 143.971 100.34C143.733 100.654 143.455 100.888 143.139 101.044C142.942 101.141 142.725 101.198 142.37 101.274ZM140.71 99.194C140.787 99.5492 140.962 99.9049 141.275 100.144C141.588 100.382 141.962 100.444 142.337 100.407C142.711 100.37 143.048 100.156 143.286 99.8426C143.506 99.4897 143.587 99.1553 143.531 98.7413C139.994 75.5498 134.622 41.8262 132.594 33.4985C133.084 42.0909 137.529 75.926 140.71 99.194Z" fill="#31409B"/>
<path d="M138.434 97.2994C138.434 97.2994 139.32 92.8595 139.679 91.807C140.038 90.7544 140.972 86.6666 139.207 87.5333C137.493 88.375 137.143 91.7386 137.143 91.7386L138.434 97.2994Z" fill="#332E25"/>
<path d="M145.164 90.6154C145.249 92.7012 144.213 93.5228 143.862 93.4447C143.511 93.3667 142.412 92.5298 142.022 90.844C141.632 89.1582 141.327 86.1164 142.837 85.7503C144.196 85.4586 145.078 88.5297 145.164 90.6154Z" fill="#332E25"/>
<path d="M138.594 99.5362C138.318 99.4839 138.093 99.2815 138.12 98.9552C138.176 98.3026 138.667 92.8046 139.052 91.6768C139.513 90.4492 139.754 88.3908 139.505 88.0126C139.505 88.0126 139.455 88.0376 139.354 88.0871C138.144 88.6813 137.495 91.6804 137.362 92.6843C137.362 92.6843 136.983 92.9434 136.707 92.8915C136.431 92.8396 136.232 92.5615 136.284 92.2855C136.363 91.8088 136.993 87.9949 138.909 87.0543C139.615 86.7078 140.065 86.9871 140.265 87.1396C141.413 88.203 140.205 91.9874 140.155 92.0123C139.949 92.7394 139.469 96.6043 139.276 99.0147C139.249 99.2155 138.996 99.465 138.996 99.465C138.895 99.5132 138.82 99.4875 138.594 99.5362Z" fill="#2D1D1D"/>
<path d="M143.784 93.9218C143.209 93.7255 141.933 92.8282 141.494 90.9159C141.299 90.1357 140.741 87.3435 141.63 85.9683C141.86 85.543 142.238 85.2943 142.691 85.197C143.144 85.0996 143.57 85.2034 143.97 85.5076C145.194 86.4708 145.752 89.1379 145.767 90.5699C145.808 91.9266 145.423 93.0543 144.715 93.6522C144.589 93.777 144.488 93.8264 144.387 93.8759C144.185 93.9749 143.975 93.9874 143.784 93.9218ZM142.606 86.5529C142.098 87.3028 142.21 89.1878 142.576 90.6974C142.868 92.0561 143.692 92.7152 143.967 92.893C144.194 92.7188 144.676 92.0441 144.662 90.6121C144.598 88.9537 143.984 86.9395 143.285 86.4072C143.085 86.2551 142.96 86.2543 142.909 86.2789C142.859 86.3034 142.859 86.3038 142.808 86.3284C142.758 86.3529 142.682 86.4531 142.606 86.5529Z" fill="#2D1D1D"/>
<path d="M85.9842 197.567C120.625 197.567 148.707 195.454 148.707 192.849C148.707 190.243 120.625 188.13 85.9842 188.13C51.3433 188.13 23.2612 190.243 23.2612 192.849C23.2612 195.454 51.3433 197.567 85.9842 197.567Z" fill="#C7D1EA"/>
<path d="M60.7083 190.041C61.9439 194.309 74.7509 192.344 74.6946 188.749C73.5149 184.368 60.3148 186.446 60.7083 190.041Z" fill="#332E25"/>
<path d="M67.2805 181.222C67.8422 184.255 71.2122 195.32 74.6386 188.748C73.4589 184.199 71.1559 179.649 72.167 174.762C72.7287 170.718 74.7508 166.73 77.7278 164.033C80.7611 161.393 76.773 156.731 73.7398 159.372C68.0104 164.876 65.5392 173.47 67.2805 181.222Z" fill="#332E25"/>
<path d="M60.7085 190.041C60.7648 190.546 61.1016 190.995 61.6632 191.333C62.0004 188.974 66.8309 188.075 69.4707 187.738C70.5381 187.625 71.268 187.569 71.268 187.569C71.268 187.569 71.0435 187.12 70.7626 186.389C69.8638 184.143 67.898 179.143 68.2351 175.717C69.0776 167.629 72.3917 165.663 72.3917 165.663L71.0998 162.405C67.2804 167.741 65.8762 174.762 67.2804 181.222C67.6175 182.963 68.1792 184.648 68.8531 186.277C68.4037 186.277 67.8984 186.277 67.3926 186.333C63.5168 186.726 60.5399 188.356 60.7085 190.041Z" fill="#3F3A31"/>
<path d="M78.4016 159.372C77.2219 158.024 75.0875 157.462 73.2902 158.978C67.5045 164.595 64.9206 173.358 66.662 181.334C66.9529 182.788 67.4168 184.284 67.97 185.786C67.7612 185.794 67.5496 185.804 67.3367 185.828C63.0115 186.277 59.9782 188.074 60.1468 190.097C60.3154 191.838 62.9009 193.08 66.3815 192.961C69.6735 192.849 71.7009 192.256 73.0657 191.557C76.171 189.966 75.1889 188.2 74.863 187.176C74.1693 184.996 73.2339 183.019 72.8408 180.997C72.4477 178.975 72.3914 176.841 72.6722 174.818C73.2339 170.887 75.256 167.011 78.0644 164.427C79.8057 162.91 79.5812 160.719 78.4016 159.372ZM77.3346 163.584C74.3013 166.393 72.1668 170.381 71.6052 174.65C71.3243 176.784 71.3581 179.035 71.8297 181.222C72.3918 183.828 74.1424 187.552 74.1331 188.805C74.1275 189.607 73.5714 190.04 72.5603 190.602C71.3247 191.276 69.6957 191.725 67.8984 191.894C66.1011 192.062 64.3598 191.894 63.0678 191.501C61.9445 191.164 61.2706 190.602 61.2142 190.04C61.1579 189.479 61.7759 188.805 62.787 188.243C64.0226 187.569 65.6517 187.12 67.449 186.951C67.8984 186.895 68.3478 186.895 68.7972 186.895C69.1344 186.895 69.3589 186.614 69.3589 186.333C69.3589 186.18 68.0601 182.651 67.7294 181.053C66.0444 173.414 68.516 165.045 74.0204 159.709C75.3124 158.642 76.7166 159.091 77.5591 160.046C78.402 161.001 78.6265 162.461 77.3346 163.584Z" fill="#2D1D1D"/>
<path d="M57.4892 137.297C60.0167 160.439 85.0124 183.356 108.604 174.313C109.446 173.976 110.289 173.639 111.131 173.19C114.333 171.673 117.197 169.426 119.445 166.674C121.017 164.764 122.309 162.574 123.152 160.214C127.364 148.756 123.489 134.938 115.85 125.726C113.378 122.805 107.705 115.784 103.267 110.167C100.178 106.291 97.6504 103.09 97.2573 102.472L60.9715 101.461C60.5784 101.854 59.7918 105 59.0616 109.381C57.4333 118.143 55.9169 131.737 57.4892 137.297Z" fill="#F9C710"/>
<path d="M57.5458 138.196C60.5791 161.057 85.2935 183.3 108.548 174.369C93.101 176.616 75.6324 167.011 67.9372 150.104C60.1856 133.084 64.7917 113.256 64.7917 113.256L58.95 109.38C57.4895 117.806 56.029 130.612 57.265 136.566C57.3773 137.072 57.4895 137.634 57.5458 138.196Z" fill="#F8A01F"/>
<path d="M119.445 166.674C121.017 164.764 122.309 162.573 123.152 160.214C127.364 148.755 123.489 134.938 115.85 125.726C113.378 122.805 107.705 115.784 103.268 110.167L97.0889 112.301C97.0889 112.301 109.895 123.816 117.535 138.87C124.949 153.53 119.726 166.056 119.445 166.674Z" fill="#FFD95F"/>
<path d="M57.0962 122.469C89.1127 127.187 106.525 114.324 106.525 114.324C100.852 107.247 97.201 102.416 97.201 102.416L68.1614 101.574L60.8593 101.349C60.8593 101.349 59.6237 105.169 58.5563 110.954C57.995 114.324 57.4334 118.256 57.0962 122.469Z" fill="#332E25"/>
<path d="M97.8196 176.841C92.1466 176.841 86.305 175.268 80.6879 172.179C67.8813 165.045 58.3324 151.059 56.9282 137.353C55.58 123.479 58.1079 110.785 60.4109 101.292C60.4673 101.068 60.6918 100.899 60.9163 100.899L97.202 101.911C97.3706 101.911 97.5392 102.023 97.6515 102.135C98.6626 103.596 111.975 120.334 116.244 125.389C124.613 135.612 127.59 149.655 123.602 160.439C121.524 166.112 117.03 170.943 111.301 173.695C107.031 175.773 102.482 176.841 97.8196 176.841ZM57.9953 137.241C59.3994 150.609 68.7238 164.258 81.2495 171.223C91.1355 176.728 101.639 177.234 110.907 172.74C116.412 170.1 120.68 165.494 122.647 160.046C127.084 148.025 122.254 134.32 115.457 126.063C111.357 121.232 98.8307 105.449 96.9771 102.977L61.3657 101.966C59.0623 111.347 56.7033 123.704 57.9953 137.241Z" fill="#2D1D1D"/>
<path d="M91.4162 168.752C91.3039 169.37 92.0342 170.044 93.1012 170.268C94.1682 170.493 95.1234 170.156 95.2919 169.538C95.4042 168.92 94.6739 168.246 93.6069 168.022C92.4832 167.853 91.5284 168.134 91.4162 168.752Z" fill="#F4B503"/>
<path d="M100.942 171.659C101.161 171.078 100.514 170.298 99.4976 169.916C98.4813 169.534 97.4805 169.695 97.2621 170.275C97.0437 170.856 97.6905 171.636 98.7067 172.019C99.723 172.401 100.724 172.24 100.942 171.659Z" fill="#F4B503"/>
<path d="M94.1681 171.673C93.9995 172.122 94.4489 172.684 95.2351 172.965C95.9653 173.246 96.6956 173.133 96.8642 172.684C97.0327 172.234 96.5833 171.673 95.7971 171.392C95.0106 171.167 94.2803 171.28 94.1681 171.673Z" fill="#F4B503"/>
<path d="M93.6064 176.11C94.9547 176.279 96.3589 176.391 97.7631 176.391C101.358 176.391 105.009 175.717 108.66 174.313C108.885 174.425 109.165 174.482 109.39 174.538C114.277 176.223 118.602 176.953 121.86 177.234C126.073 177.627 128.544 177.234 128.544 177.234C123.658 175.661 119.614 170.718 118.378 168.977C118.097 168.584 117.928 168.359 117.928 168.359C121.186 165.101 123.208 161.113 124.163 156.844C124.051 157.069 118.265 171.167 93.6064 176.11Z" fill="#332E25"/>
<path d="M118.321 168.977C118.321 169.089 118.546 174.426 121.804 177.234C126.017 177.627 128.488 177.234 128.488 177.234C123.657 175.661 119.613 170.718 118.321 168.977Z" fill="#3F3A31"/>
<path d="M108.66 174.874C103.83 176.728 98.7745 177.063 93.6068 176.333C93.3259 176.277 93.0455 176.335 93.1014 176.054C93.1014 175.773 93.3259 175.605 93.5508 175.549C117.816 170.718 123.601 156.788 123.658 156.62C123.77 156.339 124.051 156.227 124.332 156.283C124.613 156.338 124.414 156.642 124.358 156.923C123.347 161.416 121.692 165.214 118.659 168.359C119.67 169.763 123.77 175.1 128.769 176.672C128.994 176.729 129.162 176.953 129.162 177.234C129.162 177.459 128.938 177.684 128.713 177.74C128.488 177.795 119.076 178.393 108.66 174.874ZM126.241 176.784C121.411 174.257 117.928 169.258 117.535 168.696C117.366 168.472 117.366 168.191 117.591 167.966C119.557 165.944 121.13 163.641 122.253 161.057C118.939 165.438 111.75 172.178 97.2576 175.829C101.077 175.885 104.897 175.211 108.491 173.807C108.907 173.616 114.694 176.785 126.241 176.784Z" fill="#2D1D1D"/>
<path d="M57.4893 137.297C57.8264 139.881 58.3881 142.465 59.1183 144.993C59.7363 147.015 60.5225 148.981 61.4773 150.946C61.4773 150.946 93.0448 145.554 111.862 129.489C113.266 128.31 114.614 127.018 115.85 125.726C114.782 124.434 113.772 123.198 112.76 121.962C112.76 121.962 111.3 123.086 108.435 124.771C100.796 129.153 83.3274 137.185 57.4893 137.297Z" fill="#332E25"/>
<path d="M108.379 124.771C108.379 124.771 110.458 127.411 111.862 129.489C113.266 128.31 114.615 127.018 115.85 125.726C114.783 124.434 113.772 123.198 112.761 121.962C112.761 121.962 111.244 123.086 108.379 124.771Z" fill="#3F3A31"/>
<path d="M61.5902 151.621C61.3657 151.621 61.1971 151.509 61.0848 151.284C60.2987 149.542 59.1749 147.015 58.5573 145.105C57.8271 142.69 57.2654 140.049 56.9282 137.353C56.9282 137.185 56.9282 137.016 57.0405 136.904C57.1527 136.792 57.265 136.735 57.4336 136.735C92.4833 136.623 112.199 121.682 112.368 121.513C112.592 121.345 112.71 121.412 112.879 121.637C113.89 122.872 115.013 124.18 116.08 125.472C116.249 125.696 116.355 125.839 116.187 126.064C98.3246 144.993 61.9829 151.564 61.6457 151.621H61.5902ZM58.1075 137.803C58.4447 140.274 59.0063 142.633 59.6239 144.824C60.1293 146.565 61.1404 148.812 61.9269 150.497C65.9713 149.711 98.4372 143.026 115.176 125.726C114.333 124.715 113.491 123.704 112.704 122.749C109.615 124.884 90.2926 137.578 58.1075 137.803Z" fill="#2D1D1D"/>
<path d="M70.858 124.041C66.5891 124.041 61.9831 123.76 57.0403 123.03C56.7595 122.973 57.0403 122.636 57.0962 122.355C57.1526 122.074 56.9281 121.906 57.2089 121.962C85.7994 126.175 102.819 116.177 105.796 114.211C101.021 108.257 97.7072 103.932 96.977 102.977L60.9161 101.966C60.6353 101.966 60.4108 101.685 60.4108 101.404C60.4108 101.123 60.6916 100.843 60.9724 100.899L97.2582 101.91C97.4268 101.91 97.5954 101.966 97.6513 102.134C97.7076 102.191 101.358 107.021 106.976 113.986C107.088 114.099 107.088 114.267 107.088 114.379C107.088 114.548 106.976 114.66 106.863 114.717C106.75 114.885 93.9996 124.041 70.858 124.041Z" fill="#2D1D1D"/>
<path d="M61.8237 37.277C61.6552 35.1426 61.4307 32.9518 61.0935 30.7615C60.7563 28.5707 60.3632 26.4363 59.8579 24.3019C59.3525 22.1674 58.7345 20.033 58.0606 17.9549C57.3867 15.8768 56.5442 13.8546 55.589 11.8887C55.4204 11.4957 55.589 11.0462 55.9821 10.8777C56.3752 10.7091 56.7683 10.8777 56.9932 11.2148C58.0602 13.1807 59.0713 15.2592 59.9142 17.3373C60.7567 19.4154 61.487 21.5498 62.1609 23.7406C62.7789 25.9314 63.3406 28.1217 63.8459 30.3125C64.2953 32.5592 64.6884 34.7499 65.0256 37.0529C65.1379 37.8954 64.5203 38.682 63.6773 38.7943C62.8348 38.9065 62.0483 38.2889 61.936 37.446C61.8237 37.3893 61.8237 37.3893 61.8237 37.277Z" fill="#332E25"/>
<path d="M93.1551 37.0307C93.4613 34.7208 93.8383 32.5143 94.3264 30.2926C94.8148 28.0709 95.3664 25.8974 96.0291 23.7082C96.6362 21.5267 97.4256 19.4337 98.2709 17.3331C99.1163 15.2325 100.143 13.2204 101.227 11.2002C101.459 10.828 101.896 10.7113 102.261 10.888C102.625 11.0646 102.742 11.5023 102.566 11.8665C101.649 13.8633 100.789 15.8529 100.055 17.9382C99.377 20.0159 98.7622 22.1415 98.2585 24.2518C97.7547 26.3621 97.3146 28.5207 96.9931 30.7191C96.664 32.862 96.4061 35.1091 96.2439 37.229L96.2516 37.2845C96.1993 38.1423 95.4336 38.7579 94.6317 38.698C93.7739 38.6457 93.1583 37.88 93.2183 37.0781C93.1068 37.0938 93.0992 37.0383 93.1551 37.0307Z" fill="#332E25"/>
<path d="M63.4757 39.3509C63.0178 39.3509 62.5728 39.1976 62.1991 38.9071C61.82 38.6122 61.5565 38.2086 61.4427 37.7536C61.334 37.6373 61.2845 37.4937 61.2805 37.3014C61.0882 34.8724 60.8516 32.7601 60.5563 30.8441C60.1914 28.4731 59.7902 26.3741 59.3291 24.4268C58.864 22.4633 58.2637 20.3422 57.5435 18.1224C56.9086 16.1646 56.1092 14.2032 55.1001 12.1259C54.9512 11.7811 54.9436 11.4262 55.0675 11.1039C55.1939 10.7756 55.4425 10.5177 55.7676 10.3785C56.3816 10.1158 57.0555 10.3298 57.4446 10.9132C57.4534 10.9269 57.4623 10.941 57.4699 10.9555C58.6287 13.0907 59.6204 15.1688 60.4171 17.1331C61.1952 19.0522 61.9351 21.1613 62.6799 23.5806C63.3011 25.7835 63.87 28.0032 64.3749 30.1899C64.871 32.6696 65.2472 34.8201 65.5626 36.9739C65.6371 37.5327 65.4862 38.0831 65.1382 38.5305C64.7934 38.9743 64.2997 39.2592 63.7489 39.3324C63.6576 39.3453 63.5662 39.3509 63.4757 39.3509ZM62.3556 37.1143C62.4175 37.1915 62.4622 37.282 62.4743 37.3742C62.5097 37.6409 62.6489 37.8807 62.8661 38.0497C63.0818 38.2175 63.3441 38.2903 63.6056 38.2557C63.8724 38.2203 64.1118 38.0811 64.2808 37.8638C64.4486 37.6482 64.5218 37.3854 64.4868 37.1243C64.1754 34.9963 63.802 32.8635 63.3132 30.4185C62.8159 28.2639 62.251 26.0611 61.6378 23.8876C60.9063 21.511 60.1765 19.4309 59.4104 17.541C58.6319 15.6227 57.663 13.59 56.5292 11.4995C56.4769 11.4278 56.359 11.3059 56.1957 11.3767C56.1269 11.4061 56.0955 11.4568 56.081 11.4938C56.0593 11.5501 56.0617 11.6141 56.0875 11.6741C57.1082 13.7739 57.9258 15.7812 58.5768 17.7869C59.3058 20.0344 59.9141 22.1841 60.3857 24.1761C60.8536 26.1516 61.2604 28.2784 61.6297 30.6784C61.9251 32.5947 62.1628 34.7014 62.3556 37.1143Z" fill="#2D1D1D"/>
<path d="M94.737 39.2449C94.6883 39.2449 94.6396 39.2433 94.5909 39.2393C94.0502 39.2063 93.548 38.958 93.1839 38.5408C92.897 38.2121 92.7216 37.8009 92.6802 37.3764C92.574 37.2248 92.549 37.0159 92.619 36.8441C92.6246 36.8301 92.6303 36.8168 92.6371 36.8035C92.9509 34.4639 93.3308 32.294 93.7959 30.1757C94.3173 27.8035 94.8774 25.6364 95.5094 23.5503C96.1524 21.2392 97.0114 19.007 97.767 17.1297C98.657 14.918 99.7256 12.8492 100.748 10.9429C101.141 10.3104 101.87 10.0939 102.498 10.3985C103.126 10.7027 103.37 11.451 103.055 12.1024C102.318 13.7074 101.365 15.8518 100.568 18.1178C99.8616 20.28 99.2613 22.3899 98.7869 24.3771C98.2349 26.6898 97.8237 28.7896 97.5304 30.7969C97.2077 32.8967 96.9519 35.112 96.7897 37.2107C96.7945 37.2457 96.7957 37.2811 96.7937 37.3165C96.7603 37.8641 96.5121 38.3662 96.0953 38.7307C95.7163 39.0619 95.2286 39.2449 94.737 39.2449ZM93.7234 36.8779C93.7528 36.9536 93.7657 37.0357 93.7601 37.1185C93.7412 37.37 93.8297 37.6283 94.0031 37.8267C94.1745 38.023 94.4098 38.1401 94.6649 38.1554C94.9232 38.1743 95.1823 38.0862 95.3807 37.9128C95.565 37.7522 95.6788 37.5358 95.7054 37.2996C95.7006 37.2622 95.6994 37.2244 95.7026 37.1869C95.8663 35.0436 96.1274 32.7785 96.4566 30.636C96.7539 28.6001 97.1707 26.4693 97.7304 24.1248C98.2116 22.1091 98.8203 19.9706 99.5393 17.769C100.355 15.4499 101.321 13.2756 102.072 11.6393C102.12 11.5395 102.116 11.4208 102.024 11.3762C101.899 11.3154 101.767 11.3593 101.688 11.4868C100.698 13.3356 99.6455 15.3727 98.7749 17.5353C98.0309 19.3848 97.1852 21.5816 96.5531 23.8533C95.9259 25.9241 95.3727 28.0646 94.8572 30.4086C94.4022 32.4767 94.0316 34.595 93.7234 36.8779Z" fill="#2D1D1D"/>
<path d="M77.879 111.684H79.8448C103.998 111.852 122.14 107.078 122.309 82.8687C122.478 58.7156 99.7287 30.1814 80.3502 30.0132C79.1705 30.0132 77.9349 30.1254 76.6993 30.294C76.1376 30.4063 75.576 30.4626 75.0143 30.6312C56.5906 34.8437 37.8301 60.2887 37.7178 82.3074C37.6056 105.898 54.7374 111.29 77.879 111.684Z" fill="#F9C710"/>
<path d="M77.879 111.684C77.879 111.684 67.2628 111.066 54.2317 104.438C41.2001 97.8662 37.2684 75.7916 47.8847 56.5817C58.4446 37.4841 74.9584 30.6877 75.0706 30.6313C56.6469 34.8439 37.8864 60.2889 37.7742 82.3076C37.6056 105.898 54.7374 111.29 77.879 111.684Z" fill="#F8A01F"/>
<path d="M77.8788 111.684H79.8447C103.998 111.852 122.14 107.078 122.309 82.8687C122.477 58.7156 99.7285 30.1814 80.35 30.0132C79.1703 30.0132 77.9347 30.1254 76.6991 30.294C75.4635 30.4626 87.1468 28.3282 101.751 44.224C116.355 60.1198 120.905 79.3301 118.545 91.6313C116.187 103.932 100.235 110.223 77.8788 111.684Z" fill="#FFD95F"/>
<path d="M80.9124 112.246C80.5752 112.246 80.1821 112.246 79.8454 112.246C65.8028 112.133 56.1417 110.336 49.4012 106.516C41.1443 101.798 37.1 93.8781 37.2122 82.363C37.3808 57.5924 60.2416 29.5635 80.2381 29.5635H80.3503C89.6183 29.6198 100.347 36.1917 109.053 47.1447C117.759 58.0977 122.871 71.466 122.814 82.9247C122.758 94.4394 118.658 102.303 110.289 106.909C103.774 110.56 94.3933 112.246 80.9124 112.246ZM80.2385 30.6309C71.0827 30.6309 60.5791 36.9219 52.0414 47.4819C43.5037 58.0418 38.336 71.0733 38.2801 82.4194C38.2237 93.4846 42.0436 101.124 49.907 105.617C56.4225 109.325 65.9154 111.122 79.7891 111.234C93.6627 111.347 103.156 109.662 109.784 106.011C117.76 101.573 121.692 94.0467 121.748 82.9815C121.804 71.7476 116.749 58.6602 108.211 47.8753C99.6733 37.1469 89.282 30.7436 80.3507 30.6876C80.3507 30.6309 80.2948 30.6309 80.2385 30.6309Z" fill="#A55A0F"/>
<path d="M103.375 84.3971C106.83 83.1855 108.025 77.6215 106.043 71.9696C104.061 66.3177 99.6535 62.7181 96.1981 63.9297C92.7426 65.1413 91.5479 70.7053 93.5297 76.3572C95.5115 82.0091 99.9192 85.6087 103.375 84.3971Z" fill="white"/>
<path d="M101.92 85.1717C98.4935 85.1717 94.73 81.689 92.9328 76.5217C91.9217 73.7133 91.6972 70.7923 92.2025 68.3211C92.7642 65.7936 94.0561 63.9959 95.966 63.3783C97.8196 62.7044 99.954 63.2661 101.976 64.8948C103.942 66.4675 105.515 68.8828 106.526 71.7475C107.537 74.5558 107.762 77.4768 107.256 79.948C106.695 82.4756 105.403 84.2732 103.493 84.8908C102.987 85.059 102.482 85.1717 101.92 85.1717ZM97.5388 64.1641C97.0894 64.1641 96.6963 64.2204 96.3032 64.3886C94.7868 64.8939 93.7193 66.4108 93.2699 68.5452C92.7646 70.7919 93.0454 73.488 93.9438 76.1282C95.7974 81.5204 99.9541 84.9468 103.156 83.8234C104.672 83.3181 105.739 81.8012 106.189 79.6668C106.694 77.4201 106.413 74.724 105.515 72.0838C104.56 69.4441 103.1 67.197 101.302 65.7369C100.01 64.7258 98.7181 64.1641 97.5388 64.1641Z" fill="#A55A0F"/>
<path d="M101.895 82.0963C104.033 81.3468 104.767 77.8903 103.534 74.3761C102.302 70.862 99.5704 68.6208 97.4327 69.3703C95.295 70.1199 94.5609 73.5763 95.7931 77.0905C97.0253 80.6047 99.7571 82.8459 101.895 82.0963Z" fill="#22213F"/>
<path d="M98.3814 72.5899C98.6059 73.2639 99.3925 73.5447 100.123 73.3202C100.853 73.0394 101.302 72.3091 101.078 71.6911C100.853 71.0172 100.066 70.7363 99.3362 70.9608C98.55 71.2417 98.1006 71.9719 98.3814 72.5899Z" fill="white"/>
<path d="M58.1272 73.4802C60.2164 67.871 59.1296 62.2883 55.6998 61.0108C52.27 59.7333 47.7959 63.2448 45.7067 68.854C43.6175 74.4631 44.7043 80.0459 48.1341 81.3234C51.5639 82.6009 56.038 79.0893 58.1272 73.4802Z" fill="white"/>
<path d="M49.5696 82.1388C49.0079 82.1388 48.4462 82.0266 47.9405 81.858C46.0869 81.1841 44.795 79.3864 44.2896 76.8589C43.7843 74.3873 44.121 71.5226 45.1885 68.7142C47.3792 62.8163 52.2098 59.1654 55.917 60.5696C57.7706 61.2435 59.0625 63.0412 59.5678 65.5687C60.0732 68.0403 59.7364 70.905 58.669 73.7133C56.7595 78.7125 52.9959 82.1388 49.5696 82.1388ZM54.1756 61.2435C51.2546 61.2435 47.8846 64.389 46.1432 68.9951C45.1885 71.6348 44.8513 74.3313 45.3007 76.578C45.7501 78.7688 46.7612 80.2289 48.2777 80.7906C51.4232 81.9702 55.6357 78.5998 57.602 73.2639C58.5567 70.6241 58.8939 67.9276 58.4445 65.6809C57.9951 63.4902 56.984 62.0301 55.4675 61.4684C55.0741 61.3562 54.625 61.2435 54.1756 61.2435Z" fill="#A55A0F"/>
<path d="M56.5338 74.0036C57.8329 70.5157 57.166 67.0475 55.0441 66.2572C52.9222 65.4668 50.149 67.6537 48.8498 71.1416C47.5507 74.6295 48.2177 78.0977 50.3395 78.888C52.4614 79.6784 55.2346 77.4915 56.5338 74.0036Z" fill="#22213F"/>
<path d="M53.6701 70.1745C53.8387 70.8484 54.569 71.2415 55.3551 71.0733C56.1413 70.9048 56.6471 70.2308 56.4785 69.5569C56.3099 68.883 55.5796 68.4895 54.7935 68.6581C54.0073 68.8263 53.5015 69.5002 53.6701 70.1745Z" fill="white"/>
<path d="M90.2924 54.0537C92.9885 55.1771 95.5724 55.0648 96.0777 53.8292C96.5831 52.5936 94.7858 50.6837 92.0897 49.6167C89.3936 48.4934 86.8097 48.6056 86.3044 49.8412C85.799 51.0205 87.5963 52.9304 90.2924 54.0537Z" fill="#F8A01F"/>
<path d="M93.7751 55.3457C92.6518 55.3457 91.3599 55.0649 90.1243 54.5596C87.0351 53.324 85.2374 51.1895 85.8554 49.6168C86.4734 48.044 89.2818 47.8195 92.371 49.0551C93.7752 49.6168 94.9548 50.4034 95.741 51.2459C96.6398 52.2006 96.9766 53.1558 96.6398 53.9983C96.3027 54.7845 95.4042 55.2902 94.1123 55.3465C93.9437 55.3457 93.8315 55.3457 93.7751 55.3457ZM88.6074 49.3355C87.6527 49.3355 86.9784 49.56 86.8102 50.0095C86.473 50.852 87.9899 52.537 90.5174 53.5481C91.753 54.0534 92.989 54.2783 94.0001 54.2783C94.8426 54.222 95.4606 53.9975 95.6291 53.6044C95.7977 53.2113 95.5169 52.6496 94.9552 52.0316C94.2813 51.3014 93.2139 50.5711 91.9783 50.1217C90.686 49.56 89.5626 49.3355 88.6074 49.3355Z" fill="#A55A0F"/>
<path d="M63.4994 54.1658C66.3641 53.4919 68.3862 51.9191 68.1054 50.6272C67.8246 49.3353 65.2407 48.7736 62.4323 49.4475C59.5677 50.1215 57.5455 51.6942 57.8263 52.9862C58.1072 54.2781 60.691 54.7838 63.4994 54.1658Z" fill="#F8A01F"/>
<path d="M61.1406 54.9521C59.0625 54.9521 57.5457 54.2782 57.2648 53.0422C56.8717 51.4131 59.0621 49.6158 62.2639 48.8855C65.5217 48.1553 68.2178 48.8292 68.6109 50.4583C68.7795 51.3008 68.3301 52.1997 67.2627 53.0422C66.3079 53.7724 65.016 54.3341 63.5555 54.6713C62.7693 54.8962 61.9268 54.9521 61.1406 54.9521ZM64.7915 49.6725C64.1175 49.6725 63.3873 49.7289 62.6007 49.9534C59.9609 50.5714 58.2196 51.9755 58.3882 52.8181C58.6127 53.6606 60.8034 54.2222 63.4436 53.6042C64.7355 53.3234 65.9152 52.8181 66.7014 52.2001C67.3753 51.6947 67.7125 51.1326 67.6561 50.7395C67.4876 50.1215 66.3642 49.6725 64.7915 49.6725Z" fill="#A55A0F"/>
<path d="M91.1335 35.7635C91.3891 35.1983 90.7945 34.3775 89.8054 33.9302C88.8163 33.4829 87.8073 33.5784 87.5517 34.1436C87.2961 34.7088 87.8907 35.5296 88.8798 35.9769C89.8688 36.4242 90.8779 36.3287 91.1335 35.7635Z" fill="#F4B503"/>
<path d="M96.2606 39.0544C96.6012 38.5357 96.1415 37.632 95.2338 37.036C94.3262 36.4399 93.3143 36.3772 92.9736 36.8958C92.633 37.4145 93.0927 38.3182 94.0004 38.9142C94.908 39.5103 95.92 39.573 96.2606 39.0544Z" fill="#F4B503"/>
<path d="M91.9724 39.1246C92.2279 38.7356 91.9094 38.0751 91.2611 37.6493C90.6128 37.2236 89.8801 37.1938 89.6246 37.5828C89.3692 37.9718 89.6877 38.6323 90.336 39.058C90.9843 39.4838 91.717 39.5136 91.9724 39.1246Z" fill="#F4B503"/>
<path d="M114.839 129.546C114.501 129.826 114.67 130.5 115.232 131.062C115.737 131.624 116.411 131.792 116.748 131.511C117.085 131.231 116.917 130.557 116.355 129.995C115.85 129.49 115.176 129.265 114.839 129.546Z" fill="#F9C710"/>
<path d="M117.591 132.691C117.254 132.916 117.31 133.646 117.703 134.264C118.096 134.882 118.77 135.163 119.107 134.938C119.445 134.713 119.388 133.983 118.995 133.365C118.546 132.747 117.928 132.467 117.591 132.691Z" fill="#F9C710"/>
<path d="M116.401 133.822C116.655 133.645 116.618 133.15 116.317 132.717C116.015 132.284 115.565 132.077 115.31 132.254C115.056 132.431 115.093 132.926 115.394 133.359C115.695 133.791 116.146 133.999 116.401 133.822Z" fill="#F9C710"/>
<path d="M68.6675 161.675C71.7007 165.157 75.2953 168.247 79.1711 170.662C79.1711 170.662 105.627 163.416 120.119 145.947C121.411 144.431 122.59 142.802 123.657 141.117L121.692 135.387C121.692 135.387 120.793 137.297 118.097 140.105C112.424 146.116 98.7181 156.395 68.6675 161.675Z" fill="#332E25"/>
<path d="M118.097 140.105C118.097 140.105 119.276 142.521 120.119 145.947C121.411 144.431 122.59 142.802 123.657 141.117L121.692 135.387C121.692 135.387 120.793 137.297 118.097 140.105Z" fill="#3F3A31"/>
<path d="M79.1709 171.223C79.0586 171.223 79.0011 170.967 78.9448 170.91C75.069 168.495 71.6293 165.551 68.4838 161.956C68.3716 161.788 68.1052 161.675 68.1615 161.506C68.2179 161.337 68.386 161.225 68.5546 161.169C91.1909 157.181 104.335 150.272 111.3 145.217C118.883 139.768 121.129 135.163 121.129 135.106C121.129 135.05 121.186 135.05 121.186 134.994C121.298 134.825 121.523 134.77 121.691 134.77C121.915 134.826 121.874 134.993 121.987 135.162L123.904 140.863V141.137C123.904 141.249 124.106 141.229 124.106 141.285C110.962 162.18 79.6199 170.999 79.3391 171.055C79.2835 171.223 79.2272 171.223 79.1709 171.223ZM69.7347 162.068C72.5994 165.213 75.8572 167.909 79.2835 170.1C82.0919 169.258 110.682 160.551 123.096 141.061L121.58 136.679C120.456 138.364 117.76 141.959 112.087 146.06C105.065 151.115 92.0901 157.967 69.7347 162.068Z" fill="#2D1D1D"/>
<path d="M107.705 192.68C111.019 194.534 117.366 182.177 114.221 180.267C109.615 178.694 104.616 190.995 107.705 192.68Z" fill="#332E25"/>
<path d="M103.942 180.38C106.582 181.671 112.929 186.671 114.839 182.626C115.12 181.784 114.839 180.885 114.277 180.267C106.47 177.234 99.2799 170.831 99.3922 161.788C100.572 157.35 94 155.497 93.2697 160.215C93.0448 168.19 97.3137 176.054 103.942 180.38Z" fill="#332E25"/>
<path d="M113.041 184.199C112.255 187.232 109.784 191.557 107.705 192.68C109.166 193.411 111.805 191.22 113.547 187.794C115.232 184.48 115.513 181.278 114.221 180.323C113.996 180.098 113.715 179.93 113.378 179.818C111.244 179.031 109.278 178.02 107.48 176.784C105.739 175.605 104.11 174.088 102.874 172.347C100.628 169.37 99.3356 165.55 99.3356 161.843C99.2793 162.068 98.1 169.033 101.301 173.302C104.166 177.178 108.884 179.705 111.637 180.716C112.03 180.885 112.311 180.997 112.648 181.054C113.435 181.334 113.491 182.57 113.041 184.199Z" fill="#3F3A31"/>
<path d="M115.456 181.235C115.455 181.231 115.457 181.227 115.456 181.223C115.454 181.216 115.451 181.209 115.45 181.201C115.448 181.194 115.447 181.187 115.445 181.18C115.422 181.08 115.392 180.985 115.357 180.895C115.068 180.102 114.451 179.498 113.659 179.201C111.524 178.415 109.558 177.404 107.873 176.224C106.133 175.044 104.56 173.584 103.38 171.955C101.021 168.81 99.7292 164.597 99.9538 160.777C99.9538 160.496 99.7292 160.216 99.4484 160.216C99.1676 160.216 98.8867 160.44 98.8867 160.721C98.6618 164.877 99.9538 169.202 102.538 172.629C103.773 174.37 105.402 175.943 107.256 177.178C108.997 178.414 111.019 179.425 113.266 180.268C113.446 180.34 113.612 180.443 113.761 180.565C113.978 180.741 114.167 181.123 114.277 181.56C114.614 182.964 114.108 185.323 112.985 187.57C112.198 189.199 111.187 190.547 110.12 191.446C109.222 192.175 108.379 192.456 107.873 192.232C106.862 191.67 106.862 188.749 108.604 185.323C108.94 184.705 109.315 184.139 109.709 183.577C109.711 183.574 109.711 183.571 109.713 183.568C109.72 183.559 109.725 183.548 109.731 183.537C109.749 183.506 109.763 183.473 109.773 183.438C109.776 183.429 109.781 183.422 109.783 183.413C109.896 183.132 109.783 182.795 109.503 182.683C107.593 181.953 105.795 180.998 104.223 179.93C97.7067 175.662 93.6064 167.966 93.7749 160.271C93.7749 159.99 93.5504 159.709 93.2696 159.709C92.9324 159.709 92.7079 159.934 92.7079 160.215C92.5394 168.247 96.8082 176.336 103.661 180.829C105.115 181.782 106.755 182.681 108.488 183.424C108.212 183.862 107.944 184.339 107.705 184.817C105.795 188.637 105.683 192.232 107.48 193.131C107.761 193.299 108.042 193.355 108.379 193.355C109.109 193.355 110.008 192.962 110.795 192.232C111.918 191.221 113.041 189.761 113.94 188.019C115.218 185.519 115.823 182.869 115.456 181.235Z" fill="#2D1D1D"/>
<path d="M99.6166 58.6033C91.9901 58.6033 85.6528 64.218 84.5194 71.5314C81.8587 69.5374 76.2319 66.8916 67.077 69.6988C66.327 61.9689 59.7962 55.9072 51.8724 55.9072C43.447 55.9072 36.5942 62.7599 36.5942 71.1854C36.5942 79.6109 43.447 86.4636 51.8724 86.4636C60.0541 86.4636 66.6654 80.0865 67.1233 72.0726C78.0063 68.4628 83.2597 73.1967 84.3508 74.3696C84.6099 82.5697 91.3548 89.1597 99.6166 89.1597C108.042 89.1597 114.895 82.307 114.895 73.8815C114.895 65.4561 108.042 58.6033 99.6166 58.6033ZM51.8724 84.1606C44.7389 84.1606 38.8973 78.319 38.8973 71.1854C38.8973 64.0519 44.7389 58.2102 51.8724 58.2102C59.0623 58.2102 64.8476 64.0519 64.8476 71.1854C64.8476 78.319 59.006 84.1606 51.8724 84.1606ZM99.6166 86.8567C92.483 86.8567 86.6414 81.0151 86.6414 73.8815C86.6414 66.748 92.483 60.9063 99.6166 60.9063C106.75 60.9063 112.592 66.748 112.592 73.8815C112.592 81.0151 106.75 86.8567 99.6166 86.8567Z" fill="#4150D8"/>
<path d="M99.617 89.6627C91.1098 89.6627 84.2237 83.0534 83.8556 74.5796C82.6719 73.3838 77.6522 69.2333 67.6021 72.4456C66.9583 80.6164 60.1149 86.9666 51.8724 86.9666C43.171 86.9666 36.0913 79.8873 36.0913 71.1854C36.0913 62.4835 43.1706 55.4043 51.8724 55.4043C59.8344 55.4043 66.4522 61.2274 67.5079 69.0466C75.927 66.6345 81.361 68.8084 84.1654 70.6672C85.6701 63.4492 92.1748 58.1008 99.6166 58.1008C108.318 58.1008 115.398 65.18 115.398 73.8819C115.398 82.583 108.318 89.6627 99.617 89.6627ZM74.6278 70.2472C80.7957 70.2472 83.9895 73.2418 84.7198 74.0268C84.8027 74.1157 84.8505 74.232 84.8542 74.3535C85.1072 82.3742 91.5922 88.6568 99.6174 88.6568C107.764 88.6568 114.393 82.0286 114.393 73.8815C114.393 65.7345 107.764 59.1063 99.6174 59.1063C92.3985 59.1063 86.122 64.4808 85.0171 71.6083C84.9902 71.7829 84.8735 71.9306 84.7097 71.997C84.546 72.0637 84.3593 72.0392 84.2185 71.9338C81.7549 70.0878 76.2726 67.405 67.2251 70.1796C67.0814 70.2234 66.9241 70.2009 66.7986 70.1172C66.6731 70.0335 66.5918 69.8975 66.5773 69.7474C65.8398 62.1444 59.5182 56.4106 51.8732 56.4106C43.7262 56.4106 37.098 63.0388 37.098 71.1858C37.098 79.3329 43.7262 85.9611 51.8732 85.9611C59.698 85.9611 66.1762 79.8483 66.622 72.0444C66.6336 71.8384 66.77 71.6606 66.9656 71.5958C69.9039 70.6201 72.4515 70.2472 74.6278 70.2472ZM99.617 87.3596C92.1849 87.3596 86.1385 81.3132 86.1385 73.8815C86.1385 66.4498 92.1849 60.4034 99.617 60.4034C107.049 60.4034 113.095 66.4498 113.095 73.8815C113.095 81.3132 107.049 87.3596 99.617 87.3596ZM99.617 61.4093C92.7397 61.4093 87.1443 67.0043 87.1443 73.8815C87.1443 80.7588 92.7397 86.3538 99.617 86.3538C106.494 86.3538 112.089 80.7588 112.089 73.8815C112.089 67.0043 106.494 61.4093 99.617 61.4093ZM51.8728 84.6635C44.4411 84.6635 38.3947 78.6171 38.3947 71.1854C38.3947 63.7537 44.4411 57.7073 51.8728 57.7073C59.3049 57.7073 65.351 63.7537 65.351 71.1854C65.351 78.6171 59.3049 84.6635 51.8728 84.6635ZM51.8728 58.7132C44.9956 58.7132 39.4006 64.3082 39.4006 71.1854C39.4006 78.0627 44.9956 83.6577 51.8728 83.6577C58.7501 83.6577 64.3451 78.0627 64.3451 71.1854C64.3451 64.3082 58.7501 58.7132 51.8728 58.7132Z" fill="#31409B"/>
<path d="M74.4531 91.0133C67.8249 90.6762 65.2415 85.228 65.5782 82.1948C65.6346 81.5208 65.9154 80.9592 66.2522 80.622C68.4429 78.6561 70.3524 81.5208 74.9021 81.7453C79.5082 81.9698 81.6985 79.3301 83.6648 81.5208C84.002 81.858 84.1701 82.4756 84.1701 83.2058C84.1142 86.1265 81.1932 91.3501 74.4531 91.0133Z" fill="#22213F"/>
<path d="M84.1699 82.6439C82.2041 84.048 78.7214 85.0591 74.7334 84.8905C70.7453 84.722 67.3753 83.3178 65.5776 81.6887C65.634 81.0148 65.8585 80.9025 66.2516 80.5654C68.4423 78.5995 70.3518 81.4642 74.9015 81.6887C79.5076 81.9132 81.6979 79.2734 83.6642 81.4642C84.0018 81.8577 84.1699 81.9136 84.1699 82.6439Z" fill="white"/>
<path d="M75.0708 91.5754C74.8463 91.5754 74.6214 91.5754 74.3969 91.5754C70.6333 91.4068 68.3866 89.6095 67.1511 88.2054C65.6346 86.464 64.848 84.1051 65.0166 82.1951C65.1289 81.3526 65.4097 80.6787 65.8591 80.2293C67.3756 78.881 68.7801 79.4431 70.4652 80.117C71.7008 80.5665 73.049 81.1281 74.9026 81.2404C76.7562 81.3526 78.2167 80.9596 79.4523 80.5665C81.1937 80.0611 82.6542 79.6676 84.002 81.1845C84.3951 81.6339 84.62 82.3641 84.62 83.2066C84.62 84.7231 83.8898 87.1383 81.8676 89.0483C80.6316 90.1708 78.4412 91.5754 75.0708 91.5754ZM67.9372 80.4538C67.4878 80.4538 67.0947 80.6224 66.6453 81.0155C66.3645 81.24 66.1959 81.6894 66.14 82.2511C66.0277 83.4867 66.4208 85.5652 67.9936 87.4747C69.061 88.7666 71.0828 90.3394 74.5091 90.508C77.8791 90.6766 80.0136 89.3846 81.2496 88.2613C83.0468 86.5763 83.6649 84.4978 83.6649 83.2058C83.6649 82.6442 83.5526 82.1384 83.3277 81.9139C82.4852 80.9591 81.6427 81.1277 79.845 81.6331C78.5531 81.9702 76.9803 82.4193 74.9581 82.307C72.936 82.1947 71.3632 81.5767 70.1835 81.1273C69.1732 80.6783 68.4989 80.4538 67.9372 80.4538Z" fill="#A55A0F"/>
<path d="M50.3858 15.2664C54.2451 14.8825 57.2417 13.245 57.0789 11.6091C56.9161 9.97322 53.6556 8.95834 49.7964 9.34233C45.9371 9.72632 42.9405 11.3638 43.1033 12.9997C43.2661 14.6356 46.5266 15.6504 50.3858 15.2664Z" fill="#332E25"/>
<path d="M48.7288 15.875C45.2791 15.875 42.7371 14.7581 42.5653 13.0361C42.4635 12.0137 43.2151 11.009 44.6828 10.2064C46.0089 9.48095 47.8066 8.9752 49.7435 8.78167C51.6812 8.58855 53.5424 8.72937 54.986 9.17798C56.5829 9.67447 57.5188 10.5109 57.6206 11.5333C57.7224 12.5557 56.9708 13.5603 55.5031 14.363C54.1769 15.0884 52.3793 15.5942 50.4424 15.7877C49.8525 15.8464 49.2788 15.875 48.7288 15.875ZM49.8513 9.86277C48.0557 10.0418 46.4053 10.5025 45.2039 11.1595C44.1743 11.7224 43.5921 12.3835 43.646 12.9278C43.7598 14.0713 46.6447 15.0739 50.3345 14.7066C52.1302 14.5275 53.7806 14.0669 54.982 13.4098C56.0116 12.847 56.5938 12.1859 56.5399 11.6415C56.4856 11.0972 55.7843 10.5641 54.6634 10.2156C53.3557 9.80886 51.6466 9.68373 49.8513 9.86277Z" fill="#2D1D1D"/>
<path d="M115.06 12.9674C115.227 11.3315 112.235 9.68472 108.377 9.28917C104.518 8.89362 101.254 9.89911 101.086 11.535C100.919 13.1709 103.911 14.8177 107.769 15.2133C111.628 15.6088 114.892 14.6033 115.06 12.9674Z" fill="#332E25"/>
<path d="M109.441 15.8652C108.879 15.8652 108.292 15.8355 107.687 15.7735C103.397 15.3345 100.316 13.4978 100.52 11.5018C100.625 10.4799 101.563 9.64581 103.161 9.15334C104.606 8.70835 106.468 8.57235 108.404 8.77031C110.341 8.96826 112.137 9.47883 113.461 10.2075C114.927 11.0138 115.676 12.0204 115.571 13.042C115.396 14.7568 112.869 15.8652 109.441 15.8652ZM106.684 9.76691C105.493 9.76691 104.39 9.91095 103.481 10.1914C102.359 10.537 101.657 11.0685 101.601 11.6125C101.484 12.7555 104.109 14.3158 107.798 14.6932C111.489 15.0702 114.373 14.074 114.491 12.9317C114.546 12.3874 113.965 11.7247 112.937 11.1594C111.738 10.4992 110.088 10.0349 108.293 9.851C107.746 9.79467 107.207 9.76691 106.684 9.76691Z" fill="#2D1D1D"/>
</svg>
